<svg width="117" height="117" viewBox="0 0 117 117" fill="none" xmlns="http://www.w3.org/2000/svg">
<g clip-path="url(#clip0_2023_12807)">
<g clip-path="url(#clip1_2023_12807)">
<path fill-rule="evenodd" clip-rule="evenodd" d="M28.3912 72.8214V65.892C28.3912 63.0323 28.432 60.4165 28.5466 58.1757C27.7307 60.3301 26.3155 63.6938 25.3733 65.7686L21.7667 73.8209L18.1533 65.7686C17.0347 63.2632 15.9766 60.7311 14.98 58.1747C15.0995 60.4185 15.1335 63.0314 15.1335 65.892V72.8214H8V43.7747H14.98L18.3505 51.5337C19.9969 55.2714 21.3743 58.6701 21.8026 60.2893C22.2747 58.6322 23.5277 55.4812 25.2528 51.5337L28.6292 43.7747H35.5373V72.8205L28.3912 72.8214ZM50.2889 63.4092C49.5051 63.0304 48.6056 62.7808 47.2749 62.7808C45.813 62.7808 45.0719 63.6151 45.0719 65.1188C45.0719 66.4942 45.7363 67.4908 47.2749 67.4908C48.4434 67.4908 49.6255 66.9954 50.2889 66.4106V63.4092ZM50.2889 72.3241V70.8642C48.9524 71.9521 47.1457 72.7845 45.2681 72.7845C41.2643 72.7845 38.597 70.1551 38.597 65.2392C38.597 60.5312 41.6528 58.1116 46.0151 58.1116C47.8965 58.1116 49.1486 58.4894 50.2889 59.0343V57.9484C50.2889 56.0319 49.3098 55.3685 47.3847 55.3685C45.2681 55.3685 43.6606 55.7813 41.6538 56.944L39.818 51.9902C42.3279 50.6984 45.1117 49.9912 48.6804 49.9912C54.4424 49.9912 56.9552 53.0383 56.9552 58.1116V72.3241H50.2889ZM73.0784 50.3195H68.5092V56.6672H72.9667C75.4222 56.6672 76.4032 55.5026 76.4032 53.4297C76.4032 51.6134 75.4659 50.3215 73.0784 50.3215V50.3195ZM76.0079 72.7845L71.5543 63.01H68.5102V72.7855H61.0348V43.7747H73.2736C79.6805 43.7747 83.9447 46.3468 83.9447 53.2209C83.9447 57.5725 82.036 60.2689 79.021 61.7172L84.4925 72.7845H76.0079ZM98.3796 72.7845C93.8406 72.7845 89.4677 71.245 86.5323 69.245L90.305 62.9216C92.3564 64.3786 95.929 65.8385 98.5419 65.8385C101.314 65.8385 102.197 65.3344 102.197 63.9639C102.197 62.8789 101.197 62.2135 97.4209 61.3005C90.6294 59.6744 87.3735 57.7619 87.3735 51.9368C87.3725 46.4439 91.6745 42.7383 98.4671 42.7383C103.243 42.7383 106.696 43.9427 109.674 46.1127L105.891 52.439C103.401 50.6867 100.917 49.6911 98.063 49.6911C95.7308 49.6911 95.1645 50.439 95.1645 51.4783C95.1645 52.5643 96.1718 53.0665 99.7871 53.9329C106.858 55.6832 109.99 57.9241 109.99 63.3801C109.99 70.0415 105.135 72.7845 98.3796 72.7845Z" fill="#1B2C50"/>
</g>
</g>
<defs>
<clipPath id="clip0_2023_12807">
<rect width="116.56" height="116.56" fill="white" transform="translate(0.230469)"/>
</clipPath>
<clipPath id="clip1_2023_12807">
<rect width="116.56" height="116.56" fill="white" transform="translate(0.230469)"/>
</clipPath>
</defs>
</svg>
