<svg width="118" height="117" viewBox="0 0 118 117" fill="none" xmlns="http://www.w3.org/2000/svg">
<g clip-path="url(#clip0_2023_12743)">
<g clip-path="url(#clip1_2023_12743)">
<g clip-path="url(#clip2_2023_12743)">
<mask id="mask0_2023_12743" style="mask-type:luminance" maskUnits="userSpaceOnUse" x="0" y="22" width="117" height="73">
<path fill-rule="evenodd" clip-rule="evenodd" d="M0.828125 22.7939H116.865V94.2758H0.828125V22.7939Z" fill="white"/>
</mask>
<g mask="url(#mask0_2023_12743)">
<path fill-rule="evenodd" clip-rule="evenodd" d="M94.0965 84.2767C94.0846 84.2862 94.0727 84.2949 94.0608 84.3044L93.7452 83.9262C87.24 89.2767 78.977 92.1706 70.4499 92.1706C60.6921 92.1706 51.5497 88.4871 44.6933 81.7332C37.8368 75.0679 34.0562 66.1218 34.0562 56.6488C34.0562 49.3696 36.2542 42.2653 40.5613 36.3009C44.7813 30.4244 50.5831 26.0392 57.4395 23.4957L57.1763 22.7939C50.2311 25.4252 44.254 29.8983 40.034 35.8626C35.6388 42.0018 33.2656 49.194 33.2656 56.6488C33.2656 66.2967 37.1335 75.4184 44.166 82.2593C44.8273 82.9033 45.5155 83.5101 46.2157 84.0987L45.3086 85.1541C52.253 91.0306 61.2194 94.2758 70.4499 94.2758C79.5043 94.2758 88.2066 91.1184 95.1518 85.5053L94.0965 84.2767Z" fill="#004B86"/>
</g>
<path fill-rule="evenodd" clip-rule="evenodd" d="M40.9144 34.7227C40.7391 34.1088 40.6511 33.5827 40.6511 32.9688C40.6511 30.3375 42.409 27.9688 45.5736 27.9688C46.2769 27.9688 46.8922 28.0566 47.4195 28.2323C47.9468 27.794 48.5621 27.3549 49.1774 27.0044C48.1228 26.3905 46.8922 26.04 45.5736 26.04C41.7057 26.04 38.4531 29.1096 38.4531 32.9688C38.4531 34.2844 38.8932 35.6001 39.5077 36.6523C39.6837 36.3896 39.8598 36.1262 40.035 35.9505C40.2991 35.5115 40.6511 35.074 40.9144 34.7227Z" fill="#1B2C50"/>
<path fill-rule="evenodd" clip-rule="evenodd" d="M50.4064 27.8809C49.7911 28.2313 49.2638 28.5826 48.7365 29.0209C49.8791 29.8982 50.4944 31.3887 50.4944 32.9678C50.4944 35.5991 48.5605 37.8792 45.572 37.8792C43.9013 37.8792 42.5826 37.1774 41.7041 36.0374C41.528 36.3009 41.352 36.4765 41.176 36.7392C40.9127 37.0904 40.6495 37.4409 40.4727 37.7914C41.7921 39.02 43.55 39.8095 45.572 39.8095C49.5271 39.8095 52.6924 36.827 52.6924 32.9678C52.6924 30.9504 51.8131 29.1087 50.4064 27.8809Z" fill="#1B2C50"/>
<path fill-rule="evenodd" clip-rule="evenodd" d="M37.8383 50.86C37.8383 52.9652 36.6076 54.807 34.7617 55.5087V56.6487V57.6139C37.7503 56.8243 40.0355 54.193 40.0355 50.86C40.0355 48.4921 38.7176 46.3869 36.7837 45.0713C36.5196 45.773 36.3436 46.3869 36.0804 47.0009C37.223 47.966 37.8383 49.3695 37.8383 50.86Z" fill="#1B2C50"/>
<path fill-rule="evenodd" clip-rule="evenodd" d="M33.3527 55.8594H32.9134C29.9249 55.8594 27.9022 53.5794 27.9022 50.8603C27.9022 48.3168 29.6609 45.9489 32.9134 45.9489C33.6168 45.9489 34.3201 46.0359 34.8466 46.2994C35.0234 45.6847 35.1986 45.0715 35.4627 44.4576C34.6714 44.1942 33.792 44.0186 32.9134 44.0186C28.9575 44.0186 25.793 47.0889 25.793 50.8603C25.793 54.8072 28.9575 57.789 32.9134 57.789H33.3527C33.3527 57.4385 33.2647 56.9994 33.2647 56.649C33.2647 56.3855 33.3527 56.1229 33.3527 55.8594Z" fill="#1B2C50"/>
<path fill-rule="evenodd" clip-rule="evenodd" d="M38.0136 64.0165C41.1781 64.0165 42.936 66.3843 42.936 68.9278C42.936 71.2079 41.5302 73.2253 39.3322 73.7521C39.6835 74.3661 40.0355 74.8922 40.3868 75.5061C43.1121 74.5417 45.134 72.0852 45.134 68.9278C45.134 65.1565 41.8814 62.0869 38.0136 62.0869C37.047 62.0869 36.0796 62.2625 35.2891 62.613C35.3763 63.2269 35.4643 63.9287 35.6403 64.5426C36.3437 64.1921 37.1342 64.0165 38.0136 64.0165Z" fill="#1B2C50"/>
<path fill-rule="evenodd" clip-rule="evenodd" d="M33.0878 68.9275C33.0878 67.6119 33.5279 66.384 34.4065 65.4197C34.2304 64.7179 34.0552 64.0162 33.9672 63.3145C32.1212 64.5423 30.8906 66.6475 30.8906 68.9275C30.8906 72.8753 34.0552 75.8563 38.0111 75.8563C38.2743 75.8563 38.6264 75.8563 38.8904 75.7692C38.5384 75.1553 38.0991 74.5414 37.747 73.9275C34.9345 73.7518 33.0878 71.6466 33.0878 68.9275Z" fill="#1B2C50"/>
<path fill-rule="evenodd" clip-rule="evenodd" d="M72.5579 62.3506V70.3323C72.5579 72.1741 71.9426 73.928 69.5693 73.928C67.1953 73.928 66.58 72.1741 66.58 70.3323V62.3506H64.3828V70.7706C64.3828 73.6646 66.2287 75.8576 69.5693 75.8576C72.9099 75.8576 74.7551 73.6646 74.7551 70.7706V62.3506H72.5579Z" fill="#1B2C50"/>
<path fill-rule="evenodd" clip-rule="evenodd" d="M74.3191 37.7045H80.2969V39.5463H72.1211V26.3027H74.3191V37.7045Z" fill="#1B2C50"/>
<path fill-rule="evenodd" clip-rule="evenodd" d="M0.828125 44.2822H8.5639V46.211H3.02532V49.3692H8.47589V51.2988H3.02532V55.5962H8.5639V57.5258H0.828125V44.2822Z" fill="#1B2C50"/>
<path fill-rule="evenodd" clip-rule="evenodd" d="M44.5195 43.5811L53.662 52.9655V44.2828H55.8592V58.0524L46.7167 48.8437V57.5263H44.5195V43.5811Z" fill="#1B2C50"/>
<mask id="mask1_2023_12743" style="mask-type:luminance" maskUnits="userSpaceOnUse" x="0" y="22" width="117" height="73">
<path fill-rule="evenodd" clip-rule="evenodd" d="M0.828125 22.7939H116.865V94.2758H0.828125V22.7939Z" fill="white"/>
</mask>
<g mask="url(#mask1_2023_12743)">
<path fill-rule="evenodd" clip-rule="evenodd" d="M99.0195 44.2822H101.218V57.5258H99.0195V44.2822Z" fill="#1B2C50"/>
</g>
<mask id="mask2_2023_12743" style="mask-type:luminance" maskUnits="userSpaceOnUse" x="0" y="22" width="117" height="73">
<path fill-rule="evenodd" clip-rule="evenodd" d="M0.828125 22.7939H116.865V94.2758H0.828125V22.7939Z" fill="white"/>
</mask>
<g mask="url(#mask2_2023_12743)">
<path fill-rule="evenodd" clip-rule="evenodd" d="M22.1894 64.2802V67.4376H26.9358V69.2801H22.1894V75.5941H19.9922V62.3506H27.1127V64.2802H22.1894Z" fill="#1B2C50"/>
</g>
<mask id="mask3_2023_12743" style="mask-type:luminance" maskUnits="userSpaceOnUse" x="0" y="22" width="117" height="73">
<path fill-rule="evenodd" clip-rule="evenodd" d="M0.828125 22.7939H116.865V94.2758H0.828125V22.7939Z" fill="white"/>
</mask>
<g mask="url(#mask3_2023_12743)">
<path fill-rule="evenodd" clip-rule="evenodd" d="M30.9783 34.5469H31.0663L33.1755 26.3025H35.2863L31.5936 40.0729L26.9344 30.1616L22.276 40.0729L18.4961 26.3025H20.6933L22.8033 34.5469L26.9344 26.0391L30.9783 34.5469Z" fill="#1B2C50"/>
</g>
<mask id="mask4_2023_12743" style="mask-type:luminance" maskUnits="userSpaceOnUse" x="0" y="22" width="117" height="73">
<path fill-rule="evenodd" clip-rule="evenodd" d="M0.828125 22.7939H116.865V94.2758H0.828125V22.7939Z" fill="white"/>
</mask>
<g mask="url(#mask4_2023_12743)">
<path fill-rule="evenodd" clip-rule="evenodd" d="M81.7915 49.2821H81.7035L79.5936 57.5265H77.4844L81.1762 43.7568L85.8355 53.7552L90.4947 43.7568L94.2746 57.5265H92.0766L89.9666 49.2821H89.8786L85.8355 57.8777L81.7915 49.2821Z" fill="#1B2C50"/>
</g>
<mask id="mask5_2023_12743" style="mask-type:luminance" maskUnits="userSpaceOnUse" x="0" y="22" width="117" height="73">
<path fill-rule="evenodd" clip-rule="evenodd" d="M0.828125 22.7939H116.865V94.2758H0.828125V22.7939Z" fill="white"/>
</mask>
<g mask="url(#mask5_2023_12743)">
<path fill-rule="evenodd" clip-rule="evenodd" d="M82.9322 67.3493L80.8222 75.5937H78.625L82.3169 61.8232L87.0641 71.7345L91.7233 61.8232L95.4144 75.5937H93.2172L91.1072 67.3493L87.0641 75.8571L82.9322 67.3493Z" fill="#1B2C50"/>
</g>
<mask id="mask6_2023_12743" style="mask-type:luminance" maskUnits="userSpaceOnUse" x="0" y="22" width="117" height="73">
<path fill-rule="evenodd" clip-rule="evenodd" d="M0.828125 22.7939H116.865V94.2758H0.828125V22.7939Z" fill="white"/>
</mask>
<g mask="url(#mask6_2023_12743)">
<path fill-rule="evenodd" clip-rule="evenodd" d="M53.3968 62.3506C54.6274 62.3506 56.0341 62.3506 57.0887 62.9645C58.2321 63.5784 58.9346 64.8941 58.9346 66.1219C58.9346 68.0515 57.6168 69.6306 55.682 69.8054L59.902 75.5941H57.4407L53.4848 69.981H51.9902V75.5941H49.793V62.3506H53.3968ZM51.9902 68.2271H52.9575C54.7154 68.2271 56.8254 68.3141 56.8254 66.2097C56.8254 64.1045 54.6274 64.1923 52.8695 64.1923H51.9902V68.2271Z" fill="#1B2C50"/>
</g>
<mask id="mask7_2023_12743" style="mask-type:luminance" maskUnits="userSpaceOnUse" x="0" y="22" width="117" height="73">
<path fill-rule="evenodd" clip-rule="evenodd" d="M0.828125 22.7939H116.865V94.2758H0.828125V22.7939Z" fill="white"/>
</mask>
<g mask="url(#mask7_2023_12743)">
<path fill-rule="evenodd" clip-rule="evenodd" d="M60.8695 26.3027C62.1001 26.3027 63.5067 26.3027 64.5613 26.9167C65.7047 27.5306 66.3192 28.8462 66.3192 30.0741C66.3192 32.0044 65.0894 33.5827 63.0675 33.7576L67.3746 39.5463H64.9134L60.8695 33.9332H59.4628V39.5463H57.2656V26.3027H60.8695ZM59.4628 32.1793H60.4302C62.1881 32.1793 64.2101 32.2671 64.2101 30.1619C64.2101 28.0567 62.0121 28.1453 60.3422 28.1453H59.4628V32.1793Z" fill="#1B2C50"/>
</g>
<mask id="mask8_2023_12743" style="mask-type:luminance" maskUnits="userSpaceOnUse" x="0" y="22" width="117" height="73">
<path fill-rule="evenodd" clip-rule="evenodd" d="M0.828125 22.7939H116.865V94.2758H0.828125V22.7939Z" fill="white"/>
</mask>
<g mask="url(#mask8_2023_12743)">
<path fill-rule="evenodd" clip-rule="evenodd" d="M86.3621 37.7045H87.5927C90.494 37.7045 93.2185 36.6515 93.2185 32.8802C93.2185 29.0211 90.494 28.1445 87.5927 28.1445H86.3621V37.7045ZM84.1641 26.3027H87.7679C91.9879 26.3027 95.4165 28.3193 95.4165 32.8802C95.4165 37.4411 92.0759 39.5463 87.7679 39.5463H84.1641V26.3027Z" fill="#1B2C50"/>
</g>
<mask id="mask9_2023_12743" style="mask-type:luminance" maskUnits="userSpaceOnUse" x="0" y="22" width="117" height="73">
<path fill-rule="evenodd" clip-rule="evenodd" d="M0.828125 22.7939H116.865V94.2758H0.828125V22.7939Z" fill="white"/>
</mask>
<g mask="url(#mask9_2023_12743)">
<path fill-rule="evenodd" clip-rule="evenodd" d="M115.722 55.2465C115.019 55.6848 114.228 55.8604 113.261 55.8604C110.36 55.8604 108.339 53.6674 108.339 50.9483C108.339 48.3177 110.097 45.9491 113.261 45.9491C114.228 45.9491 115.019 46.1247 115.722 46.4752L116.777 44.8969C115.81 44.3708 114.58 44.0195 113.261 44.0195C109.393 44.0195 106.141 47.0899 106.141 50.9483C106.141 54.8082 109.393 57.79 113.261 57.79C114.58 57.79 115.81 57.5265 116.865 56.9126L115.722 55.2465Z" fill="#1B2C50"/>
</g>
<mask id="mask10_2023_12743" style="mask-type:luminance" maskUnits="userSpaceOnUse" x="0" y="22" width="117" height="73">
<path fill-rule="evenodd" clip-rule="evenodd" d="M0.828125 22.7939H116.865V94.2758H0.828125V22.7939Z" fill="white"/>
</mask>
<g mask="url(#mask10_2023_12743)">
<path fill-rule="evenodd" clip-rule="evenodd" d="M22.2789 55.2465C21.5755 55.6848 20.7842 55.8604 19.9056 55.8604C16.9163 55.8604 14.8943 53.6674 14.8943 50.9483C14.8943 48.3177 16.6523 45.9491 19.9056 45.9491C20.7842 45.9491 21.5755 46.1247 22.2789 46.4752L23.4215 44.8969C22.3669 44.3708 21.1355 44.0195 19.9056 44.0195C15.9497 44.0195 12.7852 47.0899 12.7852 50.9483C12.7852 54.8082 15.9497 57.79 19.9056 57.79C21.1355 57.79 22.3669 57.5265 23.4215 56.9126L22.2789 55.2465Z" fill="#1B2C50"/>
</g>
<mask id="mask11_2023_12743" style="mask-type:luminance" maskUnits="userSpaceOnUse" x="0" y="22" width="117" height="73">
<path fill-rule="evenodd" clip-rule="evenodd" d="M0.828125 22.7939H116.865V94.2758H0.828125V22.7939Z" fill="white"/>
</mask>
<g mask="url(#mask11_2023_12743)">
<path fill-rule="evenodd" clip-rule="evenodd" d="M72.4726 50.9483C72.4726 48.317 70.7147 45.9491 67.5502 45.9491C64.2976 45.9491 62.5389 48.317 62.5389 50.9483C62.5389 53.6674 64.5608 55.8596 67.5502 55.8596C70.4507 55.8596 72.4726 53.6674 72.4726 50.9483ZM74.6706 50.9483C74.6706 54.8074 71.4173 57.79 67.5502 57.79C63.5943 57.79 60.4297 54.8074 60.4297 50.9483C60.4297 47.0891 63.5943 44.0195 67.5502 44.0195C71.4173 44.0195 74.6706 47.0891 74.6706 50.9483Z" fill="#1B2C50"/>
</g>
</g>
</g>
</g>
<defs>
<clipPath id="clip0_2023_12743">
<rect width="116.56" height="116.56" fill="white" transform="translate(0.828125)"/>
</clipPath>
<clipPath id="clip1_2023_12743">
<rect width="116.56" height="116.56" fill="white" transform="translate(0.828125)"/>
</clipPath>
<clipPath id="clip2_2023_12743">
<rect width="116.56" height="71.9929" fill="white" transform="translate(0.828125 22.2832)"/>
</clipPath>
</defs>
</svg>
