<svg width="118" height="117" viewBox="0 0 118 117" fill="none" xmlns="http://www.w3.org/2000/svg">
<g clip-path="url(#clip0_2023_12811)">
<g clip-path="url(#clip1_2023_12811)">
<g clip-path="url(#clip2_2023_12811)">
<path d="M38.3378 51.5287C38.3845 51.5755 38.44 51.6127 38.5011 51.638C38.5621 51.6633 38.6276 51.6764 38.6937 51.6764C38.7599 51.6764 38.8253 51.6633 38.8864 51.638C38.9475 51.6127 39.0029 51.5755 39.0496 51.5287L49.7091 40.8692C49.7558 40.8225 49.7929 40.767 49.8182 40.706C49.8435 40.6449 49.8565 40.5794 49.8565 40.5133C49.8565 40.4472 49.8435 40.3818 49.8182 40.3207C49.7929 40.2597 49.7558 40.2042 49.7091 40.1574C49.6624 40.1107 49.6069 40.0736 49.5458 40.0483C49.4847 40.023 49.4193 40.01 49.3532 40.01C49.2871 40.01 49.2216 40.023 49.1606 40.0483C49.0995 40.0736 49.044 40.1107 48.9973 40.1574L38.3378 50.8169C38.2903 50.8632 38.2524 50.9185 38.2266 50.9796C38.2008 51.0408 38.1875 51.1064 38.1875 51.1728C38.1875 51.2392 38.2008 51.3049 38.2266 51.366C38.2524 51.4271 38.2903 51.4824 38.3378 51.5287Z" fill="#BB8F10"/>
<path d="M39.8559 53.5038C39.9227 53.6195 40.0326 53.7038 40.1616 53.7383C40.2906 53.7729 40.428 53.7548 40.5436 53.688L57.9485 43.6389C58.0073 43.6067 58.0591 43.5631 58.1009 43.5105C58.1426 43.458 58.1735 43.3977 58.1916 43.333C58.2097 43.2684 58.2147 43.2008 58.2063 43.1343C58.1979 43.0677 58.1763 43.0035 58.1427 42.9454C58.1092 42.8872 58.0643 42.8364 58.0108 42.7959C57.9574 42.7553 57.8963 42.7259 57.8313 42.7093C57.7663 42.6927 57.6986 42.6892 57.6323 42.6991C57.5659 42.709 57.5022 42.7321 57.4448 42.767L40.04 52.8161C39.9248 52.8832 39.8408 52.9932 39.8063 53.122C39.7718 53.2508 39.7896 53.3881 39.8559 53.5038Z" fill="#BB8F10"/>
<path d="M22.3652 55.8077C22.399 55.6787 22.3806 55.5417 22.314 55.4262C22.2473 55.3108 22.1379 55.2263 22.0093 55.1911L7.45088 51.2921C7.32204 51.2573 7.18464 51.2751 7.06892 51.3416C6.9532 51.4081 6.86863 51.5178 6.83382 51.6466C6.79901 51.7755 6.81682 51.9129 6.88332 52.0286C6.94981 52.1443 7.05955 52.2289 7.1884 52.2637L21.7468 56.1627C21.8759 56.1975 22.0135 56.1797 22.1295 56.1131C22.2454 56.0466 22.3302 55.9367 22.3652 55.8077Z" fill="#BB8F10"/>
<path d="M47.3061 58.781H61.7301C61.8599 58.7755 61.9826 58.7201 62.0725 58.6264C62.1624 58.5326 62.2126 58.4077 62.2126 58.2778C62.2126 58.1479 62.1624 58.023 62.0725 57.9293C61.9826 57.8355 61.8599 57.7801 61.7301 57.7747H43.8359C45.0128 58.0689 46.1695 58.4043 47.3061 58.781Z" fill="#BB8F10"/>
<path d="M36.361 50.0128C36.4767 50.0793 36.614 50.0973 36.7429 50.0628C36.8718 50.0282 36.9818 49.9441 37.0488 49.8286L47.0979 32.4238C47.1327 32.3665 47.1558 32.3028 47.1657 32.2364C47.1756 32.17 47.1722 32.1024 47.1556 32.0374C47.1389 31.9723 47.1095 31.9113 47.069 31.8578C47.0284 31.8043 46.9776 31.7595 46.9195 31.726C46.8614 31.6924 46.7972 31.6708 46.7306 31.6624C46.664 31.654 46.5964 31.659 46.5318 31.6771C46.4672 31.6952 46.4069 31.726 46.3543 31.7678C46.3018 31.8095 46.2581 31.8614 46.2259 31.9202L36.1768 49.325C36.1101 49.4407 36.092 49.5781 36.1265 49.707C36.1611 49.836 36.2454 49.946 36.361 50.0128Z" fill="#BB8F10"/>
<path d="M41.4211 56.1627L55.9795 52.2637C56.0433 52.2465 56.1031 52.2168 56.1554 52.1765C56.2078 52.1362 56.2517 52.0859 56.2846 52.0286C56.3175 51.9713 56.3388 51.9081 56.3473 51.8426C56.3558 51.777 56.3513 51.7105 56.3341 51.6467C56.3168 51.5829 56.2872 51.5231 56.2469 51.4707C56.2065 51.4184 56.1563 51.3745 56.099 51.3416C56.0417 51.3086 55.9785 51.2873 55.9129 51.2788C55.8474 51.2703 55.7808 51.2748 55.717 51.2921L41.1586 55.191C41.0946 55.208 41.0346 55.2374 40.9821 55.2776C40.9295 55.3178 40.8854 55.368 40.8523 55.4253C40.8193 55.4826 40.7979 55.5459 40.7893 55.6115C40.7808 55.6771 40.7853 55.7438 40.8027 55.8077C40.8385 55.9362 40.9234 56.0455 41.0391 56.1119C41.1548 56.1783 41.292 56.1966 41.4211 56.1627Z" fill="#BB8F10"/>
<path d="M31.5926 48.7323C31.6587 48.7324 31.7243 48.7194 31.7854 48.6942C31.8466 48.6689 31.9021 48.6318 31.9489 48.585C31.9957 48.5382 32.0328 48.4827 32.0581 48.4215C32.0833 48.3604 32.0963 48.2948 32.0962 48.2286V28.1341C32.0907 28.0043 32.0353 27.8816 31.9416 27.7917C31.8478 27.7018 31.7229 27.6516 31.593 27.6516C31.4631 27.6516 31.3382 27.7018 31.2445 27.7917C31.1507 27.8816 31.0953 28.0043 31.0898 28.1341V48.2295C31.0898 48.3629 31.1428 48.4907 31.2371 48.585C31.3314 48.6793 31.4592 48.7323 31.5926 48.7323Z" fill="#BB8F10"/>
<path d="M5.23013 43.6431L22.6358 53.6921C22.7512 53.7553 22.8868 53.7708 23.0135 53.7354C23.1402 53.6999 23.248 53.6162 23.3138 53.5023C23.3796 53.3883 23.3982 53.2532 23.3656 53.1257C23.333 52.9982 23.2518 52.8886 23.1394 52.8202L5.73374 42.7711C5.61833 42.7079 5.48278 42.6924 5.35608 42.7279C5.22938 42.7634 5.12159 42.847 5.05579 42.961C4.98999 43.0749 4.97139 43.2101 5.00397 43.3375C5.03655 43.465 5.11773 43.5747 5.23013 43.6431Z" fill="#BB8F10"/>
<path d="M34.0608 49.0588C34.1897 49.0926 34.3268 49.0742 34.4422 49.0076C34.5576 48.9409 34.6421 48.8315 34.6774 48.7029L38.5764 34.1445C38.6112 34.0156 38.5934 33.8782 38.5269 33.7625C38.4604 33.6468 38.3506 33.5622 38.2218 33.5274C38.0929 33.4926 37.9555 33.5104 37.8398 33.5769C37.7241 33.6434 37.6395 33.7532 37.6047 33.882L33.7057 48.4404C33.688 48.5044 33.6831 48.5712 33.6914 48.637C33.6997 48.7028 33.721 48.7663 33.754 48.8238C33.787 48.8814 33.8311 48.9318 33.8838 48.9721C33.9365 49.0124 33.9966 49.0419 34.0608 49.0588Z" fill="#BB8F10"/>
<path d="M1.44483 58.7818H15.868C17.0057 58.4063 18.1624 58.072 19.3381 57.779H1.44483C1.37721 57.7762 1.30972 57.787 1.2464 57.8109C1.18309 57.8348 1.12526 57.8713 1.07641 57.9182C1.02756 57.965 0.98868 58.0212 0.962124 58.0835C0.935567 58.1457 0.921875 58.2127 0.921875 58.2804C0.921875 58.3481 0.935567 58.4151 0.962124 58.4773C0.98868 58.5396 1.02756 58.5958 1.07641 58.6426C1.12526 58.6895 1.18309 58.7259 1.2464 58.7499C1.30972 58.7738 1.37721 58.7846 1.44483 58.7818Z" fill="#BB8F10"/>
<path d="M24.1272 51.5287C24.1739 51.5755 24.2294 51.6125 24.2905 51.6378C24.3515 51.6631 24.417 51.6761 24.4831 51.6761C24.5492 51.6761 24.6146 51.6631 24.6757 51.6378C24.7368 51.6125 24.7923 51.5755 24.839 51.5287C24.8857 51.482 24.9228 51.4265 24.9481 51.3654C24.9734 51.3043 24.9864 51.2389 24.9864 51.1728C24.9864 51.1067 24.9734 51.0412 24.9481 50.9802C24.9228 50.9191 24.8857 50.8636 24.839 50.8169L14.1795 40.1574C14.0852 40.063 13.9571 40.01 13.8236 40.01C13.6901 40.01 13.5621 40.063 13.4677 40.1574C13.3733 40.2518 13.3203 40.3799 13.3203 40.5133C13.3203 40.6468 13.3733 40.7749 13.4677 40.8692L24.1272 51.5287Z" fill="#BB8F10"/>
<path d="M26.1305 49.8285C26.1989 49.9409 26.3085 50.0221 26.436 50.0547C26.5635 50.0872 26.6986 50.0686 26.8126 50.0028C26.9265 49.937 27.0102 49.8292 27.0457 49.7025C27.0811 49.5758 27.0656 49.4403 27.0025 49.3249L16.9534 31.9201C16.885 31.8077 16.7753 31.7265 16.6479 31.6939C16.5204 31.6613 16.3852 31.6799 16.2713 31.7457C16.1573 31.8115 16.0737 31.9193 16.0382 32.046C16.0027 32.1727 16.0182 32.3083 16.0814 32.4237L26.1305 49.8285Z" fill="#BB8F10"/>
<path d="M28.5011 48.7035C28.5359 48.8324 28.6205 48.9421 28.7362 49.0086C28.8519 49.0751 28.9893 49.0929 29.1182 49.0581C29.247 49.0233 29.3567 48.9387 29.4232 48.823C29.4897 48.7073 29.5075 48.5699 29.4727 48.4411L25.5711 33.8791C25.5538 33.8153 25.5242 33.7555 25.4839 33.7031C25.4435 33.6508 25.3933 33.6069 25.336 33.574C25.2787 33.5411 25.2155 33.5197 25.1499 33.5113C25.0844 33.5028 25.0178 33.5073 24.954 33.5245C24.8902 33.5417 24.8304 33.5714 24.7781 33.6117C24.7258 33.652 24.6819 33.7023 24.6489 33.7596C24.616 33.8169 24.5947 33.8801 24.5862 33.9456C24.5777 34.0112 24.5822 34.0778 24.5994 34.1416L28.5011 48.7035Z" fill="#BB8F10"/>
<path d="M56.849 65.3015C49.2451 60.6445 40.5019 58.1799 31.5853 58.1799C22.6686 58.1799 13.9255 60.6445 6.32154 65.3015C6.19094 65.3877 6.09898 65.5214 6.06509 65.6742C6.0312 65.827 6.05803 65.987 6.13992 66.1204C6.22181 66.2538 6.35234 66.3502 6.50394 66.3891C6.65554 66.4281 6.81634 66.4066 6.95239 66.3292C14.3662 61.7878 22.8911 59.3843 31.5853 59.3843C40.2794 59.3843 48.8043 61.7878 56.2181 66.3292C56.3542 66.4066 56.515 66.4281 56.6666 66.3891C56.8182 66.3502 56.9487 66.2538 57.0306 66.1204C57.1125 65.987 57.1393 65.827 57.1054 65.6742C57.0715 65.5214 56.9796 65.3877 56.849 65.3015Z" fill="#75AF6C"/>
<path d="M31.0859 68.325V85.0776C31.0857 85.4081 31.1508 85.7355 31.2774 86.0409C31.4039 86.3462 31.5896 86.6236 31.8236 86.8571L32.2382 87.2717C32.3326 87.3661 32.4606 87.4192 32.5941 87.4192C32.7276 87.4192 32.8556 87.3661 32.95 87.2717C33.0444 87.1774 33.0974 87.0493 33.0974 86.9158C33.0974 86.7823 33.0444 86.6543 32.95 86.5599L32.5354 86.1453C32.2515 85.8624 32.0915 85.4784 32.0905 85.0776V68.325C32.0933 68.2573 32.0825 68.1898 32.0586 68.1265C32.0347 68.0632 31.9982 68.0054 31.9514 67.9565C31.9045 67.9077 31.8483 67.8688 31.786 67.8422C31.7238 67.8157 31.6568 67.802 31.5891 67.802C31.5214 67.802 31.4544 67.8157 31.3922 67.8422C31.3299 67.8688 31.2737 67.9077 31.2269 67.9565C31.18 68.0054 31.1436 68.0632 31.1196 68.1265C31.0957 68.1898 31.0849 68.2573 31.0877 68.325H31.0859Z" fill="#EF9000"/>
<path d="M31.2316 83.755L33.1562 85.6796C33.4401 85.9625 33.6001 86.3465 33.601 86.7473V88.4272C33.6065 88.557 33.6619 88.6796 33.7557 88.7695C33.8494 88.8594 33.9743 88.9096 34.1042 88.9096C34.2341 88.9096 34.359 88.8594 34.4528 88.7695C34.5465 88.6796 34.6019 88.557 34.6074 88.4272V86.7473C34.6076 86.4167 34.5425 86.0894 34.4159 85.784C34.2894 85.4786 34.1038 85.2012 33.8698 84.9677L31.9452 83.0432C31.8508 82.9488 31.7228 82.8958 31.5893 82.8958C31.4558 82.8958 31.3278 82.9488 31.2334 83.0432C31.139 83.1376 31.0859 83.2656 31.0859 83.3991C31.0859 83.5326 31.139 83.6606 31.2334 83.755H31.2316Z" fill="#EF9000"/>
<path d="M33.701 68.1162L36.7351 79.4456C36.8203 79.7641 36.9675 80.0627 37.1683 80.3243C37.3691 80.5858 37.6195 80.8052 37.9052 80.9698L38.4159 81.2643C38.4732 81.2992 38.537 81.3222 38.6033 81.3322C38.6697 81.3421 38.7374 81.3386 38.8024 81.322C38.8674 81.3054 38.9284 81.2759 38.9819 81.2354C39.0354 81.1949 39.0802 81.144 39.1138 81.0859C39.1473 81.0278 39.1689 80.9636 39.1773 80.897C39.1857 80.8304 39.1807 80.7629 39.1626 80.6983C39.1445 80.6336 39.1137 80.5733 39.0719 80.5208C39.0302 80.4682 38.9784 80.4246 38.9195 80.3923L38.4088 80.0978C38.237 79.9995 38.0865 79.868 37.966 79.7109C37.8455 79.5539 37.7573 79.3745 37.7068 79.1831L34.6726 67.8537C34.6378 67.7248 34.5533 67.6151 34.4376 67.5486C34.3218 67.4821 34.1844 67.4643 34.0556 67.4991C33.9267 67.5339 33.817 67.6185 33.7505 67.7342C33.684 67.8499 33.6662 67.9873 33.701 68.1162Z" fill="#EF9000"/>
<path d="M36.5387 78.1294L38.8957 79.4908C39.0675 79.5891 39.218 79.7206 39.3386 79.8776C39.4591 80.0347 39.5472 80.2141 39.5978 80.4055L40.0337 82.0293C40.0685 82.1581 40.1531 82.2679 40.2688 82.3344C40.3846 82.4009 40.522 82.4186 40.6508 82.3838C40.7797 82.349 40.8894 82.2645 40.9559 82.1487C41.0224 82.033 41.0402 81.8956 41.0054 81.7668L40.5694 80.143C40.4842 79.8244 40.337 79.5258 40.1362 79.2643C39.9354 79.0027 39.685 78.7834 39.3993 78.6188L37.0423 77.2574C36.9269 77.1942 36.7914 77.1787 36.6647 77.2142C36.538 77.2497 36.4302 77.3334 36.3644 77.4473C36.2986 77.5612 36.28 77.6964 36.3126 77.8239C36.3451 77.9514 36.4263 78.061 36.5387 78.1294Z" fill="#EF9000"/>
<path d="M38.3388 65.7372L46.6297 74.0281C46.8632 74.2621 47.1406 74.4477 47.446 74.5743C47.7513 74.7009 48.0787 74.7659 48.4093 74.7657H48.9974C49.1272 74.7603 49.2498 74.7049 49.3397 74.6111C49.4297 74.5174 49.4798 74.3925 49.4798 74.2626C49.4798 74.1327 49.4297 74.0078 49.3397 73.914C49.2498 73.8203 49.1272 73.7649 48.9974 73.7594H48.4093C48.0085 73.7584 47.6244 73.5984 47.3415 73.3145L39.0507 65.0236C38.9563 64.9292 38.8282 64.8762 38.6947 64.8762C38.5612 64.8762 38.4332 64.9292 38.3388 65.0236C38.2444 65.118 38.1914 65.2461 38.1914 65.3796C38.1914 65.513 38.2444 65.6411 38.3388 65.7355V65.7372Z" fill="#EF9000"/>
<path d="M45.7964 72.9916H48.5155C48.9163 72.9925 49.3004 73.1526 49.5833 73.4365L50.7711 74.6243C50.8655 74.7187 50.9935 74.7717 51.127 74.7717C51.2605 74.7717 51.3885 74.7187 51.4829 74.6243C51.5773 74.5299 51.6303 74.4019 51.6303 74.2684C51.6303 74.1349 51.5773 74.0069 51.4829 73.9125L50.2951 72.7246C50.0616 72.4906 49.7842 72.305 49.4788 72.1785C49.1735 72.0519 48.8461 71.9868 48.5155 71.987H45.7964C45.7288 71.9842 45.6613 71.995 45.598 72.0189C45.5346 72.0428 45.4768 72.0793 45.428 72.1262C45.3791 72.173 45.3402 72.2292 45.3137 72.2915C45.2871 72.3537 45.2734 72.4207 45.2734 72.4884C45.2734 72.5561 45.2871 72.6231 45.3137 72.6853C45.3402 72.7476 45.3791 72.8038 45.428 72.8507C45.4768 72.8975 45.5346 72.934 45.598 72.9579C45.6613 72.9818 45.7288 72.9926 45.7964 72.9898V72.9916Z" fill="#EF9000"/>
<path d="M36.1778 67.233L44.5541 81.7416C44.7183 82.0272 44.9372 82.2775 45.1983 82.4783C45.4594 82.6791 45.7575 82.8263 46.0756 82.9117L46.6424 83.0638C46.7062 83.0811 46.7728 83.0855 46.8383 83.0771C46.9039 83.0686 46.9671 83.0473 47.0244 83.0143C47.0817 82.9814 47.1319 82.9375 47.1723 82.8852C47.2126 82.8328 47.2422 82.773 47.2595 82.7092C47.2767 82.6454 47.2812 82.5789 47.2727 82.5133C47.2642 82.4478 47.2429 82.3846 47.21 82.3273C47.1771 82.27 47.1332 82.2197 47.0808 82.1794C47.0285 82.1391 46.9687 82.1094 46.9049 82.0922L46.3381 81.94C46.1467 81.8894 45.9673 81.8013 45.8103 81.6808C45.6533 81.5603 45.5218 81.4098 45.4234 81.238L37.0471 66.7294C36.9787 66.617 36.8691 66.5358 36.7416 66.5032C36.6141 66.4707 36.479 66.4893 36.365 66.5551C36.2511 66.6209 36.1674 66.7287 36.1319 66.8554C36.0965 66.982 36.112 67.1176 36.1752 67.233H36.1778Z" fill="#EF9000"/>
<path d="M44.0165 80.5196L46.6431 81.2251C46.8345 81.2758 47.0139 81.3639 47.1709 81.4844C47.3279 81.6049 47.4594 81.7554 47.5578 81.9272L48.3977 83.3802C48.43 83.439 48.4736 83.4909 48.5262 83.5326C48.5787 83.5743 48.6391 83.6052 48.7037 83.6233C48.7683 83.6414 48.8359 83.6464 48.9025 83.638C48.969 83.6296 49.0333 83.608 49.0914 83.5744C49.1495 83.5409 49.2003 83.496 49.2408 83.4426C49.2814 83.3891 49.3108 83.328 49.3274 83.263C49.344 83.198 49.3475 83.1304 49.3376 83.064C49.3277 82.9976 49.3046 82.9339 49.2697 82.8766L48.4298 81.4235C48.2653 81.1377 48.046 80.8872 47.7844 80.6864C47.5229 80.4856 47.2242 80.3385 46.9056 80.2535L44.279 79.5479C44.1502 79.5131 44.0128 79.5309 43.897 79.5974C43.7813 79.6639 43.6968 79.7737 43.6619 79.9025C43.6271 80.0314 43.6449 80.1687 43.7114 80.2845C43.7779 80.4002 43.8877 80.4847 44.0165 80.5196Z" fill="#EF9000"/>
<path d="M40.0397 63.7382L54.5483 72.1145C55.1242 72.4474 55.8088 72.538 56.4515 72.3663L57.0183 72.2141C57.1471 72.1793 57.2569 72.0948 57.3234 71.979C57.3899 71.8633 57.4077 71.7259 57.3729 71.5971C57.3381 71.4682 57.2535 71.3585 57.1378 71.292C57.022 71.2255 56.8846 71.2077 56.7558 71.2425L56.189 71.3947C56.062 71.4288 55.9309 71.4456 55.7993 71.4445C55.5341 71.4448 55.2735 71.3751 55.0439 71.2425L40.5353 62.8662C40.4196 62.7997 40.2822 62.7817 40.1533 62.8162C40.0244 62.8508 39.9145 62.935 39.8475 63.0504C39.7838 63.1675 39.7682 63.3048 39.8041 63.4333C39.8399 63.5617 39.9245 63.6711 40.0397 63.7382Z" fill="#EF9000"/>
<path d="M53.4729 71.323L56.0995 70.6174C56.2265 70.5832 56.3576 70.5665 56.4892 70.5676C56.7544 70.5673 57.0149 70.637 57.2446 70.7696L58.6976 71.6095C58.813 71.6727 58.9486 71.6882 59.0753 71.6527C59.202 71.6172 59.3097 71.5336 59.3755 71.4197C59.4413 71.3057 59.4599 71.1706 59.4274 71.0431C59.3948 70.9156 59.3136 70.8059 59.2012 70.7375L57.7482 69.8976C57.1723 69.5647 56.4877 69.4741 55.845 69.6458L53.2184 70.3514C53.0895 70.3852 52.9794 70.4689 52.9123 70.584C52.8451 70.699 52.8264 70.836 52.8603 70.9649C52.8941 71.0937 52.9778 71.2038 53.0928 71.271C53.2079 71.3382 53.3449 71.3569 53.4737 71.323H53.4729Z" fill="#EF9000"/>
<path d="M28.5008 67.8537L25.4667 79.1831C25.4161 79.3745 25.328 79.5539 25.2075 79.7109C25.087 79.868 24.9365 79.9995 24.7647 80.0978L24.2539 80.3923C24.1951 80.4246 24.1433 80.4682 24.1015 80.5208C24.0598 80.5733 24.0289 80.6336 24.0108 80.6983C23.9928 80.7629 23.9877 80.8305 23.9961 80.897C24.0045 80.9636 24.0261 81.0278 24.0597 81.0859C24.0933 81.144 24.1381 81.1949 24.1916 81.2354C24.245 81.2759 24.3061 81.3054 24.3711 81.322C24.4361 81.3386 24.5038 81.3421 24.5701 81.3322C24.6365 81.3223 24.7002 81.2992 24.7576 81.2643L25.2683 80.9698C25.5541 80.8053 25.8046 80.586 26.0054 80.3245C26.2062 80.0629 26.3533 79.7642 26.4383 79.4456L29.4725 68.1162C29.5073 67.9873 29.4895 67.8499 29.423 67.7342C29.3565 67.6185 29.2467 67.5339 29.1179 67.4991C28.989 67.4643 28.8516 67.4821 28.7359 67.5486C28.6202 67.6151 28.5356 67.7248 28.5008 67.8537Z" fill="#EF9000"/>
<path d="M26.1328 77.2535L23.7758 78.6149C23.49 78.7793 23.2395 78.9986 23.0387 79.2602C22.8379 79.5218 22.6908 79.8204 22.6057 80.1391L22.1698 81.7629C22.135 81.8917 22.1528 82.0291 22.2192 82.1448C22.2857 82.2606 22.3955 82.3451 22.5243 82.3799C22.6532 82.4147 22.7906 82.397 22.9063 82.3305C23.022 82.264 23.1066 82.1542 23.1414 82.0254L23.5774 80.4015C23.628 80.2102 23.7161 80.0308 23.8366 79.8737C23.9571 79.7167 24.1076 79.5852 24.2794 79.4868L26.6364 78.1255C26.7488 78.0571 26.83 77.9474 26.8626 77.82C26.8952 77.6925 26.8766 77.5573 26.8107 77.4434C26.7449 77.3295 26.6372 77.2458 26.5105 77.2103C26.3838 77.1748 26.2482 77.1903 26.1328 77.2535Z" fill="#EF9000"/>
<path d="M24.1284 65.0287L15.8375 73.3196C15.5546 73.6035 15.1706 73.7635 14.7698 73.7645H14.1817C14.0519 73.7699 13.9292 73.8253 13.8393 73.9191C13.7494 74.0129 13.6992 74.1377 13.6992 74.2676C13.6992 74.3975 13.7494 74.5224 13.8393 74.6162C13.9292 74.71 14.0519 74.7653 14.1817 74.7708H14.7698C15.1004 74.771 15.4277 74.7059 15.7331 74.5794C16.0385 74.4528 16.3159 74.2672 16.5493 74.0332L24.8402 65.7423C24.9346 65.6479 24.9877 65.5199 24.9877 65.3864C24.9877 65.2529 24.9346 65.1249 24.8402 65.0305C24.7458 64.9361 24.6178 64.8831 24.4843 64.8831C24.3508 64.8831 24.2228 64.9361 24.1284 65.0305V65.0287Z" fill="#EF9000"/>
<path d="M17.3769 71.9866H14.6578C14.3272 71.9864 13.9999 72.0514 13.6945 72.178C13.3891 72.3046 13.1117 72.4902 12.8782 72.7242L11.6904 73.912C11.6437 73.9588 11.6066 74.0143 11.5813 74.0753C11.556 74.1364 11.543 74.2018 11.543 74.2679C11.543 74.334 11.556 74.3995 11.5813 74.4606C11.6066 74.5216 11.6437 74.5771 11.6904 74.6238C11.7371 74.6706 11.7926 74.7077 11.8537 74.733C11.9147 74.7583 11.9802 74.7713 12.0463 74.7713C12.1124 74.7713 12.1779 74.7583 12.2389 74.733C12.3 74.7077 12.3555 74.6706 12.4022 74.6238L13.5901 73.436C13.873 73.1521 14.257 72.9921 14.6578 72.9911H17.3769C17.4445 72.994 17.512 72.9831 17.5754 72.9592C17.6387 72.9353 17.6965 72.8988 17.7453 72.852C17.7942 72.8051 17.8331 72.7489 17.8596 72.6866C17.8862 72.6244 17.8999 72.5574 17.8999 72.4897C17.8999 72.422 17.8862 72.3551 17.8596 72.2928C17.8331 72.2306 17.7942 72.1743 17.7453 72.1275C17.6965 72.0807 17.6387 72.0442 17.5754 72.0203C17.512 71.9964 17.4445 71.9855 17.3769 71.9884V71.9866Z" fill="#EF9000"/>
<path d="M26.1321 66.7294L17.7558 81.238C17.6574 81.4098 17.5259 81.5603 17.3689 81.6808C17.2119 81.8013 17.0325 81.8894 16.8411 81.94L16.2743 82.0922C16.2105 82.1094 16.1508 82.1391 16.0984 82.1794C16.0461 82.2197 16.0022 82.27 15.9693 82.3273C15.9363 82.3846 15.915 82.4478 15.9065 82.5133C15.898 82.5789 15.9025 82.6454 15.9198 82.7092C15.937 82.773 15.9666 82.8328 16.007 82.8852C16.0473 82.9375 16.0976 82.9814 16.1549 83.0143C16.2122 83.0473 16.2754 83.0686 16.3409 83.0771C16.4064 83.0855 16.473 83.0811 16.5368 83.0638L17.1036 82.9117C17.4221 82.8265 17.7207 82.6793 17.9823 82.4785C18.2438 82.2777 18.4632 82.0273 18.6278 81.7416L27.0041 67.233C27.0673 67.1176 27.0828 66.982 27.0473 66.8554C27.0118 66.7287 26.9282 66.6209 26.8142 66.5551C26.7003 66.4893 26.5651 66.4707 26.4376 66.5032C26.3102 66.5358 26.2005 66.617 26.1321 66.7294Z" fill="#EF9000"/>
<path d="M18.9 79.5472L16.2734 80.2528C15.9549 80.3379 15.6563 80.4851 15.3948 80.6859C15.1332 80.8867 14.9139 81.1371 14.7493 81.4228L13.9093 82.8758C13.8744 82.9331 13.8514 82.9968 13.8415 83.0632C13.8316 83.1296 13.835 83.1972 13.8516 83.2623C13.8682 83.3273 13.8977 83.3883 13.9382 83.4418C13.9787 83.4953 14.0296 83.5401 14.0877 83.5737C14.1458 83.6072 14.21 83.6288 14.2766 83.6372C14.3432 83.6456 14.4107 83.6406 14.4754 83.6225C14.54 83.6044 14.6003 83.5736 14.6529 83.5318C14.7054 83.4901 14.7491 83.4383 14.7813 83.3794L15.6212 81.9264C15.7196 81.7546 15.8511 81.6041 16.0081 81.4836C16.1651 81.3631 16.3445 81.275 16.5359 81.2244L19.1625 80.5188C19.2265 80.5019 19.2865 80.4724 19.339 80.4322C19.3916 80.392 19.4357 80.3418 19.4688 80.2845C19.5018 80.2272 19.5233 80.1639 19.5318 80.0983C19.5403 80.0327 19.5358 79.966 19.5184 79.9022C19.4826 79.7737 19.3977 79.6644 19.282 79.5979C19.1663 79.5315 19.0291 79.5133 18.9 79.5472Z" fill="#EF9000"/>
<path d="M22.6363 62.8653L8.12764 71.2416C7.89817 71.3746 7.63748 71.4443 7.37223 71.4436C7.24077 71.4429 7.10989 71.4262 6.98251 71.3937L6.41572 71.2416C6.28688 71.2068 6.14948 71.2246 6.03376 71.2911C5.91804 71.3576 5.83347 71.4673 5.79867 71.5962C5.76386 71.725 5.78166 71.8624 5.84816 71.9781C5.91465 72.0938 6.02439 72.1784 6.15324 72.2132L6.72002 72.3654C6.93147 72.423 7.14951 72.4529 7.36867 72.4543C7.80924 72.4551 8.24215 72.3391 8.62325 72.118L23.139 63.7417C23.2514 63.6733 23.3325 63.5637 23.3651 63.4362C23.3977 63.3087 23.3791 63.1735 23.3133 63.0596C23.2475 62.9457 23.1397 62.862 23.013 62.8265C22.8863 62.791 22.7508 62.8066 22.6354 62.8697L22.6363 62.8653Z" fill="#EF9000"/>
<path d="M9.96295 70.3514L7.33635 69.6459C7.1249 69.5882 6.90686 69.5583 6.6877 69.5569C6.24713 69.5561 5.81422 69.6721 5.43313 69.8932L3.98013 70.7332C3.86773 70.8015 3.78655 70.9112 3.75397 71.0387C3.72139 71.1662 3.73999 71.3013 3.80579 71.4153C3.87159 71.5292 3.97938 71.6129 4.10608 71.6483C4.23278 71.6838 4.36833 71.6683 4.48374 71.6051L5.93674 70.7652C6.16621 70.6322 6.4269 70.5625 6.69215 70.5632C6.82361 70.5639 6.95449 70.5806 7.08187 70.613L9.70848 71.3186C9.77227 71.3354 9.83875 71.3394 9.90411 71.3305C9.96947 71.3216 10.0324 71.2999 10.0894 71.2666C10.1464 71.2334 10.1962 71.1892 10.2361 71.1367C10.276 71.0842 10.3052 71.0243 10.322 70.9605C10.3387 70.8967 10.3428 70.8302 10.3339 70.7649C10.3249 70.6995 10.3032 70.6365 10.27 70.5796C10.2367 70.5226 10.1926 70.4727 10.14 70.4328C10.0875 70.3929 10.0276 70.3638 9.96384 70.347L9.96295 70.3514Z" fill="#EF9000"/>
<path d="M99.5156 54.7827C99.5229 54.0826 99.6809 53.3923 99.9788 52.7586C100.277 52.125 100.707 51.5629 101.242 51.1106C102.15 50.3918 103.114 49.7459 104.124 49.1789C104.964 48.6264 105.566 48.0872 105.566 47.3424C105.576 47.1547 105.546 46.967 105.478 46.792C105.409 46.6169 105.304 46.4586 105.169 46.3278C105.034 46.1971 104.873 46.0968 104.695 46.0339C104.518 45.971 104.33 45.9469 104.142 45.9633C102.719 45.9633 102.32 46.991 102.306 48.1966H99.7888C99.7107 47.5968 99.7669 46.9871 99.9536 46.4118C100.14 45.8364 100.452 45.3097 100.868 44.87C101.283 44.4302 101.791 44.0884 102.355 43.8692C102.919 43.65 103.524 43.559 104.127 43.6027C106.314 43.6027 108.26 44.7443 108.26 47.1013C108.26 49.2243 106.74 50.0153 105.123 51.0163C104.395 51.4228 103.724 51.9233 103.127 52.5049H108.37V54.7845H99.5156V54.7827Z" fill="#BB8F10"/>
<path d="M108.968 43.7444H116.998V45.9136C116.014 46.9574 115.216 48.1609 114.637 49.4727C113.881 51.1399 113.486 52.9485 113.48 54.7793H110.581C110.704 52.9304 111.199 51.1255 112.037 49.4727C112.557 48.2519 113.309 47.1442 114.253 46.2117V46.1797H108.965V43.7444H108.968Z" fill="#BB8F10"/>
<path d="M67.5974 64.0176C67.5974 64.5426 68.0049 64.7445 68.4694 64.7445C68.7746 64.7445 69.2355 64.6556 69.2355 64.2552C69.2355 63.8299 68.6473 63.7587 68.0654 63.603C67.4835 63.4473 66.8918 63.2239 66.8918 62.4827C66.9071 62.3067 66.9577 62.1356 67.0406 61.9796C67.1235 61.8236 67.2369 61.6859 67.3742 61.5747C67.5115 61.4635 67.6697 61.3811 67.8396 61.3324C68.0094 61.2837 68.1873 61.2698 68.3626 61.2913C69.1848 61.2913 69.9402 61.6472 69.9402 62.5602H69.1038C69.0753 62.085 68.739 61.9649 68.3279 61.9649C68.0512 61.9649 67.7326 62.0814 67.7326 62.4098C67.7326 62.715 67.9204 62.7497 68.9063 63.005C69.1936 63.0762 70.0763 63.2604 70.0763 64.1502C70.0763 64.8736 69.5095 65.4119 68.4382 65.4119C67.5663 65.4119 66.7477 64.983 66.7619 64.0114H67.5983L67.5974 64.0176Z" fill="#EF9000"/>
<path d="M70.3651 61.387H71.2281V62.8996H72.8199V61.387H73.6848V65.3215H72.8199V63.6239H71.2281V65.3215H70.3633L70.3651 61.387Z" fill="#EF9000"/>
<path d="M75.5278 61.387H76.4176L77.8884 65.3215H76.9879L76.6899 64.446H75.2155L74.9068 65.3215H74.0312L75.5278 61.387ZM75.4389 63.8009H76.4612L75.9647 62.3586H75.954L75.4389 63.8009Z" fill="#EF9000"/>
<path d="M78.2266 61.3874H80.3531C80.5013 61.3775 80.6499 61.3983 80.7897 61.4484C80.9295 61.4985 81.0575 61.5769 81.1656 61.6787C81.2737 61.7804 81.3597 61.9034 81.4182 62.0399C81.4766 62.1765 81.5063 62.3236 81.5054 62.4721C81.5235 62.6819 81.4725 62.8919 81.36 63.0699C81.2475 63.2479 81.0798 63.3842 80.8825 63.4579V63.4686C81.3079 63.5789 81.4289 63.9936 81.4564 64.3904C81.4418 64.7097 81.4986 65.0283 81.6228 65.3229H80.758C80.6777 65.0145 80.6315 64.6982 80.62 64.3797C80.5595 63.9651 80.4003 63.7845 79.9643 63.7845H79.0994V65.3229H78.2346V61.3874H78.2266ZM79.0914 63.167H80.0381C80.4243 63.167 80.6334 63.0006 80.6334 62.6037C80.6334 62.2247 80.4243 62.0574 80.0381 62.0574H79.0914V63.167Z" fill="#EF9000"/>
<path d="M81.9883 61.387H83.2073L84.1291 64.0954H84.1397L85.0117 61.387H86.2307V65.3215H85.4192V62.5321H85.4086L84.444 65.3215H83.7776L82.8131 62.5632H82.8024V65.3215H81.9909V61.387H81.9883Z" fill="#EF9000"/>
<path d="M88.7422 61.387H91.6847V62.1139H89.6071V62.9574H91.5138V63.631H89.6071V64.5955H91.73V65.3224H88.7422V61.387Z" fill="#EF9000"/>
<path d="M92.2031 61.387H93.068V64.5946H94.9854V65.3215H92.2031V61.387Z" fill="#EF9000"/>
<path d="M95.1641 63.4817H96.8226V64.1552H95.1641V63.4817Z" fill="#EF9000"/>
<path d="M98.0857 64.0176C98.0857 64.5426 98.4932 64.7445 98.9577 64.7445C99.2629 64.7445 99.7237 64.6556 99.7237 64.2552C99.7237 63.8299 99.1356 63.7587 98.5537 63.603C97.9718 63.4473 97.3801 63.2239 97.3801 62.4827C97.3954 62.3067 97.446 62.1356 97.5289 61.9796C97.6117 61.8236 97.7252 61.6859 97.8625 61.5747C97.9997 61.4635 98.158 61.3811 98.3278 61.3324C98.4977 61.2837 98.6756 61.2698 98.8509 61.2913C99.673 61.2913 100.428 61.6472 100.428 62.5602H99.5921C99.5636 62.085 99.2273 61.9649 98.8162 61.9649C98.5395 61.9649 98.2209 62.0814 98.2209 62.4098C98.2209 62.715 98.4087 62.7497 99.3945 63.005C99.6819 63.0762 100.565 63.2604 100.565 64.1502C100.565 64.8736 99.9978 65.4119 98.9265 65.4119C98.0545 65.4119 97.2359 64.983 97.2502 64.0114H98.0866L98.0857 64.0176Z" fill="#EF9000"/>
<path d="M100.965 61.387H101.83V62.8996H103.421V61.387H104.286V65.3215H103.421V63.6239H101.83V65.3215H100.965V61.387Z" fill="#EF9000"/>
<path d="M104.828 61.387H107.771V62.1139H105.693V62.9574H107.6V63.631H105.693V64.5955H107.816V65.3224H104.828V61.387Z" fill="#EF9000"/>
<path d="M108.293 61.387H109.158V65.3215H108.293V61.387Z" fill="#EF9000"/>
<path d="M109.695 61.3877H110.56V63.016L112.099 61.385H113.183L111.645 62.9412L113.335 65.3231H112.251L111.066 63.5543L110.57 64.0579V65.3294H109.705V61.3877H109.695Z" fill="#EF9000"/>
<path d="M113.676 61.387H114.541V62.8996H116.132V61.387H116.997V65.3215H116.132V63.6239H114.541V65.3215H113.676V61.387Z" fill="#EF9000"/>
<path d="M95.5234 73.1729C95.5281 72.7752 95.6179 72.383 95.7867 72.0228C95.9555 71.6626 96.1995 71.3428 96.5022 71.0847C97.0186 70.6761 97.5663 70.3087 98.1402 69.9858C98.6189 69.6699 98.9588 69.363 98.9588 68.9403C98.9648 68.8335 98.9476 68.7266 98.9085 68.627C98.8695 68.5274 98.8094 68.4373 98.7324 68.363C98.6554 68.2887 98.5633 68.2319 98.4623 68.1964C98.3614 68.1609 98.2539 68.1476 98.1474 68.1573C97.3395 68.1573 97.1126 68.7419 97.1054 69.4261H95.6729C95.628 69.0851 95.6597 68.7384 95.7658 68.4111C95.8718 68.0839 96.0494 67.7845 96.2858 67.5346C96.5221 67.2847 96.8112 67.0906 97.132 66.9665C97.4528 66.8425 97.7972 66.7915 98.1402 66.8173C99.3806 66.8173 100.49 67.466 100.49 68.806C100.49 70.0116 99.6253 70.4618 98.7106 71.0304C98.297 71.2618 97.9155 71.5466 97.5761 71.8774H100.553V73.1747L95.5234 73.1729Z" fill="#BB8F10"/>
<path d="M101.051 70.0317C101.051 68.359 101.724 66.8206 103.507 66.8206C105.344 66.8206 106.063 68.359 106.063 70.0317C106.063 71.7045 105.343 73.2536 103.507 73.2536C101.724 73.2545 101.051 71.7054 101.051 70.0317ZM104.588 70.0317C104.588 69.2132 104.56 68.0609 103.554 68.0609C102.582 68.0609 102.53 69.2132 102.53 70.0317C102.53 70.8503 102.583 72.0133 103.554 72.0133C104.56 72.0106 104.588 70.8512 104.588 70.0317Z" fill="#BB8F10"/>
<path d="M106.488 73.1729C106.493 72.7752 106.583 72.383 106.752 72.0228C106.92 71.6626 107.164 71.3428 107.467 71.0847C107.983 70.6761 108.531 70.3087 109.105 69.9858C109.584 69.6699 109.924 69.363 109.924 68.9403C109.93 68.8335 109.912 68.7266 109.873 68.627C109.834 68.5274 109.774 68.4373 109.697 68.363C109.62 68.2887 109.528 68.2319 109.427 68.1964C109.326 68.1609 109.219 68.1476 109.112 68.1573C108.304 68.1573 108.077 68.7419 108.07 69.4261H106.638C106.593 69.0851 106.625 68.7384 106.731 68.4111C106.837 68.0839 107.014 67.7845 107.251 67.5346C107.487 67.2847 107.776 67.0906 108.097 66.9665C108.418 66.8425 108.762 66.7915 109.105 66.8173C110.345 66.8173 111.455 67.466 111.455 68.806C111.455 70.0116 110.59 70.4618 109.675 71.0304C109.262 71.2618 108.88 71.5466 108.541 71.8774H111.518V73.1747L106.488 73.1729Z" fill="#BB8F10"/>
<path d="M111.969 73.1729C111.973 72.7752 112.063 72.383 112.232 72.0228C112.401 71.6626 112.645 71.3428 112.948 71.0847C113.464 70.6761 114.012 70.3087 114.586 69.9858C115.064 69.6699 115.404 69.363 115.404 68.9403C115.41 68.8335 115.393 68.7266 115.354 68.627C115.315 68.5274 115.255 68.4373 115.178 68.363C115.101 68.2887 115.009 68.2319 114.908 68.1964C114.807 68.1609 114.699 68.1476 114.593 68.1573C113.785 68.1573 113.558 68.7419 113.551 69.4261H112.118C112.073 69.0851 112.105 68.7384 112.211 68.4111C112.317 68.0839 112.495 67.7845 112.731 67.5346C112.967 67.2847 113.257 67.0906 113.577 66.9665C113.898 66.8425 114.243 66.7915 114.586 66.8173C115.826 66.8173 116.935 67.466 116.935 68.806C116.935 70.0116 116.071 70.4618 115.156 71.0304C114.742 71.2618 114.361 71.5466 114.021 71.8774H117V73.1747L111.969 73.1729Z" fill="#BB8F10"/>
<path d="M66.7591 58.7805H116.999C117.067 58.7833 117.135 58.7724 117.198 58.7484C117.262 58.7244 117.32 58.6878 117.369 58.6408C117.418 58.5938 117.457 58.5374 117.484 58.4749C117.51 58.4124 117.524 58.3452 117.524 58.2773C117.524 58.2094 117.51 58.1422 117.484 58.0797C117.457 58.0172 117.418 57.9608 117.369 57.9138C117.32 57.8668 117.262 57.8302 117.198 57.8062C117.135 57.7822 117.067 57.7713 116.999 57.7741H66.7591C66.6913 57.7713 66.6236 57.7822 66.56 57.8062C66.4965 57.8302 66.4385 57.8668 66.3894 57.9138C66.3404 57.9608 66.3014 58.0172 66.2748 58.0797C66.2481 58.1422 66.2344 58.2094 66.2344 58.2773C66.2344 58.3452 66.2481 58.4124 66.2748 58.4749C66.3014 58.5374 66.3404 58.5938 66.3894 58.6408C66.4385 58.6878 66.4965 58.7244 66.56 58.7484C66.6236 58.7724 66.6913 58.7833 66.7591 58.7805Z" fill="#BB8F10"/>
<path d="M66.7578 66.9446H71.6035V68.2134H68.3425V69.2811H71.3232V70.5072H68.3425V71.6639H71.6871V73.0253H66.7578V66.9446Z" fill="#EF9000"/>
<path d="M77.8165 73.028H76.7915L76.7025 72.3651C76.5022 72.6199 76.2449 72.8241 75.9513 72.9614C75.6577 73.0986 75.3359 73.165 75.012 73.1553C74.1958 73.1191 73.4251 72.7694 72.8604 72.1791C72.2957 71.5887 71.9805 70.8033 71.9805 69.9863C71.9805 69.1694 72.2957 68.3839 72.8604 67.7936C73.4251 67.2033 74.1958 66.8536 75.012 66.8174C75.6656 66.7578 76.3169 66.9532 76.8297 67.3628C77.3425 67.7724 77.677 68.3645 77.7632 69.0152H76.1785C76.1287 68.4937 75.6153 68.1823 74.9764 68.1823C73.9558 68.1823 73.5617 69.0863 73.5617 69.9868C73.5617 70.8872 73.9514 71.7912 74.9764 71.7912C75.7594 71.7912 76.2879 71.4264 76.3733 70.873H75.2674V69.6958H77.8228V73.028H77.8165Z" fill="#EF9000"/>
<path d="M81.3705 70.7629V73.0283H79.7859V70.7629L77.5703 66.9485H79.3677L80.5769 69.4194L81.7861 66.9485H83.5834L81.3705 70.7629Z" fill="#EF9000"/>
<path d="M83.9137 66.9446H86.8019C87.9364 66.9446 88.9996 67.466 88.9996 68.9021C88.9996 70.4085 88.1383 70.9975 86.8019 70.9975H85.4975V73.0253H83.9102V66.9446H83.9137ZM85.4984 69.7732H86.5661C87.059 69.7732 87.4168 69.5676 87.4168 69.0142C87.4257 68.9024 87.4095 68.79 87.3691 68.6853C87.3288 68.5806 87.2654 68.4864 87.1838 68.4095C87.1021 68.3326 87.0042 68.2751 86.8973 68.2411C86.7904 68.2072 86.6772 68.1977 86.5661 68.2134H85.4984V69.7732Z" fill="#EF9000"/>
<path d="M94.5226 68.3098H92.7075V73.0256H91.1237V68.3098H89.3086V66.9485H94.5191V68.3098H94.5226Z" fill="#EF9000"/>
<path d="M74.7875 47.2753C74.6774 46.7059 74.3684 46.1943 73.9157 45.8319C73.463 45.4695 72.8962 45.28 72.3166 45.2973C70.0832 45.2973 69.2433 47.197 69.2433 49.1785C69.2433 51.0639 70.0832 52.9645 72.3166 52.9645C73.8372 52.9645 74.6914 51.919 74.8827 50.4295H77.293C77.2737 51.0609 77.1293 51.6822 76.8683 52.2575C76.6072 52.8327 76.2347 53.3505 75.7722 53.7807C75.3097 54.211 74.7665 54.5453 74.1739 54.7643C73.5814 54.9832 72.9513 55.0825 72.3201 55.0563C68.8215 55.0563 66.7617 52.444 66.7617 49.1838C66.7617 45.8267 68.8215 43.2144 72.3201 43.2144C73.5011 43.1325 74.6681 43.5102 75.5771 44.2687C76.4862 45.0271 77.0668 46.1076 77.1978 47.2842H74.791L74.7875 47.2753Z" fill="#EF9000"/>
<path d="M89.7227 43.4749H94.8237C97.6416 43.4749 98.7334 45.2651 98.7334 47.1016C98.7334 48.9381 97.6416 50.7283 94.8237 50.7283H92.2113V54.7838H89.7262V43.4749H89.7227ZM92.214 48.7957H94.1457C95.3024 48.7957 96.3328 48.5439 96.3328 47.1051C96.3328 45.6664 95.3051 45.4146 94.1457 45.4146H92.214V48.7957Z" fill="#EF9000"/>
<path d="M86.4279 46.0239C86.4279 46.0239 86.4279 46.0239 86.4279 46.0167C86.4279 46.0096 86.4208 46.0096 86.4172 46.0096C86.4137 46.0096 86.3995 46.0096 86.3923 46.0025C86.3852 45.9954 86.3817 45.9776 86.403 45.9776C86.4244 45.9776 86.4244 45.9669 86.4244 45.9669C86.4244 45.9669 86.4066 45.9562 86.3852 45.9598H86.3781L86.371 45.9456C86.371 45.9456 86.3567 45.9456 86.3603 45.9456C86.3781 45.9847 86.3816 45.9847 86.3674 45.9847C86.3532 45.9847 86.3567 45.974 86.3532 45.9705L86.3318 45.9847C86.3318 45.9847 86.3247 45.9918 86.3247 45.9954C86.3241 46.0049 86.3241 46.0144 86.3247 46.0239V46.0559C86.3247 46.0559 86.3318 46.1093 86.3532 46.12C86.3745 46.1306 86.3674 46.0915 86.3674 46.0915C86.3674 46.0666 86.3496 46.0488 86.3461 46.0274C86.3425 46.0061 86.3461 45.9883 86.3603 46.0025C86.3706 46.0114 86.3791 46.0223 86.3852 46.0345C86.3913 46.0467 86.395 46.0601 86.3959 46.0737C86.3959 46.1164 86.4137 46.1342 86.4208 46.1378C86.4279 46.1413 86.4742 46.1377 86.4742 46.1235C86.474 46.1147 86.4716 46.1061 86.4671 46.0986L86.4279 46.0239Z" fill="#EF9000"/>
<path d="M86.1019 46.4813C86.1075 46.4761 86.1124 46.4701 86.1162 46.4635C86.2159 46.4635 86.2265 46.4635 86.2052 46.4208C86.2052 46.4208 86.0948 46.2793 86.0672 46.3923C85.9996 46.2722 85.989 46.2616 85.9783 46.2544C85.9641 46.2473 85.9356 46.2366 85.932 46.2331C85.9299 46.2314 85.9281 46.2292 85.9269 46.2268C85.9256 46.2243 85.925 46.2216 85.9249 46.2189C85.9249 46.2082 85.9249 46.201 85.9035 46.1797C85.8822 46.1583 85.8466 46.137 85.8217 46.1121C85.8455 46.106 85.8707 46.1086 85.8929 46.1192C85.8976 46.1202 85.9024 46.1202 85.9071 46.1192C85.9071 46.1192 85.9071 46.1085 85.8964 46.0978C85.8786 46.0729 85.8751 46.0587 85.8893 46.0551C85.8993 46.0532 85.909 46.0496 85.9178 46.0445C85.9178 46.0445 85.9249 46.0338 85.9285 46.0302C85.9747 46.0445 86.0246 46.0409 86.0699 46.0516L86.0842 46.0373C86.0842 46.0373 85.9534 45.8674 85.8466 45.8745C85.8466 45.8745 85.8288 45.8674 85.8288 45.8745C85.8288 45.8816 85.6624 45.8816 85.666 45.9777C85.6462 45.9831 85.6253 45.9831 85.6055 45.9777C85.6339 46.2331 85.6339 46.2331 85.9213 46.5116C85.9139 46.5187 85.9055 46.5247 85.8964 46.5294C85.8964 46.6112 85.8964 46.6112 85.8715 46.6459C85.8918 46.7006 85.9261 46.7489 85.9709 46.7862C86.0157 46.8235 86.0695 46.8485 86.1269 46.8586H86.134C86.1767 46.8479 86.2159 46.8337 86.2577 46.8266L86.1687 46.5427C86.1091 46.5267 86.1091 46.5267 86.1019 46.4813Z" fill="#EF9000"/>
<path d="M83.4175 43.2229C82.2502 43.2229 81.1091 43.569 80.1386 44.2175C79.168 44.866 78.4116 45.7878 77.9649 46.8662C77.5182 47.9446 77.4013 49.1313 77.629 50.2761C77.8568 51.421 78.4189 52.4726 79.2442 53.298C80.0696 54.1234 81.1212 54.6855 82.2661 54.9132C83.4109 55.1409 84.5976 55.024 85.676 54.5774C86.7544 54.1307 87.6762 53.3742 88.3247 52.4036C88.9732 51.4331 89.3193 50.292 89.3193 49.1247C89.3191 47.5596 88.6972 46.0585 87.5905 44.9518C86.4837 43.845 84.9827 43.2231 83.4175 43.2229ZM84.6685 43.9427C84.68 43.9427 84.6913 43.9464 84.7005 43.9534C84.7148 43.9605 84.7183 43.9605 84.7219 43.9605C84.7271 43.9634 84.7319 43.967 84.7361 43.9712V43.989C84.7361 43.989 84.7361 43.989 84.7361 43.9961L84.7183 44.0032H84.7112C84.7041 44.0032 84.7005 43.9961 84.6934 43.9961C84.6863 43.9961 84.6934 43.9961 84.6934 44.0032C84.6792 43.9936 84.668 43.9799 84.6614 43.9641C84.6551 43.9498 84.6623 43.9427 84.6694 43.9427H84.6685ZM83.6195 43.8893C83.6195 43.8893 83.6195 43.8965 83.6123 43.9C83.6052 43.9036 83.6016 43.9 83.6016 43.9C83.5988 43.8968 83.5964 43.8932 83.5945 43.8893C83.6016 43.8893 83.6052 43.8893 83.6123 43.8893C83.6195 43.8893 83.6195 43.8893 83.6195 43.8893ZM83.5554 43.8751H83.5696H83.5767C83.5767 43.8751 83.591 43.8822 83.591 43.8858L83.5767 43.8929C83.572 43.8925 83.5673 43.8925 83.5625 43.8929C83.5625 43.8929 83.5518 43.8822 83.5518 43.8787L83.5554 43.8751ZM83.4949 43.9107C83.4963 43.9106 83.4978 43.9107 83.4991 43.9112C83.5005 43.9117 83.5017 43.9125 83.5027 43.9135C83.5038 43.9145 83.5045 43.9158 83.505 43.9171C83.5055 43.9185 83.5057 43.9199 83.5055 43.9214C83.5055 43.9214 83.5055 43.9214 83.5055 43.9285C83.5055 43.9356 83.4984 43.9285 83.4949 43.9285C83.4913 43.9285 83.4887 43.908 83.4958 43.908L83.4949 43.9107ZM83.47 43.9107C83.47 43.9107 83.4771 43.9107 83.4771 43.9178H83.4682C83.4659 43.9186 83.4634 43.9186 83.4611 43.9178C83.4572 43.9133 83.4537 43.9085 83.4504 43.9036C83.4504 43.9036 83.4682 43.9142 83.4682 43.9142L83.47 43.9107ZM83.3392 43.9783C83.3392 43.9783 83.3392 43.9783 83.3463 43.9783H83.357C83.357 43.9783 83.357 43.9783 83.3641 43.9783C83.3671 43.9794 83.3697 43.9813 83.3716 43.9838C83.3735 43.9863 83.3746 43.9894 83.3748 43.9925C83.3751 43.9954 83.3747 43.9982 83.3734 44.0008C83.3721 44.0033 83.3701 44.0054 83.3676 44.0068C83.3676 44.0068 83.3605 44.0068 83.357 44.0068C83.3534 44.0068 83.3498 44.0068 83.3463 44.0139C83.3427 44.021 83.3285 44.0139 83.3285 44.0139V43.997C83.3285 43.997 83.3401 43.9854 83.3401 43.9819L83.3392 43.9783ZM83.268 43.9925C83.2726 43.9909 83.2776 43.9909 83.2822 43.9925C83.2863 43.9881 83.2911 43.9845 83.2965 43.9819C83.2965 43.9819 83.2965 43.9961 83.2858 43.9997H83.2609C83.2631 43.9979 83.266 43.9969 83.2689 43.997L83.268 43.9925ZM83.2502 44.0317V44.0246C83.2431 44.0246 83.236 44.0317 83.2289 44.0317C83.2217 44.0317 83.2289 44.0317 83.2289 44.0246C83.2289 44.0246 83.2395 44.0246 83.2466 44.0175C83.2538 44.0103 83.2537 44.0068 83.2573 44.0032C83.2586 44.0113 83.2623 44.0188 83.268 44.0246C83.268 44.0246 83.268 44.0246 83.268 44.0175C83.268 43.9997 83.2822 44.0068 83.2822 44.0068C83.2822 44.0068 83.2894 44.0175 83.2822 44.0246C83.2822 44.0246 83.2965 44.0246 83.3 44.0139C83.3036 44.0032 83.3142 44.0139 83.3142 44.0246C83.3142 44.0353 83.3142 44.0317 83.3142 44.0317C83.3126 44.0324 83.3108 44.0328 83.3089 44.0328C83.3071 44.0328 83.3053 44.0324 83.3036 44.0317C83.3036 44.0317 83.3036 44.0317 83.2965 44.0388H83.2902C83.2902 44.0388 83.2902 44.0459 83.2831 44.0459C83.276 44.0459 83.276 44.0388 83.2689 44.0388C83.2618 44.0388 83.2582 44.0495 83.2475 44.0531H83.2226C83.2155 44.0531 83.2084 44.053 83.2155 44.0459C83.2203 44.0414 83.2267 44.0389 83.2333 44.0388C83.2617 44.0317 83.2618 44.021 83.2582 44.021C83.26 44.022 83.2613 44.0236 83.2619 44.0255C83.2625 44.0274 83.2623 44.0295 83.2613 44.0313C83.2604 44.033 83.2588 44.0343 83.2568 44.0349C83.2549 44.0355 83.2529 44.0353 83.2511 44.0344L83.2502 44.0317ZM82.7074 44.5531C82.7074 44.5531 82.7146 44.546 82.7217 44.546C82.7217 44.546 82.7146 44.5567 82.7074 44.5602V44.5531ZM82.6362 44.6563C82.6362 44.6563 82.6362 44.6563 82.6362 44.6634C82.6371 44.6657 82.6371 44.6683 82.6362 44.6706C82.6362 44.6706 82.6291 44.6777 82.6256 44.6777C82.622 44.6777 82.6309 44.6581 82.638 44.6581L82.6362 44.6563ZM82.6469 44.7595C82.6469 44.7595 82.6469 44.7595 82.6469 44.7667C82.6469 44.7738 82.6469 44.7845 82.6362 44.788C82.6351 44.7855 82.6346 44.7827 82.6346 44.7799C82.6346 44.7771 82.6353 44.7744 82.6364 44.7718C82.6376 44.7693 82.6393 44.7671 82.6414 44.7652C82.6436 44.7634 82.646 44.7621 82.6487 44.7613L82.6469 44.7595ZM82.2572 44.7311C82.2572 44.7311 82.2572 44.7239 82.2572 44.7204C82.2572 44.7168 82.2679 44.7061 82.2714 44.7061C82.275 44.7061 82.2857 44.7133 82.2714 44.7382C82.2659 44.7528 82.2574 44.7661 82.2465 44.7773C82.2479 44.7715 82.2479 44.7654 82.2465 44.7595C82.2465 44.7595 82.2465 44.7595 82.2394 44.7524C82.2323 44.7453 82.2323 44.7524 82.2394 44.7453C82.2465 44.7382 82.259 44.74 82.259 44.7328L82.2572 44.7311ZM82.1193 44.8441C82.1195 44.8422 82.1203 44.8405 82.1216 44.8392C82.1229 44.8379 82.1246 44.8371 82.1264 44.8369C82.1264 44.8369 82.1264 44.8369 82.1335 44.8441C82.1406 44.8512 82.1406 44.8441 82.1442 44.8512H82.1264C82.1241 44.8505 82.1216 44.8505 82.1193 44.8512C82.1122 44.8583 82.1086 44.8619 82.1086 44.8512C82.1086 44.8405 82.1095 44.8681 82.1202 44.8467L82.1193 44.8441ZM82.0063 44.5673C82.0134 44.5673 82.0134 44.5673 82.0134 44.5745C82.0134 44.5745 82.0134 44.5745 82.0205 44.5745C82.0215 44.575 82.0222 44.5758 82.0227 44.5767C82.0233 44.5777 82.0236 44.5787 82.0236 44.5798C82.0236 44.5809 82.0233 44.5819 82.0227 44.5829C82.0222 44.5838 82.0215 44.5846 82.0205 44.5851C82.0205 44.5851 82.0205 44.5851 82.0134 44.5851C82.0063 44.5851 82.0134 44.5923 82.0134 44.5923C82.0124 44.5931 82.0112 44.5936 82.0098 44.5936C82.0085 44.5936 82.0073 44.5931 82.0063 44.5923V44.5851C82.0063 44.5851 82.0063 44.5851 81.9992 44.578C81.9921 44.5709 82.0001 44.57 82.0072 44.57L82.0063 44.5673ZM82.0205 44.6029C82.0211 44.6065 82.0211 44.6101 82.0205 44.6136C82.0182 44.6144 82.0157 44.6144 82.0134 44.6136C82.0134 44.6065 82.0134 44.6065 82.0205 44.6065C82.0277 44.6065 82.0214 44.602 82.0214 44.6056L82.0205 44.6029ZM81.9992 44.6172C81.9992 44.6172 81.9992 44.6385 81.9992 44.6421C81.9992 44.6421 81.9965 44.6198 82.0001 44.6198L81.9992 44.6172ZM81.9992 44.901C82.0063 44.8939 82.0134 44.8903 82.1024 44.8832C82.1024 44.8939 82.1024 44.8939 82.0312 44.9508C82.0099 44.9651 82.0098 44.9651 82.0063 44.9722C82.0027 44.9793 82.0134 44.9722 82.0312 44.9722C82.0739 44.9579 82.1513 44.9508 82.1585 44.9722C82.1382 45.0055 82.113 45.0355 82.0837 45.0612C82.0837 45.0612 82.073 45.0683 82.073 45.0718C82.073 45.079 82.073 45.0861 82.073 45.0896C82.073 45.0932 82.0481 45.0896 82.0445 45.1074C82.0659 45.1252 82.0979 45.1217 82.1157 45.143C82.1335 45.1644 82.1264 45.1928 82.1371 45.2142C82.1478 45.2356 82.1656 45.2427 82.1727 45.2605C82.1789 45.2717 82.1837 45.2836 82.1869 45.2961C82.194 45.3067 82.1798 45.321 82.1869 45.3317C82.194 45.3423 82.2047 45.3459 82.2083 45.3566C82.2083 45.3708 82.2083 45.3708 82.1762 45.3957C82.1799 45.3982 82.1843 45.3995 82.1887 45.3995C82.1931 45.3995 82.1975 45.3982 82.2012 45.3957C82.2012 45.3957 82.3044 45.353 82.2901 45.4278C82.2794 45.4776 82.2154 45.474 82.2012 45.5167C82.2154 45.531 82.2332 45.5167 82.2474 45.5274C82.2474 45.5452 82.2118 45.563 82.194 45.5666C82.1264 45.5844 82.0526 45.5808 81.9849 45.5986C81.9173 45.5879 81.9173 45.5879 81.9102 45.5986C81.8924 45.6235 81.8924 45.6235 81.839 45.6271C81.8105 45.6271 81.7927 45.6698 81.7571 45.6484C81.7571 45.6484 81.8604 45.5345 81.9129 45.5381C81.9264 45.5394 81.94 45.5368 81.952 45.5304C81.9641 45.5241 81.9739 45.5144 81.9805 45.5025C81.9627 45.5025 81.952 45.5132 81.9342 45.5132L81.8844 45.4989L81.8773 45.4847C81.8559 45.4847 81.8346 45.506 81.8168 45.4847C81.8168 45.4776 81.8168 45.4776 81.8381 45.474C81.952 45.4384 81.92 45.385 81.9022 45.3922H81.8844C81.9005 45.3697 81.9248 45.3544 81.952 45.3495C81.9647 45.3512 81.9777 45.3502 81.9899 45.3466C82.0022 45.3429 82.0136 45.3366 82.0232 45.3281C82.0339 45.3174 82.0232 45.3067 82.0232 45.2961C82.0232 45.2854 82.0303 45.2783 82.0339 45.2676C81.9769 45.2783 81.9983 45.2249 81.9983 45.2249C81.9983 45.2249 82.0196 45.2106 82.0303 45.2035L81.9271 45.2178C81.92 45.2178 81.92 45.2284 81.9129 45.2284C81.9094 45.2227 81.9081 45.2158 81.9095 45.2092C81.9108 45.2026 81.9145 45.1968 81.92 45.1928C81.9698 45.1395 81.9556 45.1039 81.9556 45.1039C81.9556 45.1039 81.9449 45.1039 81.9235 45.1501C81.9235 45.1395 81.9236 45.1395 81.9164 45.1395C81.9093 45.1395 81.9057 45.1573 81.8915 45.1644C81.8915 45.1395 81.9164 45.1217 81.9164 45.0967C81.8951 45.1074 81.8808 45.1537 81.8595 45.1288C81.8666 45.1039 81.9022 45.1039 81.9093 45.079C81.8986 45.079 81.888 45.0861 81.8773 45.079C81.8773 45.0718 81.8773 45.0718 81.9378 45.0149C81.9591 44.9935 81.9485 44.958 81.9663 44.933L81.9992 44.901ZM81.5027 45.5283C81.5027 45.5212 81.5134 45.5176 81.5205 45.5105C81.4991 45.5105 81.4991 45.5105 81.4956 45.5105C81.492 45.5105 81.5134 45.4998 81.5134 45.4891C81.4991 45.4785 81.4991 45.4785 81.5027 45.4749C81.5098 45.4749 81.5205 45.4749 81.5276 45.4678C81.5347 45.4607 81.5418 45.4535 81.549 45.45C81.5548 45.4486 81.5609 45.4486 81.5667 45.45C81.5765 45.449 81.5861 45.4466 81.5952 45.4429C81.581 45.4358 81.5668 45.4571 81.5525 45.4429C81.5634 45.4256 81.578 45.411 81.5952 45.4002C81.5993 45.3987 81.603 45.3962 81.6059 45.393C81.5952 45.393 81.581 45.3931 81.5703 45.3859L81.549 45.3681C81.549 45.361 81.5561 45.3575 81.5632 45.3539C81.5845 45.3432 81.5881 45.3397 81.5881 45.3361C81.5774 45.3361 81.5632 45.3361 81.5596 45.3254C81.5774 45.3183 81.5774 45.3183 81.5774 45.3148C81.5774 45.3112 81.5881 45.3005 81.5952 45.297C81.6024 45.2934 81.6059 45.297 81.6201 45.297C81.6318 45.3003 81.6441 45.3003 81.6557 45.297C81.6717 45.2903 81.6862 45.2806 81.6984 45.2685C81.6984 45.2542 81.6735 45.2685 81.67 45.2542C81.6876 45.2357 81.708 45.2201 81.7305 45.208C81.7376 45.208 81.7447 45.208 81.7518 45.208H81.7767C81.7838 45.208 81.7874 45.2187 81.7981 45.2187C81.8088 45.2187 81.8159 45.208 81.8266 45.2115C81.8372 45.2151 81.8266 45.2115 81.8408 45.2222C81.845 45.2264 81.8486 45.2312 81.8515 45.2365C81.8515 45.2436 81.8515 45.2507 81.8515 45.2578C81.8515 45.2649 81.8622 45.2685 81.8622 45.2792V45.2863C81.8532 45.3033 81.8378 45.3161 81.8194 45.3219C81.8151 45.3227 81.811 45.3244 81.8073 45.3268C81.8037 45.3293 81.8005 45.3324 81.7981 45.3361C81.7981 45.3361 81.7981 45.3468 81.7981 45.3503C81.8032 45.373 81.8007 45.3968 81.791 45.418L81.7554 45.482C81.7554 45.482 81.7554 45.4891 81.7483 45.4891C81.7305 45.4891 81.7127 45.4891 81.6949 45.4891C81.6771 45.4891 81.6628 45.5105 81.6415 45.5141C81.6344 45.5141 81.6201 45.5069 81.6166 45.5141C81.613 45.5212 81.6166 45.5283 81.5988 45.5319C81.5988 45.5319 81.5418 45.5532 81.5311 45.5461C81.5205 45.539 81.5311 45.539 81.5311 45.5354C81.5311 45.5319 81.5178 45.531 81.5107 45.531L81.5027 45.5283ZM81.8853 45.2943C81.8853 45.2943 81.8853 45.2943 81.8924 45.2872L81.9138 45.2765C81.928 45.2658 81.928 45.2658 81.9316 45.2658C81.9351 45.2658 81.9316 45.2658 81.9316 45.2765C81.9316 45.2872 81.9209 45.2943 81.9173 45.2943L81.8995 45.3014C81.8961 45.3004 81.8928 45.2989 81.8897 45.297L81.8853 45.2943ZM81.8711 44.9962C81.8702 44.9939 81.8702 44.9914 81.8711 44.9891C81.8711 44.9891 81.8817 44.9891 81.8888 44.982C81.8888 44.982 81.8888 44.982 81.8888 44.9749C81.8888 44.9749 81.8888 44.9749 81.896 44.9891C81.9031 45.0033 81.896 45.0033 81.896 45.0069H81.9031V45.014V45.0211H81.896C81.896 45.0211 81.896 45.014 81.8888 45.014H81.8746C81.8746 45.014 81.8746 45.0033 81.8746 44.9998C81.8746 44.9962 81.8746 44.9998 81.8675 44.9998C81.8604 44.9998 81.8755 45.0024 81.8755 44.9989L81.8711 44.9962ZM81.8711 44.9321C81.8782 44.9321 81.8853 44.9321 81.8888 44.9215L81.8995 44.9108C81.9209 44.9001 81.9209 44.9001 81.9244 44.9001C81.928 44.9001 81.9244 44.9144 81.9244 44.9144C81.9244 44.9144 81.9244 44.9215 81.9173 44.9215C81.9102 44.9215 81.9102 44.9215 81.9066 44.9286C81.9031 44.9357 81.9066 44.9357 81.8995 44.9393C81.8924 44.9428 81.8995 44.9393 81.8924 44.9393H81.8853C81.8853 44.9393 81.8782 44.9393 81.8782 44.9464C81.8759 44.9471 81.8734 44.9471 81.8711 44.9464C81.8696 44.9477 81.8677 44.9484 81.8657 44.9484C81.8637 44.9484 81.8618 44.9477 81.8604 44.9464C81.8604 44.9464 81.8666 44.9419 81.8755 44.9348L81.8711 44.9321ZM81.8568 44.9784C81.8568 44.9855 81.8248 44.9891 81.8248 44.9784C81.8248 44.9677 81.839 44.9677 81.8497 44.9677C81.8604 44.9677 81.8666 44.9757 81.8613 44.9811L81.8568 44.9784ZM81.371 44.4187C81.3924 44.4116 81.3959 44.4081 81.4244 44.3796C81.4244 44.3796 81.4102 44.3796 81.4066 44.3796C81.403 44.3796 81.4137 44.3654 81.4137 44.3582C81.3924 44.3511 81.3746 44.3582 81.3532 44.3582C81.3639 44.3369 81.4351 44.3333 81.4351 44.3333C81.4417 44.334 81.4484 44.333 81.4546 44.3305C81.4608 44.328 81.4663 44.3241 81.4707 44.3191C81.46 44.3191 81.4493 44.3298 81.4422 44.3191C81.4493 44.3049 81.4706 44.3084 81.4813 44.2942C81.4529 44.2835 81.4528 44.2835 81.4386 44.2942C81.4191 44.3012 81.3977 44.3012 81.3781 44.2942C81.3888 44.2835 81.3959 44.2835 81.403 44.2871C81.4102 44.2906 81.4101 44.2871 81.4173 44.2693C81.4173 44.2693 81.4173 44.2799 81.4279 44.2799C81.4386 44.2799 81.4422 44.2799 81.4422 44.2693C81.4422 44.2586 81.4351 44.2693 81.4351 44.2622C81.4413 44.252 81.4498 44.2434 81.46 44.2372C81.4707 44.2372 81.4706 44.2479 81.4778 44.2479V44.255C81.4849 44.2621 81.4956 44.2444 81.492 44.2408C81.4884 44.2372 81.492 44.2337 81.492 44.2301C81.492 44.2266 81.5027 44.2301 81.5062 44.223C81.5098 44.2159 81.5062 44.223 81.492 44.223C81.5062 44.2088 81.5347 44.2372 81.5347 44.2515C81.5347 44.2657 81.5169 44.2728 81.5062 44.2835C81.5134 44.2977 81.4991 44.3049 81.4991 44.3155C81.4991 44.3262 81.4991 44.3155 81.5347 44.2871C81.5347 44.2871 81.5418 44.2977 81.5703 44.2586C81.5774 44.2479 81.581 44.2444 81.5845 44.2444C81.5881 44.2444 81.5845 44.2621 81.5845 44.2728C81.5902 44.2691 81.5951 44.2643 81.5988 44.2586C81.6059 44.2515 81.6059 44.2515 81.6415 44.2337C81.6415 44.2444 81.6415 44.2586 81.6415 44.2693C81.6415 44.2799 81.6557 44.2479 81.6593 44.2444C81.6628 44.2408 81.6593 44.2372 81.67 44.2337C81.6806 44.2301 81.6806 44.2515 81.6877 44.2479C81.7091 44.2337 81.7091 44.2337 81.7127 44.2337V44.2408C81.7376 44.2408 81.7411 44.2123 81.7625 44.2088C81.7696 44.2088 81.7696 44.2088 81.7803 44.2301C81.7981 44.2301 81.8088 44.2123 81.8266 44.2123C81.8194 44.2301 81.8017 44.2301 81.791 44.2444C81.791 44.2444 81.7981 44.2444 81.8017 44.2444C81.8052 44.2444 81.7874 44.255 81.791 44.2657C81.7945 44.2764 81.7981 44.2657 81.7981 44.2657V44.2728C81.7981 44.2728 81.8052 44.2728 81.8088 44.2728C81.8123 44.2728 81.8088 44.2728 81.8088 44.2835L81.7981 44.3227C81.7879 44.3332 81.7759 44.3416 81.7625 44.3476C81.7447 44.3476 81.7447 44.3476 81.7412 44.3547C81.7376 44.3618 81.734 44.3689 81.7269 44.376C81.7154 44.3827 81.7035 44.3886 81.6913 44.3938C81.6807 44.3832 81.6806 44.3832 81.6771 44.3832C81.6557 44.3903 81.6415 44.4081 81.6201 44.4152C81.6167 44.418 81.6126 44.42 81.6084 44.4212C81.6041 44.4225 81.5996 44.4228 81.5952 44.4223C81.5881 44.4223 81.5881 44.4223 81.5454 44.4365C81.5312 44.4437 81.5169 44.4508 81.4991 44.4579C81.4851 44.4612 81.4708 44.4635 81.4564 44.465C81.4564 44.465 81.4102 44.4543 81.403 44.4437C81.4014 44.44 81.3989 44.4369 81.3958 44.4344C81.3927 44.4319 81.3891 44.4302 81.3852 44.4294H81.3639C81.3473 44.4312 81.3306 44.4312 81.3141 44.4294C81.3479 44.4419 81.3479 44.4321 81.3763 44.4214L81.371 44.4187ZM80.8318 47.6219C80.8318 47.6219 80.8318 47.6219 80.8318 47.629C80.8318 47.6362 80.8104 47.6611 80.8033 47.654C80.7962 47.6468 80.8265 47.6219 80.8371 47.6219H80.8318ZM80.7642 47.7109C80.7642 47.7038 80.7749 47.6967 80.7784 47.6895C80.782 47.6824 80.7855 47.6789 80.7891 47.6718C80.7891 47.6718 80.7962 47.6824 80.7891 47.6895C80.7891 47.7109 80.7571 47.7216 80.7535 47.718C80.7499 47.7145 80.7695 47.7145 80.7695 47.7145L80.7642 47.7109ZM80.6538 47.7216C80.6538 47.7216 80.6538 47.7216 80.661 47.7216H80.6681C80.6691 47.7238 80.6696 47.7262 80.6696 47.7287C80.6696 47.7312 80.6691 47.7336 80.6681 47.7358C80.6681 47.7536 80.6467 47.7643 80.6396 47.7572C80.6325 47.75 80.6494 47.7251 80.6601 47.7251L80.6538 47.7216ZM80.5791 47.7002C80.5891 47.6911 80.6014 47.6849 80.6147 47.6824C80.6108 47.6869 80.6073 47.6917 80.604 47.6967V47.7073C80.6047 47.7097 80.6047 47.7121 80.604 47.7145C80.6023 47.7166 80.6001 47.7184 80.5977 47.7196C80.5952 47.7208 80.5925 47.7215 80.5898 47.7216C80.5756 47.7216 80.5755 47.7109 80.5755 47.7109C80.5755 47.7109 80.5747 47.7145 80.5853 47.7038L80.5791 47.7002ZM79.062 45.9385C79.0763 45.9171 79.0941 45.8958 79.1119 45.8709C79.1225 45.8566 79.1297 45.8459 79.1404 45.8424C79.1404 45.8709 79.1012 45.878 79.1012 45.9064C79.1083 45.9064 79.1119 45.8993 79.1154 45.8958C79.119 45.8922 79.1154 45.8958 79.1154 45.91C79.0974 45.9387 79.0745 45.964 79.0478 45.9847C79.0549 45.9705 79.0656 45.9598 79.0656 45.9456L79.062 45.9385ZM79.4731 52.2558C79.4411 52.2736 79.4019 52.2559 79.3735 52.2772C79.3392 52.3146 79.3169 52.3614 79.3094 52.4116C79.3023 52.4649 79.3023 52.465 79.4055 52.6669L79.434 52.7701C78.6421 51.9094 78.1518 50.8145 78.037 49.6506C78.0441 49.672 78.0548 49.6933 78.0655 49.7253H78.0762C78.0975 49.7538 78.1046 49.793 78.1367 49.8143C78.1687 49.8357 78.2257 49.8143 78.2675 49.8464C78.3093 49.8784 78.3316 49.9424 78.3814 49.9771C78.3831 49.9764 78.3849 49.976 78.3867 49.976C78.3885 49.976 78.3904 49.9764 78.3921 49.9771C78.4276 50.0448 78.5024 50.2112 78.481 50.2823C78.4454 50.3891 78.4347 50.4167 78.4739 50.4523C78.481 50.4238 78.449 50.3918 78.4739 50.3633C78.4881 50.4131 78.4917 50.4665 78.5024 50.5155C78.5202 50.4763 78.4881 50.4478 78.4846 50.4123C78.4775 50.3446 78.5593 50.366 78.5735 50.3731C78.5878 50.3802 78.6376 50.4825 78.5309 50.5146C78.5309 50.5146 78.5309 50.5217 78.5309 50.5253C78.5427 50.5267 78.5546 50.5267 78.5664 50.5253C78.5664 50.5253 78.5736 50.5252 78.5771 50.5324C78.5771 50.5573 78.5771 50.5573 78.5878 50.5644C78.627 50.3864 78.627 50.3864 78.772 50.5003C78.772 50.5003 78.7791 50.5003 78.7827 50.4932C78.8218 50.5146 78.8182 50.5644 78.8538 50.5822C78.8609 50.5822 78.8681 50.5715 78.8752 50.568C79.0985 50.6285 79.0985 50.6285 79.1234 50.6463C79.1697 50.6783 79.2017 50.7246 79.2436 50.7593C79.2854 50.794 79.3397 50.7842 79.3744 50.8198C79.4057 50.8696 79.4308 50.9231 79.4491 50.979C79.4686 51.07 79.4625 51.1646 79.4313 51.2522C79.392 51.3258 79.3714 51.408 79.3714 51.4915C79.3714 51.575 79.392 51.6572 79.4313 51.7309C79.4728 51.9023 79.489 52.0789 79.4793 52.255L79.4731 52.2558ZM79.9839 46.7686H79.9589C79.9589 46.7686 79.9696 46.7544 79.9803 46.7544C79.991 46.7544 79.9981 46.7651 79.9945 46.7686C79.991 46.7722 79.9936 46.7677 79.9901 46.7677L79.9839 46.7686ZM80.0016 46.7508C79.9945 46.7508 79.9839 46.7366 79.9839 46.7366C79.9839 46.7366 79.991 46.7295 79.9981 46.7295C80.0052 46.7295 80.0123 46.7366 80.0088 46.7437C80.0052 46.7508 80.015 46.7499 80.0079 46.7499L80.0016 46.7508ZM80.0444 46.7402C80.0435 46.7383 80.0431 46.7363 80.0432 46.7342C80.0433 46.7322 80.0439 46.7302 80.0449 46.7284C80.046 46.7266 80.0474 46.7252 80.0492 46.7241C80.051 46.7231 80.053 46.7225 80.055 46.7224C80.0621 46.7224 80.0693 46.7295 80.0657 46.7366C80.0621 46.7437 80.0541 46.7553 80.0506 46.7393L80.0444 46.7402ZM80.1404 46.8291C80.1364 46.8289 80.1323 46.8278 80.1287 46.826C80.125 46.8242 80.1217 46.8216 80.1191 46.8185C80.1191 46.8078 80.1404 46.8078 80.1653 46.8078C80.1725 46.8078 80.176 46.8078 80.1725 46.8078C80.1654 46.8176 80.1563 46.8258 80.1458 46.8318L80.1404 46.8291ZM80.3184 44.7168L80.2579 44.7595C80.3077 44.7239 80.3469 44.6848 80.3994 44.6528L80.3184 44.7168ZM86.0574 51.601C86.0503 51.6259 86.0432 51.6295 86.0396 51.6295C86.0354 51.6252 86.0319 51.6204 86.029 51.6152H86.0218C85.9996 51.6671 85.9806 51.7203 85.9649 51.7745C85.9471 51.8421 85.6704 52.3626 85.6668 52.3662C85.6243 52.3926 85.5777 52.4118 85.5289 52.4231C85.5095 52.4185 85.4917 52.4088 85.4774 52.3951C85.463 52.3813 85.4525 52.364 85.447 52.3448V52.1856C85.447 52.1713 85.4577 52.1429 85.4577 52.1393C85.4577 52.1357 85.5147 52.0503 85.5778 51.9694C85.5885 51.9551 85.5885 51.9516 85.5778 51.9195C85.5665 51.8718 85.5665 51.8222 85.5778 51.7745C85.6312 51.6642 85.6312 51.6615 85.681 51.6677H85.6882C85.706 51.6677 85.7166 51.6464 85.7344 51.6428C85.7522 51.6392 85.7629 51.6677 85.7807 51.6535C85.7878 51.5787 85.8198 51.6037 85.827 51.6143C85.8412 51.593 85.8377 51.5681 85.8555 51.5503C85.8626 51.5645 85.8661 51.5716 85.891 51.5609C85.891 51.5467 85.8732 51.5289 85.891 51.5147C85.8984 51.5105 85.9044 51.5042 85.9082 51.4966C85.912 51.489 85.9135 51.4804 85.9124 51.472C85.9108 51.4674 85.9108 51.4623 85.9124 51.4577C85.9124 51.4577 85.9124 51.4577 85.9373 51.4648C85.9603 51.442 85.9774 51.4139 85.9871 51.383C85.9871 51.3616 85.9871 51.3474 86.0227 51.3403C86.0583 51.351 86.0761 51.5351 86.0619 51.6028L86.0574 51.601ZM88.2196 49.6835C88.184 49.7013 88.1804 49.5056 88.1875 49.4922C88.1947 49.4789 88.1947 49.4816 88.1982 49.4744C88.1982 49.4495 88.1982 49.421 88.2053 49.3961C88.2094 49.3847 88.2118 49.3727 88.2124 49.3605C88.2124 49.3534 88.2124 49.3463 88.2124 49.3392C88.2124 49.3321 88.2124 49.3321 88.2231 49.3321C88.2695 49.4002 88.2955 49.4801 88.2979 49.5625C88.2916 49.6533 88.2525 49.6711 88.224 49.6853L88.2196 49.6835ZM88.6093 48.0739C88.6075 48.1012 88.6075 48.1285 88.6093 48.1558C88.5951 48.1558 88.5951 48.1558 88.563 48.1914C88.5575 48.1888 88.5514 48.1874 88.5452 48.1874C88.5391 48.1874 88.533 48.1888 88.5274 48.1914C88.5222 48.1788 88.5186 48.1657 88.5168 48.1522C88.4417 48.3612 88.3525 48.5648 88.2498 48.7617C88.2439 48.7621 88.2379 48.7621 88.232 48.7617C88.1537 48.8685 88.2427 48.9815 88.2213 49.0918C88.1644 49.3721 88.1644 49.3721 88.1324 49.4041C88.1272 49.4092 88.1233 49.4153 88.1208 49.4221C88.1183 49.4289 88.1174 49.4361 88.1181 49.4433C88.1181 49.4504 88.1181 49.454 88.1181 49.4575L88.1039 49.486C88.1039 49.4931 88.0897 49.5074 88.0754 49.486C88.0595 49.4607 88.0475 49.4331 88.0398 49.4041C88.0719 49.4041 88.1039 49.4041 88.1359 49.4041C88.1027 49.4059 88.0695 49.4059 88.0363 49.4041C87.9911 49.2026 87.9343 49.0039 87.8663 48.8089C87.7955 48.603 87.7539 48.3883 87.7427 48.1709C87.7367 48.1713 87.7308 48.1713 87.7248 48.1709L87.7106 48.1851C87.7106 48.2634 87.7106 48.2741 87.6857 48.3017C87.6217 48.3515 87.5158 48.2341 87.5229 48.1745C87.5656 48.1674 87.5727 48.1674 87.5869 48.1318L87.5727 48.1175C87.498 48.1638 87.4659 48.0499 87.4063 48.0286C87.3636 47.912 87.3636 47.912 87.215 47.8978C87.2098 47.9034 87.2038 47.9081 87.1972 47.912C87.094 47.8622 86.9917 47.9262 86.892 47.912C86.7078 47.88 86.7078 47.88 86.6865 47.823C86.6723 47.7874 86.658 47.7589 86.6367 47.7518C86.5655 47.734 86.5165 47.8052 86.4454 47.791C86.3742 47.7768 86.3288 47.6949 86.2897 47.6913C86.2505 47.6878 86.1055 47.4751 86.1055 47.4751C86.1055 47.4751 86.0841 47.4751 86.077 47.4822C86.0629 47.4677 86.0439 47.4588 86.0236 47.4573C86.0236 47.4644 86.0165 47.4787 86.0129 47.4858L85.9845 47.4965C85.9885 47.5055 85.9909 47.5151 85.9916 47.5249C85.9845 47.5323 85.9785 47.5407 85.9738 47.5498C86.0519 47.6973 86.1433 47.8373 86.247 47.968C86.2256 47.8969 86.2398 47.8791 86.2683 47.855C86.3146 47.912 86.2754 47.9965 86.3324 48.0499C86.3501 48.057 86.3501 48.0499 86.3822 48.0357C86.4142 48.0214 86.4249 48.0357 86.4463 48.0357C86.4604 48.0375 86.4748 48.0375 86.489 48.0357C86.5032 48.0286 86.5032 48.0285 86.553 47.9467C86.5708 47.9182 86.6242 47.8328 86.6278 47.8328C86.6279 47.8796 86.6351 47.9261 86.6491 47.9707C86.6699 48.0029 86.6979 48.0297 86.731 48.049C86.763 48.0633 86.7986 48.0597 86.8199 48.0846L86.9089 48.1807C86.9089 48.1807 86.916 48.1878 86.916 48.2021C86.903 48.2657 86.8776 48.3261 86.8413 48.38C86.8342 48.38 86.8342 48.38 86.8271 48.3658C86.7559 48.3978 86.8484 48.4966 86.7737 48.5215C86.7614 48.5245 86.7504 48.5313 86.7421 48.5408C86.7338 48.5504 86.7287 48.5623 86.7274 48.5749C86.7203 48.6176 86.6776 48.6176 86.6527 48.6389C86.6278 48.6603 86.6456 48.6923 86.6206 48.7101C86.6206 48.7101 86.6064 48.7101 86.5993 48.7101C86.5744 48.7101 86.5673 48.7101 86.4827 48.7457C86.4507 48.7599 86.4329 48.7742 86.4293 48.7991C86.4222 48.8382 86.4222 48.8382 86.3937 48.8525C86.1991 48.9677 85.9938 49.0639 85.7807 49.1399C85.7558 49.1328 85.536 48.5624 85.5325 48.5553L85.2807 48.1015C85.262 48.074 85.2343 48.0539 85.2024 48.0446L85.1846 48.0339C84.9755 47.6976 84.9755 47.6975 84.9327 47.678C84.943 47.6492 84.943 47.6178 84.9327 47.589C84.9114 47.7056 84.9114 47.7056 84.9114 47.7091C84.9023 47.7146 84.8928 47.7194 84.8829 47.7234C84.8153 47.6735 84.7939 47.589 84.7343 47.5356C84.7343 47.5463 85.0467 48.0784 85.0467 48.0819C85.0467 48.0855 85.0182 48.1887 85.4186 48.8898C85.428 48.8879 85.4376 48.8879 85.447 48.8898C85.5111 49.0206 85.7415 49.0002 85.7309 49.1986C85.7151 49.2121 85.7029 49.2292 85.6953 49.2484C85.7665 49.2555 85.7629 49.3623 85.8439 49.3552C86.0084 49.3174 86.1697 49.2665 86.3261 49.203C86.3335 49.2101 86.3419 49.2161 86.3511 49.2208C86.3368 49.3027 86.3333 49.3837 86.3119 49.4655C86.2295 49.6969 86.1005 49.9089 85.9329 50.0884C85.7409 50.2513 85.5683 50.4358 85.4186 50.6383C85.3552 50.7211 85.3208 50.8226 85.3208 50.927C85.3208 51.0313 85.3552 51.1328 85.4186 51.2157C85.4335 51.3907 85.3859 51.5654 85.2842 51.7086C85.1641 51.8323 84.9683 51.8501 84.866 51.9996C84.7948 52.1064 84.8767 52.2122 84.866 52.319C84.8518 52.4463 84.6783 52.4151 84.6534 52.5352C84.6391 52.6171 84.6391 52.6171 84.4407 52.844C84.3946 52.8958 84.3436 52.9432 84.2885 52.9855C84.1996 53.0602 84.1996 53.0602 83.5652 53.1163C83.5723 53.0771 83.5438 53.0451 83.5331 53.0095L83.5581 52.9953V52.9668C83.5403 52.8849 83.5403 52.8849 83.3418 52.6269C83.2529 52.5068 83.2991 52.3537 83.2386 52.2265L83.171 52.1268C83.0153 51.9142 82.9512 51.8252 83.0082 51.6766C83.1639 51.2762 83.1639 51.2762 83.139 51.2406C83.139 51.2335 83.1283 51.2228 83.1247 51.2157C83.0536 51.0849 83.0571 50.9283 82.9868 50.7975C82.9085 50.6525 82.6923 50.6133 82.6959 50.4078C82.7562 50.2756 82.7687 50.1265 82.7315 49.986C82.6887 49.9754 82.6745 49.9362 82.6425 49.9113C82.5784 49.9576 82.501 49.9433 82.4298 49.9611C82.3693 49.922 82.3693 49.922 82.3551 49.8722C82.3475 49.8424 82.3301 49.816 82.3058 49.7973C82.2814 49.7786 82.2514 49.7686 82.2207 49.7689C82.2207 49.7689 81.8773 49.8508 81.8737 49.8579C81.8524 49.8722 81.8524 49.8722 81.5178 49.89C81.4146 49.8971 81.3399 50.0136 81.2233 49.9576C81.0313 49.855 80.8717 49.7009 80.7624 49.5127L80.6067 49.268C80.2703 49.2751 80.6458 48.7822 80.5284 48.5562C80.564 48.4779 80.5569 48.4672 80.4964 48.3898C80.5675 48.1111 80.7376 47.8679 80.975 47.7056C81.0125 47.6782 81.0482 47.6485 81.0818 47.6166L81.1815 47.3541C81.2064 47.2269 81.3514 47.234 81.419 47.145C81.4546 47.0987 81.4689 47.0418 81.508 46.9929C81.8061 47.0462 81.8061 47.0462 82.5642 46.8727L82.5891 46.8799C82.8017 46.8727 82.8017 46.8727 82.816 46.887C82.8346 46.8815 82.8543 46.8815 82.8729 46.887C82.8635 46.9053 82.8486 46.9203 82.8302 46.9297V46.9617C82.8694 47.0009 82.8694 47.0009 82.7662 47.1673C82.9104 47.2272 83.0592 47.2757 83.211 47.3123C83.2395 47.3906 83.5411 47.4902 83.5447 47.4902C83.558 47.4917 83.5715 47.4899 83.584 47.485C83.5965 47.48 83.6076 47.4722 83.6163 47.462C83.6251 47.4519 83.6312 47.4397 83.6343 47.4267C83.6373 47.4136 83.6371 47.4 83.6337 47.387C83.6052 47.2384 83.8357 47.2091 83.8962 47.2909C84.0101 47.4324 84.18 47.355 84.3179 47.4013C84.4558 47.4475 84.5946 47.355 84.729 47.4084H84.7539C84.9808 47.4155 84.9381 46.8798 84.9319 46.8745C84.7223 46.9428 84.4964 46.9428 84.2868 46.8745L84.3081 46.8532C84.2974 46.8532 84.2868 46.8532 84.2761 46.8532C84.1658 46.7366 84.1658 46.7366 84.1524 46.7366C84.1524 46.7295 84.1595 46.7152 84.1631 46.7081C84.1725 46.7101 84.1822 46.7101 84.1916 46.7081C84.1934 46.677 84.1859 46.6461 84.1702 46.6192C84.1604 46.6198 84.1508 46.6222 84.1418 46.6263C84.1377 46.6173 84.1353 46.6076 84.1346 46.5978C84.1951 46.5088 84.3046 46.5551 84.3793 46.5017C84.3746 46.4926 84.3686 46.4842 84.3615 46.4768C84.8366 46.3878 84.8367 46.3878 84.9007 46.4305C85.0173 46.5195 85.294 46.4768 85.2904 46.3771C85.2798 46.136 84.9292 46.2882 84.8865 46.0648C84.9256 46.0542 84.9399 46.0079 84.9755 45.9865C84.9605 45.9728 84.9474 45.9573 84.9363 45.9403C84.9719 45.9296 84.9719 45.9296 85.0111 45.8904L84.7272 45.9901C84.7272 45.9972 84.7272 46.0114 84.7272 46.0186C84.7272 46.0257 84.7059 46.0186 84.6987 46.0114C84.7308 46.0399 84.7308 46.0399 84.858 46.0648C84.858 46.0719 84.8473 46.0826 84.8438 46.0897C84.787 46.1056 84.7323 46.1283 84.6809 46.1574C84.6735 46.1503 84.6651 46.1443 84.656 46.1396C84.6489 46.0969 84.6062 46.0826 84.5884 46.0506C84.6034 46.0364 84.6155 46.0195 84.624 46.0008C84.5244 46.0008 84.5243 46.0008 84.4932 45.9509C84.4414 45.9802 84.3928 46.0148 84.3482 46.0541C84.3624 46.1289 84.2948 46.1814 84.2877 46.249C84.277 46.2561 84.277 46.2561 84.2272 46.3487C84.267 46.3924 84.3095 46.4337 84.3544 46.4723C84.2782 46.494 84.2045 46.5239 84.1346 46.5613C84.1393 46.5415 84.1506 46.524 84.1667 46.5115C84.156 46.5115 84.1453 46.5115 84.1382 46.5115H84.1275C84.0992 46.4905 84.0643 46.4804 84.0292 46.483C83.9941 46.4857 83.9611 46.5008 83.9362 46.5257C83.9433 46.5328 83.954 46.54 83.9576 46.5471C83.8971 46.572 83.8971 46.5684 83.8579 46.5186C83.8401 46.5471 83.8259 46.572 83.8793 46.6254C83.874 46.6456 83.8656 46.6648 83.8544 46.6823C83.9006 46.7072 83.9433 46.7393 83.9611 46.7464L83.9398 46.7677C83.9291 46.7677 83.9184 46.7677 83.9113 46.7677L83.897 46.7962C83.9042 46.8033 83.9113 46.814 83.9184 46.8211C83.8984 46.8247 83.8779 46.8247 83.8579 46.8211C83.865 46.8389 83.8793 46.8603 83.8864 46.8745C83.8822 46.8838 83.8787 46.8933 83.8757 46.903C83.8686 46.8959 83.8579 46.8888 83.8508 46.8816C83.8437 46.8888 83.8366 46.8994 83.833 46.903C83.8253 46.8848 83.813 46.8689 83.7974 46.8567C83.7883 46.8622 83.7788 46.8669 83.7689 46.871C83.7689 46.8318 83.7689 46.8282 83.7262 46.7998C83.7262 46.7927 83.7262 46.7927 83.8748 46.7499C83.8214 46.7215 83.7547 46.7606 83.7049 46.7144C83.7055 46.7045 83.708 46.6949 83.712 46.6859C83.5527 46.6076 83.5954 46.3593 83.3997 46.3175C83.3498 46.2285 83.244 46.1974 83.1834 46.1155C83.1632 46.1159 83.1434 46.1221 83.1265 46.1333C83.1127 46.126 83.1015 46.1145 83.0945 46.1004C83.0875 46.0864 83.085 46.0705 83.0874 46.055C83.0675 46.0612 83.0484 46.0695 83.0304 46.08C82.977 46.1155 83.0304 46.378 83.2715 46.4127C83.3214 46.4946 83.4308 46.4946 83.4913 46.5684L83.4664 46.5827C83.413 46.5293 83.3703 46.5328 83.3392 46.5898C83.3549 46.6184 83.3727 46.6457 83.3926 46.6716C83.3499 46.7072 83.3214 46.7606 83.2724 46.7784C83.2618 46.7215 83.3187 46.6654 83.2724 46.6085L82.8044 46.2152C82.7475 46.1832 82.7297 46.1832 82.7154 46.1867C82.6371 46.201 82.5918 46.2757 82.5241 46.2997C82.4565 46.3237 82.3684 46.2499 82.2901 46.2997C82.1763 46.4313 82.0775 46.5751 81.9956 46.7286C81.96 46.7531 81.9327 46.7878 81.9173 46.8283C81.7794 46.8603 81.6548 46.935 81.5169 46.9697C81.4279 46.8879 81.4279 46.8879 81.29 46.8736C81.3399 46.6894 81.3185 46.491 81.3719 46.3068C81.468 46.2534 81.468 46.2535 81.7278 46.2855C81.7919 46.2784 81.855 46.3246 81.9191 46.2784C81.9832 46.2321 81.9583 46.1405 82.001 46.08C81.9974 46.0599 81.9974 46.0395 82.001 46.0194C81.9369 45.9803 81.9405 45.9554 81.944 45.9233C81.9031 45.892 81.8539 45.8734 81.8026 45.87L81.7776 45.8522C81.7847 45.8344 81.7954 45.813 81.8026 45.7952C81.8707 45.7864 81.9394 45.7828 82.0081 45.7845C82.0081 45.7062 82.0081 45.7062 82.0081 45.6956C82.0081 45.6849 82.0294 45.6956 82.0401 45.6956C82.0443 45.7048 82.0478 45.7143 82.0508 45.724C82.0922 45.7322 82.1351 45.7285 82.1745 45.7134C82.1674 45.7062 82.1602 45.6956 82.1567 45.692C82.1745 45.6849 82.1887 45.6813 82.2279 45.6671C82.2955 45.6244 82.3444 45.5603 82.4156 45.5221C82.4159 45.528 82.4159 45.5339 82.4156 45.5399C82.4215 45.5402 82.4275 45.5402 82.4334 45.5399C82.4334 45.5399 82.4263 45.5292 82.4227 45.5256C82.441 45.523 82.4589 45.5182 82.4761 45.5114C82.4583 45.5114 82.4405 45.5114 82.4227 45.5114C82.4405 45.5007 82.4405 45.5007 82.5046 45.4082H82.5224C82.5156 45.4188 82.5119 45.4312 82.5117 45.4438L82.5259 45.4544C82.5544 45.4117 82.5544 45.4117 82.5366 45.3904C82.5544 45.3655 82.5544 45.3655 82.6745 45.3655C82.6745 45.3655 82.6638 45.3583 82.6603 45.3548C82.6816 45.3299 82.6816 45.3299 82.7599 45.3548C82.7599 45.3334 82.7599 45.3334 82.792 45.3085C82.7918 45.2948 82.7881 45.2813 82.7813 45.2694L82.7955 45.2587C82.7849 45.2302 82.7955 45.1982 82.7813 45.1697C82.7754 45.1694 82.7694 45.1694 82.7635 45.1697C82.6994 45.0211 82.9156 44.982 82.9192 44.982C82.9192 45.0069 82.9192 45.0069 82.8943 45.071C82.8943 45.071 82.9014 45.0816 82.905 45.0852C82.916 45.0856 82.9269 45.088 82.937 45.0923C82.9172 45.1228 82.8932 45.1503 82.8658 45.1742H82.8765C82.8907 45.1742 82.9014 45.167 82.9156 45.167C82.9179 45.1662 82.9204 45.1662 82.9227 45.167C82.9274 45.1773 82.931 45.1881 82.9334 45.1991C82.9341 45.2014 82.9341 45.2039 82.9334 45.2062C82.9291 45.2093 82.9243 45.2117 82.9192 45.2133C82.9192 45.2133 82.9192 45.2133 82.9121 45.2133H82.8978C82.8955 45.2141 82.893 45.2141 82.8907 45.2133C82.8907 45.2133 82.8907 45.2133 82.8907 45.2062H82.8801C82.8694 45.2062 82.8658 45.1955 82.8729 45.1884C82.8614 45.1994 82.8507 45.2113 82.8409 45.224C82.8438 45.2298 82.8477 45.235 82.8526 45.2393C82.8575 45.2436 82.8632 45.2468 82.8694 45.2489C82.8765 45.2809 82.8765 45.2809 82.9227 45.2881C82.9227 45.2987 82.9299 45.313 82.9334 45.3236C82.9713 45.3097 83.0117 45.3037 83.0519 45.3062C83.0922 45.3086 83.1316 45.3194 83.1675 45.3379C83.2617 45.2963 83.359 45.2618 83.4584 45.2347C83.4762 45.2916 83.6497 45.2133 83.6497 45.2098L83.6639 44.9935C83.7209 44.9366 83.7672 45.0505 83.8268 45.0256C83.8359 44.9894 83.8359 44.9515 83.8268 44.9152C83.7947 44.9224 83.7947 44.9224 83.7591 44.8547C83.7591 44.8441 83.7592 44.8441 84.0145 44.8156C84.0216 44.8049 84.0216 44.8049 84.1453 44.7622C84.1133 44.7408 84.0706 44.748 84.0421 44.7195C84.0418 44.7136 84.0418 44.7076 84.0421 44.7017C83.9934 44.7137 83.9436 44.7209 83.8935 44.723C83.7378 44.7658 83.7378 44.7658 83.7307 44.7693C83.6986 44.723 83.5999 44.7088 83.6275 44.635C83.6048 44.6041 83.5935 44.5664 83.5954 44.5282C83.6346 44.4499 83.7262 44.425 83.7734 44.3502C83.7793 44.3506 83.7852 44.3506 83.7912 44.3502C83.8374 44.2755 83.6568 44.2684 83.6355 44.2684C83.6248 44.3004 83.5963 44.3253 83.5856 44.3574C83.5929 44.3672 83.5989 44.378 83.6034 44.3894C83.5607 44.4036 83.5429 44.4463 83.5002 44.4606H83.4931C83.4659 44.4862 83.4361 44.5089 83.4041 44.5282C83.3954 44.5646 83.381 44.5995 83.3614 44.6314C83.3689 44.6606 83.3736 44.6903 83.3756 44.7204C83.4006 44.7097 83.4006 44.7097 83.4646 44.7631V44.7809C83.4468 44.8022 83.4326 44.8307 83.4112 44.8521C83.4053 44.8524 83.3994 44.8524 83.3935 44.8521C83.3365 44.9268 83.3365 44.9268 83.3401 44.9339C83.3045 44.9873 83.3116 45.0541 83.2831 45.1119C83.2048 45.1119 83.1763 45.1119 83.1728 45.1581C83.1728 45.1581 83.1265 45.1973 83.0838 45.1724C83.083 45.1537 83.0754 45.136 83.0625 45.1226C83.0767 45.0763 83.0767 45.0763 83.0767 45.0692C83.0767 45.0621 83.0055 44.9206 83.0055 44.917C83.0055 44.9135 82.9948 44.917 82.9877 44.9099C82.9806 44.9028 82.9877 44.8957 82.9877 44.853C82.9792 44.8486 82.9717 44.8426 82.9656 44.8352C82.9595 44.8279 82.9549 44.8194 82.9521 44.8102C82.9424 44.8249 82.9341 44.8404 82.9272 44.8565C82.8596 44.8636 82.8311 44.9455 82.7644 44.9455C82.7644 44.9455 82.6549 44.9455 82.6407 44.8779C82.654 44.865 82.6683 44.8531 82.6834 44.8423C82.6838 44.8363 82.6838 44.8304 82.6834 44.8245L82.6336 44.8387C82.6336 44.8387 82.6336 44.8387 82.6905 44.7924C82.6905 44.7924 82.6799 44.7925 82.6727 44.7853C82.6941 44.7711 82.7083 44.7533 82.7297 44.7391L82.7368 44.7248C82.7119 44.7319 82.7119 44.7319 82.6763 44.7675C82.6621 44.7497 82.6621 44.7497 82.6763 44.7177H82.6585C82.6587 44.7051 82.6624 44.6928 82.6692 44.6821H82.6976C82.7439 44.675 82.7475 44.675 82.7724 44.6892C82.7804 44.6803 82.79 44.673 82.8009 44.6679C82.8009 44.6679 82.7902 44.6608 82.7866 44.6572C82.7831 44.6537 82.6976 44.6892 82.6629 44.6679C82.667 44.6564 82.6694 44.6444 82.6701 44.6323C82.6855 44.6219 82.7023 44.6135 82.7199 44.6074C82.7083 44.6077 82.697 44.6039 82.6879 44.5967C82.6879 44.5967 82.6985 44.5967 82.7057 44.5896H82.7306C82.7393 44.5813 82.7506 44.5763 82.7626 44.5753V44.5576C82.8089 44.5469 82.8089 44.5469 82.816 44.5398C82.8163 44.5338 82.8163 44.5279 82.816 44.522C82.8268 44.5168 82.8365 44.5096 82.8445 44.5006C82.8551 44.5006 82.8694 44.5006 82.8801 44.5006H82.8872C82.9014 44.4899 82.905 44.4721 82.9227 44.4615V44.4721C82.9227 44.4721 82.9334 44.4721 82.9406 44.4793C82.9477 44.4864 82.9512 44.4721 82.9548 44.4686C82.9666 44.4703 82.9786 44.4703 82.9904 44.4686C82.9833 44.4615 82.9726 44.4508 82.9726 44.4401C83.0438 44.3832 83.0438 44.3832 83.0616 44.3867C83.0794 44.3405 83.0794 44.3405 83.1007 44.3333C83.1048 44.3224 83.1095 44.3117 83.1149 44.3013C83.1149 44.3013 83.1256 44.3084 83.1292 44.312C83.1292 44.2942 83.1434 44.2799 83.1399 44.2622C83.1363 44.2444 83.1612 44.2479 83.1683 44.2408C83.1861 44.1732 83.2751 44.1625 83.292 44.0958C83.2959 44.092 83.3009 44.0895 83.3062 44.0886C83.3062 44.0886 83.3169 44.0886 83.3241 44.0958C83.3261 44.09 83.3261 44.0837 83.3241 44.078C83.3241 44.078 83.3347 44.0708 83.3383 44.0673C83.3501 44.0691 83.3621 44.0691 83.3739 44.0673L83.3383 44.0531C83.3845 44.0353 83.3845 44.0353 83.3917 44.0103C83.4024 44.0049 83.4112 43.9962 83.4166 43.9854L83.4308 43.9961C83.4308 43.9961 83.4379 43.9854 83.4415 43.9819C83.4451 43.9783 83.4557 43.9819 83.4593 43.989C83.4451 43.9783 83.4451 43.9783 83.4095 43.9712C83.4095 43.9712 83.4201 43.9641 83.4237 43.9605H83.4308C83.4367 43.9602 83.4427 43.9602 83.4486 43.9605C83.4441 43.9557 83.4416 43.9493 83.4415 43.9427C83.4474 43.9431 83.4534 43.9431 83.4593 43.9427C83.4629 43.9545 83.469 43.9654 83.4771 43.9748C83.4771 43.9748 83.4771 43.9641 83.4842 43.957H83.502C83.502 43.957 83.502 43.9676 83.5091 43.9748C83.5129 43.9641 83.519 43.9543 83.5269 43.9463L83.5411 43.9392C83.5511 43.9454 83.5619 43.9502 83.5732 43.9534C83.5713 43.9411 83.5677 43.9291 83.5625 43.9178C83.5691 43.9179 83.5755 43.9204 83.5803 43.9249C83.5803 43.9249 83.5874 43.9142 83.591 43.9107C83.5997 43.9199 83.6092 43.9282 83.6195 43.9356C83.6232 43.9249 83.6293 43.9152 83.6372 43.9071V43.8893L83.6515 43.9036C83.6515 43.9036 83.6586 43.8929 83.6622 43.8893C83.6618 43.8834 83.6618 43.8775 83.6622 43.8715L83.7156 43.8609C83.7156 43.8822 83.6942 43.9036 83.7049 43.9285C83.7162 43.9075 83.7306 43.8883 83.7476 43.8715C83.7495 43.8838 83.7531 43.8958 83.7583 43.9071C83.7761 43.8929 83.776 43.8929 83.7867 43.8609C83.798 43.8623 83.8089 43.866 83.8188 43.8715C83.8191 43.8775 83.8191 43.8834 83.8188 43.8893C83.8188 43.8893 83.8294 43.8893 83.8365 43.8964C83.8362 43.8905 83.8362 43.8846 83.8365 43.8787C83.8668 43.8833 83.8965 43.8904 83.9255 43.9V43.9178L83.8721 43.932C83.9113 43.9498 83.9113 43.9498 83.9184 43.9605C83.9469 43.9463 83.9789 43.9605 84.0074 43.9427C84.0182 43.9478 84.0279 43.9551 84.0359 43.9641H84.0181C84.0327 43.974 84.0502 43.979 84.0679 43.9783L84.0786 43.989C84.2395 43.9921 84.394 44.0523 84.5145 44.1589C84.5466 44.2479 84.3304 44.2719 84.1177 44.1589C84.1177 44.1589 84.1071 44.1661 84.1035 44.1696C84.2628 44.2826 84.2628 44.2826 84.2663 44.2897C84.2699 44.2968 84.4042 44.4988 84.4896 44.4036C84.4612 44.368 84.3829 44.3751 84.3936 44.3146C84.5421 44.3645 84.5715 44.3751 84.5991 44.3574C84.5243 44.2862 84.5243 44.2862 84.5849 44.2052C84.6223 44.2149 84.6591 44.2268 84.6952 44.2408C84.5501 44.0495 84.5502 44.0495 84.5172 44.0281C84.6729 44.0566 84.6729 44.0566 84.6952 44.0886L84.6596 44.1029C84.6593 44.1088 84.6593 44.1148 84.6596 44.1207C84.7272 44.1634 84.7272 44.1634 84.7664 44.1705C84.7664 44.1705 84.7664 44.1705 84.777 44.0993C84.8126 44.0851 84.834 44.0531 84.866 44.0317C84.8731 44.0317 84.8909 44.0317 84.898 44.0317C84.8943 44.0278 84.8918 44.0228 84.8909 44.0175C84.8999 44.0109 84.9072 44.0024 84.9123 43.9925C84.9764 44.0459 84.9763 44.0459 85.0013 44.0531V44.0388C85.0087 44.0295 85.0189 44.0228 85.0304 44.0196C85.0419 44.0164 85.0541 44.0169 85.0653 44.021L85.0724 44.0103C85.0752 44.004 85.0803 43.9989 85.0867 43.9961C85.1045 43.9961 85.1187 44.0103 85.1365 44.0139L85.1507 44.0281C85.1566 44.0295 85.1627 44.0295 85.1685 44.0281C86.1104 44.3466 86.9464 44.9182 87.5849 45.6803C88.2234 46.4425 88.6397 47.3658 88.7881 48.3489C88.6671 48.1042 88.6609 48.1006 88.6146 48.0757L88.6093 48.0739ZM82.0873 46.6912C82.0917 46.6857 82.0981 46.6819 82.1051 46.6806C82.1122 46.6806 82.1122 46.6877 82.1122 46.6912C82.1117 46.6943 82.1105 46.6972 82.1087 46.6997C82.1068 46.7022 82.1043 46.7042 82.1015 46.7055C82.1015 46.7055 82.0944 46.7055 82.0908 46.7055C82.0881 46.7001 82.0882 46.6966 82.0917 46.693L82.0873 46.6912ZM82.1762 46.6378C82.2367 46.6058 82.2403 46.6058 82.2439 46.6022C82.2439 46.6022 82.2439 46.6129 82.2439 46.6165C82.2439 46.62 82.251 46.6165 82.2546 46.6272C82.2565 46.6329 82.2565 46.6392 82.2546 46.645C82.2546 46.6663 82.2367 46.6628 82.2332 46.6628C82.2297 46.6638 82.226 46.6638 82.2225 46.6628C82.2172 46.6601 82.2123 46.6565 82.2083 46.6521C82.2012 46.6521 82.1905 46.6521 82.1834 46.6521L82.1762 46.6378ZM82.2928 46.5987C82.2928 46.5987 82.3142 46.5916 82.3177 46.5916C82.3213 46.5916 82.3319 46.6165 82.3319 46.6165C82.3319 46.6165 82.3319 46.6236 82.3248 46.6236C82.3231 46.6214 82.321 46.6197 82.3185 46.6185C82.316 46.6172 82.3133 46.6165 82.3106 46.6165C82.3089 46.6157 82.3071 46.6154 82.3052 46.6154C82.3034 46.6154 82.3016 46.6157 82.2999 46.6165C82.3005 46.6113 82.2996 46.606 82.2973 46.6014L82.2928 46.5987ZM82.7074 46.4857C82.7139 46.4817 82.7212 46.4793 82.7288 46.4786C82.7537 46.4786 82.7644 46.5284 82.7644 46.5498C82.7644 46.5711 82.7644 46.5853 82.7644 46.6031C82.7663 46.6236 82.7639 46.6442 82.7573 46.6636L82.7501 46.6708C82.7395 46.6779 82.7288 46.6708 82.7217 46.6814C82.7146 46.6921 82.711 46.7028 82.7003 46.7063C82.697 46.7074 82.6934 46.7073 82.6901 46.706C82.6869 46.7047 82.6842 46.7023 82.6825 46.6992C82.678 46.695 82.6743 46.6899 82.6717 46.6843C82.6691 46.6786 82.6676 46.6725 82.6674 46.6663C82.6621 46.6501 82.6621 46.6327 82.6674 46.6165C82.6674 46.6094 82.6674 46.6094 82.6674 46.5916C82.6709 46.58 82.6709 46.5676 82.6674 46.556C82.6532 46.5346 82.6532 46.5346 82.6532 46.5311C82.6532 46.5275 82.6532 46.5168 82.6603 46.5168C82.6674 46.5168 82.6709 46.5168 82.6781 46.5168C82.6816 46.5174 82.6852 46.5174 82.6887 46.5168C82.693 46.505 82.7011 46.4949 82.7119 46.4884L82.7074 46.4857ZM82.6896 46.3825C82.6896 46.3718 82.6896 46.3647 82.6896 46.3611C82.6896 46.3576 82.6896 46.354 82.6896 46.354C82.692 46.3533 82.6944 46.3533 82.6967 46.354L82.7252 46.3433C82.7324 46.3433 82.7323 46.3362 82.7359 46.3255C82.7395 46.3149 82.7359 46.3148 82.743 46.3148C82.7501 46.3148 82.743 46.3149 82.743 46.322L82.7537 46.3931C82.7469 46.4184 82.7361 46.4425 82.7217 46.4643C82.7217 46.4714 82.7003 46.4643 82.7003 46.4572C82.7003 46.4501 82.6861 46.4359 82.6825 46.4287C82.679 46.4216 82.695 46.3851 82.695 46.3851L82.6896 46.3825ZM83.2235 46.8647C83.2235 46.8754 83.2128 46.8932 83.2093 46.8932C83.1976 46.8963 83.1853 46.8963 83.1737 46.8932C83.1559 46.8861 83.1488 46.8719 83.131 46.8647C83.1132 46.8576 83.1025 46.8647 83.0882 46.8541C83.074 46.8434 83.0491 46.8291 83.0242 46.822C83.0183 46.8206 83.0123 46.8206 83.0064 46.822C82.9922 46.822 82.9886 46.822 82.985 46.8149C82.9815 46.8078 82.9779 46.7758 82.985 46.7722H83.0633C83.0714 46.7764 83.0797 46.78 83.0882 46.7829C83.0976 46.7849 83.1074 46.7849 83.1167 46.7829C83.1559 46.7829 83.1915 46.7651 83.2297 46.7615C83.2404 46.7615 83.2404 46.7686 83.2404 46.7722C83.2333 46.7971 83.2048 46.8149 83.2119 46.8434L83.2235 46.8647ZM83.1666 46.9777C83.1666 46.9796 83.1658 46.9814 83.1645 46.9828C83.1631 46.9841 83.1613 46.9848 83.1594 46.9848C83.1566 46.9852 83.1538 46.9847 83.1512 46.9835C83.1487 46.9822 83.1466 46.9802 83.1452 46.9777C83.1345 46.9671 83.1381 46.9564 83.1452 46.9564C83.1523 46.9564 83.1728 46.9733 83.1728 46.9804L83.1666 46.9777ZM83.6524 46.7473L83.663 46.7366C83.663 46.7366 83.6631 46.7295 83.6702 46.7295C83.6773 46.7295 83.6951 46.7651 83.6951 46.7686C83.6928 46.7693 83.6903 46.7693 83.688 46.7686C83.688 46.7686 83.6809 46.7686 83.6773 46.7615C83.6727 46.7631 83.6676 46.7631 83.663 46.7615C83.6601 46.7574 83.6586 46.7535 83.6586 46.7499L83.6524 46.7473ZM83.9994 46.7473C84.0017 46.7465 84.0042 46.7465 84.0065 46.7473C84.0065 46.7473 84.0065 46.7473 84.0065 46.758V46.7829C83.9994 46.7829 83.9994 46.7758 83.9958 46.7758L83.978 46.7686C83.978 46.7686 83.978 46.7686 83.9709 46.7615C83.9602 46.7402 83.9602 46.7402 83.9531 46.7366C83.946 46.733 83.9424 46.7366 83.9353 46.7295C83.9275 46.7258 83.9204 46.721 83.914 46.7152C83.9076 46.7095 83.9004 46.7047 83.8926 46.701C83.8836 46.6976 83.8752 46.6928 83.8677 46.6868C83.8677 46.6868 83.8677 46.6868 83.8677 46.6797C83.8677 46.6725 83.8819 46.6654 83.889 46.6654C83.8962 46.6654 83.8891 46.6654 83.9104 46.6832C83.9318 46.701 83.9211 46.6939 83.9496 46.701C83.9567 46.701 83.9638 46.701 83.9638 46.7081C83.9638 46.7152 83.9638 46.7224 83.9709 46.7295C83.9747 46.7343 83.9794 46.7383 83.9847 46.7412C83.9901 46.7441 83.996 46.7459 84.0021 46.7464L83.9994 46.7473ZM83.9816 46.5239C83.9816 46.5239 83.9816 46.5062 83.9994 46.5062C84.0022 46.5062 84.0049 46.5073 84.0069 46.5093C84.0089 46.5113 84.0101 46.514 84.0101 46.5168C84.0101 46.5168 84.0101 46.5275 84.0029 46.5275C83.9958 46.5275 83.9923 46.5266 83.9887 46.5231L83.9816 46.5239ZM83.9673 46.9955H83.9816C83.9834 46.9957 83.9851 46.9965 83.9864 46.9978C83.9877 46.9991 83.9885 47.0008 83.9887 47.0026C83.9924 47.0064 83.9968 47.0093 84.0018 47.0112C84.0067 47.013 84.0119 47.0138 84.0172 47.0133C84.0325 47.0114 84.0481 47.0114 84.0634 47.0133C84.0749 47.0174 84.0869 47.0198 84.099 47.0204C84.1084 47.0184 84.1181 47.0184 84.1275 47.0204C84.1321 47.0221 84.1372 47.0221 84.1418 47.0204C84.1489 47.0204 84.1595 47.0204 84.1667 47.0204C84.1738 47.0204 84.1667 47.0204 84.1667 47.0276C84.1667 47.0347 84.1667 47.0453 84.1595 47.0453C84.1524 47.0453 84.1595 47.0453 84.1524 47.0453C84.1453 47.0453 84.1382 47.0382 84.1168 47.0453C84.1054 47.0494 84.0934 47.0519 84.0812 47.0525L84.0528 47.0631C84.0207 47.0311 84.0172 47.0311 83.9531 47.0347C83.9353 47.0347 83.9353 47.0347 83.9353 47.0062C83.9407 46.9985 83.9481 46.9923 83.9567 46.9884C83.9567 46.9884 83.9673 46.9911 83.9745 46.9946L83.9673 46.9955ZM84.0457 46.7758C84.0457 46.7758 84.0528 46.7829 84.0457 46.7864C84.0385 46.79 84.0456 46.7971 84.0385 46.8042C84.0362 46.805 84.0337 46.805 84.0314 46.8042C84.0314 46.8042 84.0314 46.8042 84.0314 46.7971L84.0243 46.79C84.0243 46.7829 84.0243 46.7758 84.0243 46.7758C84.0333 46.7737 84.0427 46.7734 84.0519 46.7749L84.0457 46.7758ZM84.0278 46.5845C84.0358 46.5811 84.0442 46.5787 84.0528 46.5773C84.0599 46.5773 84.0634 46.5773 84.0599 46.5845C84.0606 46.5868 84.0606 46.5892 84.0599 46.5916L84.0457 46.6022C84.0457 46.6022 84.0456 46.6022 84.0385 46.6022L84.0314 46.588L84.0278 46.5845ZM84.0955 46.8398C84.1026 46.8398 84.1026 46.8469 84.1026 46.8505C84.1026 46.8541 84.0848 46.8754 84.0812 46.8683C84.0793 46.8651 84.0783 46.8613 84.0784 46.8575C84.0785 46.8537 84.0797 46.8501 84.0819 46.8469C84.0841 46.8438 84.0871 46.8414 84.0906 46.84C84.0941 46.8386 84.098 46.8382 84.1017 46.8389L84.0955 46.8398ZM84.1133 46.7055C84.1311 46.7055 84.1346 46.7126 84.1346 46.7233C84.1346 46.7339 84.1346 46.7446 84.1346 46.7446C84.1346 46.7446 84.1204 46.7517 84.1168 46.7446C84.1168 46.7375 84.1168 46.7339 84.1168 46.7268C84.1168 46.7197 84.1168 46.7197 84.1097 46.7161C84.1089 46.7138 84.1089 46.7113 84.1097 46.709C84.1097 46.709 84.1088 46.7037 84.1195 46.7037L84.1133 46.7055ZM84.1026 46.6485C84.1129 46.6398 84.1251 46.6337 84.1382 46.6307C84.156 46.6307 84.1702 46.6663 84.1702 46.6699C84.1631 46.6699 84.1631 46.6699 84.1595 46.6699H84.1453C84.1382 46.6699 84.1453 46.6699 84.1453 46.6628C84.1453 46.6556 84.1453 46.6521 84.1453 46.6521C84.1453 46.6521 84.1453 46.6521 84.1382 46.6521C84.1311 46.6521 84.1311 46.6521 84.1239 46.6521C84.1168 46.6521 84.1053 46.6539 84.1088 46.6467L84.1026 46.6485ZM84.2805 46.9323C84.2852 46.9262 84.2911 46.9211 84.2978 46.9175C84.3046 46.9138 84.312 46.9116 84.3197 46.911C84.3197 46.911 84.3304 46.911 84.3304 46.9217C84.3308 46.9273 84.3292 46.9328 84.326 46.9373C84.3227 46.9419 84.318 46.9452 84.3126 46.9466C84.3055 46.9466 84.2877 46.9608 84.2912 46.9679C84.2862 46.957 84.2856 46.9446 84.2894 46.9332L84.2805 46.9323ZM84.656 47.0391C84.6647 47.0308 84.676 47.0258 84.6881 47.0249C84.6987 47.0249 84.7023 47.0249 84.7058 47.0178C84.7094 47.0107 84.7059 47.0071 84.713 47.0071H84.7201C84.7415 47 84.7628 47 84.7877 46.9929C84.8035 46.9894 84.8182 46.9821 84.8304 46.9715C84.8345 46.97 84.8382 46.9676 84.8411 46.9644C84.8411 46.9644 84.8411 46.9715 84.834 46.9822C84.8269 46.9929 84.8162 47 84.8126 47.0106C84.8091 47.0213 84.8126 47.0284 84.8055 47.0356L84.7806 47.0498C84.7735 47.0498 84.7628 47.0498 84.7557 47.0498C84.7503 47.0525 84.7455 47.0561 84.7414 47.0605C84.7414 47.0605 84.7023 47.0605 84.6916 47.0534C84.6809 47.0462 84.681 47.0427 84.6738 47.0391C84.6667 47.0356 84.6658 47.0409 84.6658 47.0374L84.656 47.0391ZM82.9334 45.192V45.2062C82.9334 45.2062 82.9334 45.2062 82.9263 45.2133C82.9192 45.2204 82.9263 45.2204 82.9263 45.224C82.9263 45.224 82.9263 45.2133 82.9263 45.2026C82.9263 45.192 82.9388 45.1902 82.9423 45.1902L82.9334 45.192ZM82.9761 45.1172H82.9939C83.0011 45.1172 83.0011 45.1243 83.0011 45.1314C83.0011 45.1314 83.0011 45.1243 83.0082 45.1314C83.0153 45.1386 83.0189 45.1315 83.0082 45.1137C82.9975 45.0959 83.0295 45.1065 83.0295 45.1065C83.0339 45.112 83.037 45.1183 83.0389 45.125C83.0407 45.1318 83.0412 45.1388 83.0402 45.1457C83.0402 45.1528 83.0331 45.1564 83.0331 45.1635C83.0347 45.1681 83.0347 45.1731 83.0331 45.1777C83.0331 45.1848 83.0224 45.1848 83.0188 45.192C83.0153 45.1991 83.0188 45.1991 83.0117 45.2026H83.0011C82.9939 45.2026 82.9868 45.192 82.9797 45.192C82.9584 45.192 82.9583 45.192 82.9548 45.1813C82.9548 45.1742 82.9548 45.1671 82.9477 45.1599C82.9406 45.1528 82.9477 45.1599 82.9477 45.1528H82.9619C82.969 45.1528 82.969 45.1528 82.969 45.1528L82.9868 45.1421C82.9922 45.119 82.985 45.119 82.985 45.1154L82.9761 45.1172ZM82.9761 45.2062C82.9778 45.2055 82.9796 45.2051 82.9815 45.2051C82.9833 45.2051 82.9851 45.2055 82.9868 45.2062C82.9868 45.2062 82.9939 45.2062 82.9939 45.2133C82.9939 45.2204 83.0011 45.2133 83.0011 45.2204C83.0011 45.2204 82.9939 45.2418 82.9904 45.2347C82.9887 45.2301 82.9887 45.225 82.9904 45.2204C82.9904 45.2204 82.9904 45.2204 82.9904 45.2133C82.9904 45.2062 82.9922 45.2115 82.9886 45.2044L82.9761 45.2062ZM82.9868 45.2347C82.9868 45.2347 82.9868 45.2347 82.9797 45.2347C82.9726 45.2347 82.9797 45.2347 82.9726 45.2347C82.9655 45.2347 82.9655 45.2347 82.9619 45.2347H82.9477V45.224C82.9477 45.224 82.9477 45.224 82.9548 45.224H82.969H82.9833C82.9833 45.224 82.9993 45.2293 82.9993 45.2329L82.9868 45.2347ZM83.0865 45.2418C83.0865 45.2418 83.0865 45.2418 83.0936 45.2418H83.1043V45.2489V45.2596C83.1043 45.2596 83.0829 45.2703 83.0758 45.2596C83.0687 45.2489 83.0758 45.2418 83.0758 45.2418C83.0758 45.2418 83.0758 45.2418 83.0829 45.2418C83.09 45.2418 83.1025 45.2427 83.0989 45.2427L83.0865 45.2418ZM83.1755 45.1777C83.1826 45.1777 83.2039 45.1884 83.2039 45.192C83.2039 45.1955 83.1933 45.1991 83.1861 45.1991C83.179 45.1991 83.187 45.1831 83.1906 45.1759L83.1755 45.1777ZM83.292 45.0638C83.292 45.0638 83.292 45.0638 83.292 45.0567C83.2975 45.0489 83.3023 45.0405 83.3062 45.0318C83.3062 45.0247 83.3134 45.014 83.3169 45.0069C83.3205 44.9998 83.324 44.9962 83.3276 44.9927C83.3276 45.0033 83.2991 45.0674 83.2991 45.0745C83.2991 45.0816 83.292 45.0852 83.2885 45.0852C83.2897 45.0804 83.2922 45.076 83.2956 45.0724C83.299 45.0689 83.3033 45.0662 83.308 45.0647L83.292 45.0638ZM83.4059 45.0033C83.4059 45.0033 83.4059 44.9927 83.4059 44.9891C83.4066 44.9808 83.4066 44.9725 83.4059 44.9642C83.4059 44.9571 83.413 44.9464 83.4415 44.9393C83.4403 44.9463 83.4403 44.9535 83.4415 44.9606C83.4435 44.9664 83.4435 44.9727 83.4415 44.9784C83.4415 44.9784 83.4415 44.9784 83.4344 44.9855L83.4059 45.0211C83.4317 45.0238 83.421 45.0131 83.421 45.0024L83.4059 45.0033ZM83.5189 44.7408L83.526 44.748H83.5189C83.5142 44.7492 83.5093 44.7492 83.5047 44.748C83.5047 44.748 83.4976 44.7408 83.4976 44.7373C83.4976 44.7373 83.4976 44.7373 83.5047 44.7373C83.5118 44.7373 83.5118 44.7373 83.5118 44.7373C83.5314 44.7293 83.5278 44.7328 83.5349 44.74L83.5189 44.7408ZM83.6639 44.8788H83.671H83.6889C83.6995 44.8788 83.7209 44.8788 83.7173 44.8859C83.7138 44.893 83.7031 44.9037 83.7031 44.9037C83.696 44.9037 83.6889 44.9037 83.6817 44.9037C83.6746 44.9037 83.6817 44.9037 83.6746 44.9144C83.6675 44.925 83.6604 44.9357 83.6568 44.9321C83.6568 44.9321 83.6568 44.9215 83.6568 44.9179C83.6536 44.915 83.6512 44.9113 83.6497 44.9072V44.893C83.6497 44.893 83.6497 44.893 83.6568 44.893L83.6639 44.8788ZM83.6568 44.8432C83.6568 44.8432 83.6675 44.8432 83.671 44.836L83.6817 44.8254C83.6817 44.8254 83.7102 44.8325 83.7066 44.8396C83.7066 44.8396 83.696 44.8467 83.6924 44.8538C83.6889 44.861 83.6924 44.8538 83.6924 44.861C83.6924 44.861 83.6924 44.8538 83.6853 44.8503C83.6782 44.8467 83.6764 44.8467 83.6728 44.8432H83.6568ZM88.7685 49.1399C88.765 49.0806 88.765 49.0212 88.7685 48.9619V49.0651C88.7846 49.0963 88.7846 49.139 88.7846 49.139L88.7685 49.1399Z" fill="#EF9000"/>
</g>
</g>
</g>
<defs>
<clipPath id="clip0_2023_12811">
<rect width="116.56" height="116.56" fill="white" transform="translate(0.941406)"/>
</clipPath>
<clipPath id="clip1_2023_12811">
<rect width="116.56" height="116.56" fill="white" transform="translate(0.941406)"/>
</clipPath>
<clipPath id="clip2_2023_12811">
<rect width="116.56" height="61.2999" fill="white" transform="translate(0.941406 27.6301)"/>
</clipPath>
</defs>
</svg>
