<svg width="983" height="518" viewBox="0 0 983 518" fill="none" xmlns="http://www.w3.org/2000/svg">
<path fill-rule="evenodd" clip-rule="evenodd" d="M1013.86 479.267C1013.86 479.267 1013.86 479.267 1013.86 479.267H1.22898L1013.86 479.267ZM366.702 303.424C391.203 267.82 415.835 235.246 437.224 230.606C460.655 225.24 489.146 240.537 517.077 255.533C520.269 257.247 523.453 258.957 526.622 260.631C522.837 269.733 519.029 279.179 515.213 288.746C528.623 282.532 541.933 277.137 554.523 274.243C534.873 278.76 513.469 289.369 492.668 299.679L492.666 299.68C472.978 309.439 453.83 318.929 437.224 322.732C416.867 328.032 393.572 348.674 370.248 369.342C350.868 386.515 331.468 403.704 313.718 412.125C331.468 403.704 350.867 386.514 370.246 369.342C375.789 364.43 381.331 359.52 386.832 354.816C380.158 338.688 373.425 321.155 366.702 303.424ZM628.167 238.269C636.795 225.489 645.538 210.99 654.244 196.552C679.569 154.552 704.581 113.071 725.543 115.952C749.252 119.038 776.283 179.081 803.098 238.646C810.271 254.578 817.428 270.475 824.502 285.24C815.084 296.838 805.518 310.42 795.966 323.984C771.517 358.699 747.151 393.298 725.543 394.236C713.671 394.236 700.498 384.901 686.706 371.399C677.492 352.082 668.002 329.624 658.438 306.989C648.351 283.119 638.181 259.053 628.167 238.269Z" fill="url(#paint0_linear_2023_13313)"/>
<path fill-rule="evenodd" clip-rule="evenodd" d="M686.708 371.403C675.853 360.777 664.614 347.571 653.322 334.301C627.972 304.512 602.353 274.408 580.211 272.486C560.928 269.837 538.218 278.085 515.214 288.746C538.218 231.071 560.928 177.792 580.211 177.792C603.844 177.792 631.438 243.092 658.438 306.989C668.003 329.625 677.494 352.085 686.708 371.403ZM365.909 373.182C339.66 396.387 313.603 418.42 291.891 417.426C270.446 416.495 246.282 389.128 222.018 361.646C218.567 357.737 215.114 353.826 211.666 349.988C239.353 327.805 267.395 307.682 291.891 308.745C312.472 310.631 336.957 339.294 361.81 368.387C363.175 369.986 364.542 371.586 365.909 373.182Z" fill="url(#paint1_linear_2023_13313)"/>
<path d="M870.875 253.01C913.068 258.805 1013.86 479 1013.86 479H1.229C1.229 479 104.368 309.025 146.561 305.162C191.098 299.367 247.355 415.259 291.892 417.191C334.085 419.122 392.687 334.135 437.224 322.545C479.417 312.888 538.019 266.531 580.212 272.326C624.749 276.189 683.35 394.012 725.543 394.012C770.081 392.081 826.338 247.216 870.875 253.01Z" fill="url(#paint2_linear_2023_13313)"/>
<path d="M1013.86 479C1013.86 479 913.068 258.805 870.875 253.01C826.338 247.216 770.081 392.081 725.543 394.012C683.35 394.012 624.749 276.189 580.212 272.326C538.019 266.531 479.417 312.888 437.224 322.545C392.687 334.135 334.085 419.122 291.892 417.191C247.355 415.259 191.098 299.367 146.561 305.162C104.368 309.025 1.229 479 1.229 479" stroke="url(#paint3_linear_2023_13313)"/>
<circle cx="6.35278" cy="6.35278" r="6.35278" transform="matrix(-1 0 0 1 587.704 265.392)" fill="#9B59B6"/>
<path d="M1013.86 479C1013.86 479 913.068 407.496 870.875 403.631C826.338 399.766 770.081 444.214 725.543 426.821C683.35 409.428 624.749 177.523 580.212 177.523C538.019 177.523 479.417 432.619 437.224 430.686C392.687 428.754 334.085 311.975 291.892 308.11C247.355 306.178 191.098 374.642 146.561 397.833C104.368 422.956 1.22902 479 1.22902 479" stroke="url(#paint4_linear_2023_13313)"/>
<circle cx="6.35278" cy="6.35278" r="6.35278" transform="matrix(-1 0 0 1 587.704 171.968)" fill="#1ABC9C"/>
<path d="M1013.86 479C1013.86 479 913.068 382.394 870.875 355.345C826.338 328.295 770.081 121.559 725.543 115.762C683.35 109.966 624.749 283.856 580.212 279.992C538.019 278.06 479.417 220.628 437.224 230.288C392.687 239.949 334.085 370.802 291.892 397.851C247.355 424.901 191.098 430.697 146.561 436.493C104.368 442.29 1.22902 479 1.22902 479" stroke="url(#paint5_linear_2023_13313)"/>
<circle cx="6.35278" cy="6.35278" r="6.35278" transform="matrix(-1 0 0 1 730.389 109.492)" fill="#3498DB"/>
<circle cx="6.35278" cy="6.35278" r="6.35278" transform="matrix(-1 0 0 1 587.704 273.122)" fill="#3498DB"/>
<circle cx="6.35278" cy="6.35278" r="6.35278" transform="matrix(-1 0 0 1 156.493 297.609)" fill="#9B59B6"/>
<circle cx="6.35278" cy="6.35278" r="6.35278" transform="matrix(-1 0 0 1 156.493 390.371)" fill="#1ABC9C"/>
<circle cx="6.35278" cy="6.35278" r="6.35278" transform="matrix(-1 0 0 1 156.493 429.021)" fill="#3498DB"/>
<defs>
<linearGradient id="paint0_linear_2023_13313" x1="507.546" y1="115.81" x2="506.129" y2="350.03" gradientUnits="userSpaceOnUse">
<stop stop-color="#149CF5" stop-opacity="0.16"/>
<stop offset="1" stop-color="#149CF5" stop-opacity="0"/>
</linearGradient>
<linearGradient id="paint1_linear_2023_13313" x1="449.187" y1="178.63" x2="449.187" y2="417.378" gradientUnits="userSpaceOnUse">
<stop stop-color="#A4E05E" stop-opacity="0.16"/>
<stop offset="1" stop-color="#A4E05E" stop-opacity="0"/>
</linearGradient>
<linearGradient id="paint2_linear_2023_13313" x1="507.546" y1="252.841" x2="507.546" y2="479" gradientUnits="userSpaceOnUse">
<stop stop-color="#9C27B0" stop-opacity="0.16"/>
<stop offset="1" stop-color="#9C27B0" stop-opacity="0"/>
</linearGradient>
<linearGradient id="paint3_linear_2023_13313" x1="507.546" y1="277.136" x2="507.546" y2="479" gradientUnits="userSpaceOnUse">
<stop stop-color="#863BA6"/>
<stop offset="1" stop-color="#9B59B6" stop-opacity="0"/>
</linearGradient>
<linearGradient id="paint4_linear_2023_13313" x1="507.546" y1="158.184" x2="507.546" y2="479" gradientUnits="userSpaceOnUse">
<stop stop-color="#16A085"/>
<stop offset="1" stop-color="#1ABC9C" stop-opacity="0"/>
</linearGradient>
<linearGradient id="paint5_linear_2023_13313" x1="507.546" y1="115.621" x2="507.546" y2="479" gradientUnits="userSpaceOnUse">
<stop stop-color="#1970A9"/>
<stop offset="1" stop-color="#3498DB" stop-opacity="0"/>
</linearGradient>
</defs>
</svg>
