<svg width="148" height="24" viewBox="0 0 148 24" fill="none" xmlns="http://www.w3.org/2000/svg">
<g clip-path="url(#clip0_44_37406)">
<path d="M47.249 18.9949V7.23167H50.3172V18.9949H47.249ZM50.2019 5.34335C49.8404 5.69139 49.3905 5.86541 48.8523 5.86541C48.3217 5.86541 47.868 5.69139 47.4911 5.34335C47.1221 4.9953 46.9375 4.56579 46.9375 4.05483C46.9375 3.53648 47.1221 3.09956 47.4911 2.74411C47.868 2.38866 48.3217 2.21094 48.8523 2.21094C49.3905 2.21094 49.8404 2.38866 50.2019 2.74411C50.5633 3.09956 50.744 3.53648 50.744 4.05483C50.744 4.56579 50.5633 4.9953 50.2019 5.34335ZM53.0597 18.9949V7.23167H55.9896V8.53129C56.3048 8.02773 56.7778 7.63526 57.4083 7.35385C58.0389 7.06506 58.7003 6.92066 59.3923 6.92066C60.7919 6.92066 61.8954 7.34275 62.7029 8.18695C63.518 9.02373 63.9255 10.2012 63.9255 11.7192V18.9949H60.8573L60.8803 12.4191C60.8803 11.5971 60.6727 10.9528 60.2575 10.4863C59.8499 10.0197 59.277 9.78647 58.5388 9.78647C57.8006 9.78647 57.2122 10.0568 56.7739 10.5973C56.3434 11.1305 56.128 11.8303 56.128 12.6967V18.9949H53.0597ZM74.6501 18.3839C73.6582 19.006 72.4162 19.317 70.9244 19.317C69.4402 19.317 68.2214 19.006 67.2678 18.3839C66.3143 17.7619 65.8376 16.7362 65.8376 15.307H68.8481C68.9097 16.3364 69.6248 16.851 70.9936 16.851C71.7472 16.851 72.2816 16.7696 72.5969 16.6067C72.9123 16.4364 73.0698 16.1808 73.0698 15.8403C73.0698 15.4996 72.9507 15.2627 72.7123 15.1294C72.4816 14.9887 71.9778 14.7924 71.2012 14.5406L69.2172 13.9186C68.4405 13.7038 67.7292 13.3595 67.0833 12.8855C66.445 12.4042 66.1298 11.6896 66.1375 10.7417C66.1451 9.80128 66.3951 9.04225 66.8871 8.46464C67.7715 7.44272 69.1557 6.92806 71.0398 6.92066C72.4393 6.92066 73.589 7.22057 74.4887 7.82039C75.3883 8.4128 75.8459 9.36808 75.8613 10.6862H72.8622C72.8468 10.2641 72.67 9.94568 72.3316 9.73093C71.9933 9.50878 71.5395 9.3977 70.9705 9.3977C69.8555 9.3977 69.2941 9.71612 69.2864 10.353C69.2864 10.5825 69.3749 10.7714 69.5517 10.9195C69.7285 11.0676 70.0439 11.2194 70.4976 11.3749L73.0929 12.1968C74.1003 12.5301 74.8578 12.9411 75.3653 13.4298C75.8805 13.9112 76.1381 14.5999 76.1381 15.4959C76.1381 16.7993 75.6422 17.7619 74.6501 18.3839ZM78.2462 18.9949V7.23167H81.3145V18.9949H78.2462ZM81.1991 5.34335C80.8378 5.69139 80.3879 5.86541 79.8496 5.86541C79.3189 5.86541 78.8652 5.69139 78.4884 5.34335C78.1193 4.9953 77.9348 4.56579 77.9348 4.05483C77.9348 3.53648 78.1193 3.09956 78.4884 2.74411C78.8652 2.38866 79.3189 2.21094 79.8496 2.21094C80.3879 2.21094 80.8378 2.38866 81.1991 2.74411C81.5605 3.09956 81.7412 3.53648 81.7412 4.05483C81.7412 4.56579 81.5605 4.9953 81.1991 5.34335ZM87.2752 15.5515C87.7751 16.166 88.4556 16.4734 89.3169 16.4734C90.1859 16.4734 90.851 16.166 91.3123 15.5515C91.7815 14.9368 92.0161 14.1037 92.0161 13.0522C92.0161 12.0006 91.7699 11.1712 91.2779 10.564C90.7933 9.94939 90.1281 9.64207 89.2823 9.64207C88.4364 9.64207 87.7673 9.94568 87.2752 10.5529C86.783 11.1601 86.537 11.9895 86.537 13.041C86.537 14.0926 86.783 14.9294 87.2752 15.5515ZM92.0852 7.23167H94.992V19.1725C94.992 20.824 94.5921 22.0273 93.7924 22.7826C93.0003 23.5454 91.7853 23.9267 90.1474 23.9267H85.1644V21.4052H89.3285C90.2742 21.4052 90.9433 21.2312 91.3355 20.8832C91.7276 20.5352 91.9237 19.9279 91.9237 19.0615V17.8618C91.0856 18.743 90.0359 19.18 88.7747 19.1725C87.1752 19.1725 85.891 18.6246 84.9221 17.5286C83.9532 16.4474 83.4687 14.9738 83.4687 13.1077C83.4687 11.2416 83.9686 9.74574 84.9683 8.62015C85.9679 7.48715 87.1944 6.92066 88.6479 6.92066C90.1013 6.92066 91.247 7.44272 92.0852 8.48686V7.23167ZM97.7114 18.9949V2.68857H100.757L100.78 8.32023C101.495 7.37978 102.56 6.90955 103.975 6.90955C105.39 6.90955 106.509 7.32423 107.332 8.15362C108.162 8.98301 108.577 10.1382 108.577 11.6192V18.9949H105.509L105.532 12.4191C105.532 11.5971 105.321 10.9528 104.898 10.4863C104.482 10.0197 103.906 9.78647 103.167 9.78647C102.222 9.78647 101.545 10.1938 101.137 11.0083C100.899 11.4749 100.78 12.0599 100.78 12.7634V18.9949H97.7114ZM116.026 18.9949C114.78 18.9949 113.834 18.7839 113.188 18.3618C112.542 17.9323 112.219 17.1028 112.219 15.8736V9.89755H110.051V7.23167H112.219V3.91043H115.288V7.23167H118.126V9.89755H115.288V15.2182C115.288 15.6403 115.38 15.9403 115.565 16.1179C115.749 16.2882 116.084 16.3734 116.568 16.3734H118.126V18.9949H116.026ZM127.547 19.3836C125.093 19.3836 123.167 18.6283 121.767 17.1176C120.376 15.607 119.68 13.5779 119.68 11.0306C119.68 8.48315 120.403 6.40229 121.849 4.78796C123.302 3.17361 125.194 2.36645 127.523 2.36645C130.807 2.35904 132.987 3.56239 134.063 5.97649C134.363 6.64295 134.552 7.36497 134.629 8.14251H131.352C131.146 7.32054 130.726 6.65777 130.096 6.15422C129.465 5.64326 128.627 5.38778 127.581 5.38778C126.536 5.38778 125.663 5.66547 124.962 6.22086C123.709 7.21316 123.083 8.77936 123.083 10.9195C123.083 12.4227 123.436 13.7038 124.144 14.7628C124.851 15.8217 126.001 16.3512 127.593 16.3512C129.7 16.3512 130.96 15.4292 131.376 13.5853H134.651C134.429 15.2515 133.66 16.6363 132.345 17.7397C131.038 18.8356 129.438 19.3836 127.547 19.3836ZM139.886 15.6625C140.401 16.2772 141.097 16.5845 141.973 16.5845C142.85 16.5845 143.542 16.2734 144.05 15.6513C144.558 15.0294 144.812 14.1852 144.812 13.1188C144.812 12.0525 144.554 11.212 144.038 10.5973C143.531 9.9753 142.843 9.66429 141.973 9.66429C141.112 9.66429 140.42 9.9716 139.897 10.5862C139.382 11.2009 139.124 12.0487 139.124 13.13C139.124 14.2037 139.378 15.0478 139.886 15.6625ZM146.253 17.5397C145.169 18.7246 143.738 19.317 141.963 19.317C140.186 19.317 138.756 18.7394 137.672 17.5842C136.594 16.4289 136.057 14.959 136.057 13.1743C136.057 11.3823 136.603 9.89385 137.694 8.70901C138.787 7.51677 140.217 6.92066 141.985 6.92066C143.762 6.92066 145.189 7.49826 146.265 8.65347C147.349 9.80128 147.891 11.2712 147.891 13.0633C147.891 14.8554 147.345 16.3475 146.253 17.5397Z" fill="black"/>
<mask id="mask0_44_37406" style="mask-type:luminance" maskUnits="userSpaceOnUse" x="0" y="0" width="37" height="19">
<path d="M36.3799 0H0V18.9953H36.3799V0Z" fill="white"/>
</mask>
<g mask="url(#mask0_44_37406)">
<mask id="mask1_44_37406" style="mask-type:luminance" maskUnits="userSpaceOnUse" x="0" y="0" width="37" height="19">
<path d="M36.3799 0H0V18.9953H36.3799V0Z" fill="white"/>
</mask>
<g mask="url(#mask1_44_37406)">
<path fill-rule="evenodd" clip-rule="evenodd" d="M12.1092 1.44309C14.4891 0.490362 17.0398 0 19.6158 0V9.53488C20.9065 9.53488 22.1843 9.77958 23.3764 10.255C24.5688 10.7305 25.6522 11.4272 26.5646 12.3056C27.4773 13.1842 28.2011 14.2271 28.695 15.3749C29.1888 16.5227 29.443 17.7528 29.443 18.9953H19.6158V9.53689C18.3357 9.53689 17.0681 9.78061 15.8855 10.254C14.7028 10.7274 13.6282 11.4214 12.7229 12.2962C11.8178 13.1711 11.0998 14.2097 10.6098 15.3527C10.12 16.4957 9.86781 17.7208 9.86781 18.958H0C0 16.4684 0.507378 14.0031 1.49317 11.7031C2.47896 9.40303 3.92384 7.31308 5.74535 5.55267C7.56685 3.79226 9.72931 2.39583 12.1092 1.44309ZM36.3799 18.9953C36.3799 17.7528 36.1266 16.5227 35.6348 15.375C35.1429 14.2271 34.4219 13.1842 33.513 12.3057C32.6039 11.4273 31.5247 10.7305 30.3373 10.2551C30.044 10.1377 29.7456 10.0343 29.443 9.94532V18.9953H36.3799Z" fill="black"/>
</g>
</g>
</g>
<defs>
<clipPath id="clip0_44_37406">
<rect width="148" height="24" fill="white"/>
</clipPath>
</defs>
</svg>
