<svg width="43" height="43" viewBox="0 0 43 43" fill="none" xmlns="http://www.w3.org/2000/svg">
<path d="M43 -1.08216e-06C27.7711 1.34375 3.57293 7.92365 3.56994 27.9515C3.57144 28.2292 3.57292 43 3.57292 43H1.27365e-06C1.27365e-06 43 1.27365e-06 28.1187 1.27365e-06 27.9216C1.27365e-06 6.71875 26.8753 -1.08216e-06 43 -1.08216e-06" fill="black"/>
<path d="M43 -1.08216e-06C33.2851 2.71288 11.0947 10.3021 11.0947 27.9694V43H7.56157V28.7742C7.55272 28.48 7.54386 28.1993 7.54386 27.9172C7.54386 8.0625 31.4887 2.23958 43 -1.08216e-06" fill="black"/>
<path d="M43 -1.08216e-06C35.4214 3.60871 17.9029 14.5498 17.9029 28.7742V43H14.3333V27.9694C14.3333 11.1979 37.6323 1.79167 43 -1.08216e-06Z" fill="black"/>
<path d="M43 -1.08216e-06C35.7534 5.40038 24.7501 17.418 24.7501 27.9694V43H21.1228V27.9694C21.1228 14.7813 37.117 3.60871 43 -1.08216e-06Z" fill="black"/>
<path d="M43 -1.08216e-06C39.4616 4.05663 32.2219 16.1504 32.2219 27.7708V43H28.6667C28.6667 43 28.7691 34.3164 28.7691 27.7962C28.7691 16.6237 38.125 4.50455 43 -1.08216e-06Z" fill="black"/>
<path d="M43 -1.08216e-06C40.2352 5.8483 39.3047 12.567 39.1684 26.9004C39.0423 40.1393 39.1684 43 39.1684 43H35.4561V26.9004C35.4561 16.552 39.3047 5.40038 43 -1.08216e-06" fill="black"/>
</svg>
