<svg width="43" height="43" viewBox="0 0 43 43" fill="none" xmlns="http://www.w3.org/2000/svg">
<path d="M0.00012696 13.7311L7.94971 -1.25079e-05H6.80798L0.00012696 11.7592V13.7311Z" fill="black"/>
<path d="M1.27526e-05 18.7899L10.479 3.27703e-07H9.24145L1.27526e-05 16.5707V18.7899" fill="black"/>
<path d="M40.4706 43H42.713L43 42.5076V38.6639L40.4706 43" fill="black"/>
<path d="M2.16797 -5.8615e-05H1.31561L-9.86783e-05 2.41167V3.97473L2.16797 -5.8615e-05Z" fill="black"/>
<path d="M0.000274811 8.67224L4.69775 -2.87225e-05H3.76883L0.000274811 6.95649V8.67224Z" fill="black"/>
<path d="M-9.86783e-05 40.5887L1.31561 43H2.16797L-9.86783e-05 39.0252V40.5887Z" fill="black"/>
<path d="M43 0.492434L42.713 4.66429e-05H40.4706L43 4.33618V0.492434Z" fill="black"/>
<path d="M26.7396 43H28.3468L40.1094 21.5L28.3468 -5.66244e-07H26.7396L38.5015 21.5L26.7396 43Z" fill="black"/>
<path d="M29.2689 43H31.0379L43 21.5314V21.4686L31.0379 -5.66244e-07H29.2689L41.2484 21.5L29.2689 43Z" fill="black"/>
<path d="M35.7266 21.5L23.849 43H25.3411L37.2188 21.5L25.3411 -5.66244e-07H23.849L35.7266 21.5Z" fill="black"/>
<path d="M43 16.4213L34.3419 7.38165e-05H32.521L43 19.874V16.4213Z" fill="black"/>
<path d="M43 5.82576L39.7636 4.50007e-05H37.5798L43 9.75635V5.82576" fill="black"/>
<path d="M43 10.8518L36.7603 -4.67833e-05H34.6891L43 14.4537V10.8518Z" fill="black"/>
<path d="M11.2471 42.2773L11.9243 41.0349L1.28323 21.5L11.9243 1.96512L11.2471 0.722724L-5.34104e-05 21.3709V21.6292L11.2471 42.2773Z" fill="black"/>
<path d="M18.79 14.5064L17.7866 12.647L13.0085 21.5L17.7866 30.3529L18.79 28.4935L15.016 21.5L18.79 14.5064" fill="black"/>
<path d="M20.2358 17.0691L19.2145 15.1764L15.8997 21.3193L19.2145 27.4622L20.2358 25.5695L17.9424 21.3193L20.2358 17.0691Z" fill="black"/>
<path d="M19.6146 -5.66244e-07H18.4286L29.8897 21.5L18.4286 43H19.6146L31.0757 21.5L19.6146 -5.66244e-07Z" fill="black"/>
<path d="M43 23.1261L32.521 43H34.3419L43 26.5787V23.1261Z" fill="black"/>
<path d="M22.3325 -5.66244e-07H20.9584L32.954 21.5L20.9584 43H22.3325L34.3281 21.5L22.3325 -5.66244e-07Z" fill="black"/>
<path d="M16.9692 -5.66244e-07H15.8988L27.4755 21.5L15.8988 43H16.9692L28.5459 21.5L16.9692 -5.66244e-07Z" fill="black"/>
<path d="M13.6531 -5.66244e-07H12.6469L25.0104 21.5L12.6469 43H13.6531L26.0166 21.5L13.6531 -5.66244e-07Z" fill="black"/>
<path d="M17.7056 12.1781L16.74 10.479L10.4787 21.5L16.74 32.521L17.7056 30.8219L12.4098 21.5L17.7056 12.1781" fill="black"/>
<path d="M20.5961 17.7058L18.428 21.4999L20.5961 25.2941L22.7642 21.4999L20.5961 17.7058Z" fill="black"/>
<path d="M43 28.5462L34.6891 43H36.7603L43 32.1486V28.5462Z" fill="black"/>
<path d="M0.00012696 30.9313L6.80798 43H7.94971L0.00012696 28.9076V30.9313Z" fill="black"/>
<path d="M43 33.2437L37.5798 43H39.7636L43 37.1743V33.2437Z" fill="black"/>
<path d="M0.000274811 36.0435L3.76883 43H4.69775L0.000274811 34.3277V36.0435Z" fill="black"/>
<path d="M1.27526e-05 26.4293L9.24145 43H10.479L1.27526e-05 24.2101V26.4293" fill="black"/>
<path d="M14.4541 7.23983L13.687 5.78153L5.42049 21.5L13.687 37.2185L14.4541 35.7602L6.95527 21.5L14.4541 7.23983Z" fill="black"/>
<path d="M16.2603 9.86779L15.3826 8.31093L7.94933 21.5L15.3826 34.6891L16.2603 33.1322L9.70465 21.5L16.2603 9.86779Z" fill="black"/>
<path d="M13.0083 4.2566L12.2851 2.89078L2.52931 21.3194L12.2851 39.7479L13.0083 38.3821L3.97633 21.3194L13.0083 4.2566Z" fill="black"/>
</svg>
