<svg width="43" height="43" viewBox="0 0 43 43" fill="none" xmlns="http://www.w3.org/2000/svg">
<path d="M22.2414 43C22.2414 31.5355 31.5353 22.2414 43 22.2414H32.6207C26.8883 22.2414 22.2414 26.888 22.2414 32.6207V43Z" fill="black"/>
<path d="M0.000167668 22.2414C11.4647 22.2414 20.7588 31.5355 20.7588 43V32.6207C20.7588 26.888 16.1122 22.2414 10.3795 22.2414H0.000167668Z" fill="black"/>
<path d="M20.7588 -2.90275e-05C20.7588 11.055 11.4647 20.0172 0.000167668 20.0172H10.3795C16.1122 20.0172 20.7588 15.5366 20.7588 10.0086V-2.90275e-05Z" fill="black"/>
<path d="M43 20.0172C31.5353 20.0172 22.2414 11.055 22.2414 -2.90275e-05V10.0086C22.2414 15.5366 26.8883 20.0172 32.6207 20.0172H43Z" fill="black"/>
</svg>
