<svg width="42" height="42" viewBox="0 0 42 42" fill="none" xmlns="http://www.w3.org/2000/svg">
<path d="M-0.00166985 42V35L6.38965 28V42H-0.00166985Z" fill="black"/>
<path d="M28.303 42V35L34.6943 28V42H28.303Z" fill="black"/>
<path d="M13.6947 42V35L20.999 28V42H13.6947Z" fill="black"/>
<path d="M28.303 -1.60336e-05V6.53332L34.6943 13.0667V-1.60336e-05H28.303Z" fill="black"/>
<path d="M13.6947 -1.60336e-05V6.53332L20.999 13.0667V-1.60336e-05H13.6947Z" fill="black"/>
<path d="M-0.00166985 -1.60336e-05V6.53332L6.38965 13.0667V-1.60336e-05H-0.00166985Z" fill="black"/>
<path d="M13.6943 35.4667L6.38997 28L13.6943 20.5333V35.4667Z" fill="black"/>
<path d="M13.6943 20.5333L6.38997 13.5333L13.6943 6.53333V20.5333Z" fill="black"/>
<path d="M28.3027 35.4667L20.9984 28L28.3027 20.5333V35.4667Z" fill="black"/>
<path d="M34.6943 28L28.303 20.5333L34.6943 13.0667V28Z" fill="black"/>
<path d="M41.9985 35.4667L34.6942 28L41.9985 20.5333V35.4667Z" fill="black"/>
<path d="M41.9985 20.5333L34.6942 13.5333L41.9985 6.53333V20.5333Z" fill="black"/>
<path d="M6.38965 13.0667V28L-0.00166985 20.5333L6.38965 13.0667Z" fill="black"/>
<path d="M20.999 28L13.6947 20.5333L20.999 13.0667V28Z" fill="black"/>
<path d="M28.3027 20.5333L20.9984 13.5333L28.3027 6.53333V20.5333Z" fill="black"/>
</svg>
