<svg width="979" height="456" viewBox="0 0 979 456" fill="none" xmlns="http://www.w3.org/2000/svg">
<path d="M0.95926 12V11.1855L4.01803 7.83717C4.377 7.44502 4.67262 7.10416 4.90489 6.81457C5.13717 6.52196 5.30911 6.24746 5.42072 5.99105C5.53535 5.73163 5.59267 5.46014 5.59267 5.17659C5.59267 4.8508 5.51424 4.56875 5.35738 4.33045C5.20353 4.09214 4.99237 3.90813 4.7239 3.77842C4.45543 3.64871 4.15378 3.58385 3.81894 3.58385C3.46299 3.58385 3.15228 3.65776 2.88683 3.80557C2.62439 3.95036 2.42077 4.15398 2.27598 4.41642C2.1342 4.67886 2.06331 4.98654 2.06331 5.33948H0.995458C0.995458 4.7965 1.12064 4.31989 1.37102 3.90964C1.62139 3.49939 1.96226 3.17964 2.39362 2.95038C2.82801 2.72112 3.31518 2.60649 3.85514 2.60649C4.39812 2.60649 4.87925 2.72112 5.29855 2.95038C5.71785 3.17964 6.04665 3.48883 6.28496 3.87797C6.52327 4.2671 6.64242 4.69997 6.64242 5.17659C6.64242 5.51746 6.58058 5.85078 6.4569 6.17657C6.33624 6.49934 6.12508 6.85982 5.82343 7.258C5.52479 7.65317 5.11002 8.13581 4.57911 8.70594L2.4977 10.9321V11.0045H6.80531V12H0.95926ZM11.6966 12.1267C11.0149 12.1267 10.4342 11.9412 9.95458 11.5701C9.47495 11.1961 9.10844 10.6546 8.85505 9.94574C8.60166 9.23383 8.47497 8.37412 8.47497 7.36659C8.47497 6.3651 8.60166 5.50991 8.85505 4.80103C9.11146 4.08912 9.47948 3.54615 9.95911 3.1721C10.4418 2.79503 11.0209 2.60649 11.6966 2.60649C12.3723 2.60649 12.95 2.79503 13.4296 3.1721C13.9123 3.54615 14.2803 4.08912 14.5337 4.80103C14.7901 5.50991 14.9183 6.3651 14.9183 7.36659C14.9183 8.37412 14.7916 9.23383 14.5382 9.94574C14.2848 10.6546 13.9183 11.1961 13.4387 11.5701C12.9591 11.9412 12.3784 12.1267 11.6966 12.1267ZM11.6966 11.1312C12.3723 11.1312 12.8972 10.8055 13.2713 10.1539C13.6453 9.5023 13.8323 8.57321 13.8323 7.36659C13.8323 6.56419 13.7464 5.88095 13.5744 5.31686C13.4055 4.75276 13.1612 4.32291 12.8414 4.02728C12.5247 3.73166 12.1431 3.58385 11.6966 3.58385C11.027 3.58385 10.5036 3.91416 10.1265 4.57479C9.74946 5.23239 9.56092 6.16299 9.56092 7.36659C9.56092 8.16899 9.64539 8.85073 9.81431 9.41181C9.98324 9.97288 10.2261 10.3997 10.5428 10.6923C10.8626 10.9849 11.2472 11.1312 11.6966 11.1312ZM19.6603 12.1267C18.9786 12.1267 18.3979 11.9412 17.9182 11.5701C17.4386 11.1961 17.0721 10.6546 16.8187 9.94574C16.5653 9.23383 16.4386 8.37412 16.4386 7.36659C16.4386 6.3651 16.5653 5.50991 16.8187 4.80103C17.0751 4.08912 17.4431 3.54615 17.9228 3.1721C18.4054 2.79503 18.9846 2.60649 19.6603 2.60649C20.336 2.60649 20.9137 2.79503 21.3933 3.1721C21.8759 3.54615 22.244 4.08912 22.4974 4.80103C22.7538 5.50991 22.882 6.3651 22.882 7.36659C22.882 8.37412 22.7553 9.23383 22.5019 9.94574C22.2485 10.6546 21.882 11.1961 21.4024 11.5701C20.9227 11.9412 20.342 12.1267 19.6603 12.1267ZM19.6603 11.1312C20.336 11.1312 20.8609 10.8055 21.2349 10.1539C21.609 9.5023 21.796 8.57321 21.796 7.36659C21.796 6.56419 21.71 5.88095 21.5381 5.31686C21.3692 4.75276 21.1248 4.32291 20.8051 4.02728C20.4883 3.73166 20.1067 3.58385 19.6603 3.58385C18.9906 3.58385 18.4673 3.91416 18.0902 4.57479C17.7131 5.23239 17.5246 6.16299 17.5246 7.36659C17.5246 8.16899 17.6091 8.85073 17.778 9.41181C17.9469 9.97288 18.1897 10.3997 18.5065 10.6923C18.8262 10.9849 19.2108 11.1312 19.6603 11.1312Z" fill="black" fill-opacity="0.4"/>
<path d="M5.71712 51.68V60.9468H4.59497V52.8564H4.54067L2.27827 54.3587V53.2184L4.59497 51.68H5.71712ZM8.67182 60.9468L12.8166 52.7478V52.6754H8.03835V51.68H13.9749V52.7297L9.84827 60.9468H8.67182ZM18.433 61.0735C17.9021 61.0735 17.4239 60.9679 16.9986 60.7567C16.5733 60.5456 16.2324 60.256 15.976 59.888C15.7196 59.52 15.5793 59.1007 15.5552 58.6301H16.6411C16.6834 59.0494 16.8734 59.3963 17.2113 59.6708C17.5521 59.9423 17.9594 60.078 18.433 60.078C18.8131 60.078 19.1509 59.989 19.4465 59.8111C19.7452 59.6331 19.9789 59.3887 20.1479 59.078C20.3198 58.7643 20.4058 58.4099 20.4058 58.0147C20.4058 57.6105 20.3168 57.25 20.1388 56.9333C19.9639 56.6135 19.7225 56.3616 19.4149 56.1776C19.1072 55.9936 18.7557 55.9001 18.3606 55.8971C18.077 55.8941 17.7859 55.9378 17.4873 56.0283C17.1886 56.1158 16.9428 56.2289 16.7497 56.3677L15.7 56.241L16.2611 51.68H21.0755V52.6754H17.2022L16.8764 55.4084H16.9307C17.1208 55.2576 17.3591 55.1324 17.6457 55.0329C17.9322 54.9333 18.2309 54.8835 18.5416 54.8835C19.1087 54.8835 19.6139 55.0193 20.0574 55.2908C20.5038 55.5592 20.8537 55.9273 21.1071 56.3948C21.3635 56.8624 21.4917 57.3963 21.4917 57.9966C21.4917 58.5878 21.359 59.1157 21.0936 59.5803C20.8311 60.0418 20.4691 60.4068 20.0076 60.6753C19.5461 60.9407 19.0212 61.0735 18.433 61.0735Z" fill="black" fill-opacity="0.4"/>
<path d="M5.21712 100.627V109.894H4.09497V101.803H4.04067L1.77827 103.306V102.165L4.09497 100.627H5.21712ZM10.7781 110.02C10.2472 110.02 9.76908 109.915 9.34375 109.704C8.91842 109.493 8.57755 109.203 8.32114 108.835C8.06474 108.467 7.92447 108.048 7.90034 107.577H8.98629C9.02852 107.996 9.21856 108.343 9.55642 108.618C9.89729 108.889 10.3045 109.025 10.7781 109.025C11.1582 109.025 11.4961 108.936 11.7917 108.758C12.0903 108.58 12.3241 108.336 12.493 108.025C12.665 107.711 12.7509 107.357 12.7509 106.962C12.7509 106.558 12.6619 106.197 12.484 105.88C12.309 105.561 12.0677 105.309 11.76 105.125C11.4523 104.941 11.1009 104.847 10.7057 104.844C10.4222 104.841 10.1311 104.885 9.83243 104.975C9.53379 105.063 9.28794 105.176 9.09489 105.315L8.04513 105.188L8.60621 100.627H13.4206V101.622H9.54737L9.22158 104.355H9.27588C9.46592 104.205 9.70423 104.079 9.9908 103.98C10.2774 103.88 10.576 103.831 10.8867 103.831C11.4538 103.831 11.9591 103.966 12.4025 104.238C12.849 104.506 13.1989 104.874 13.4523 105.342C13.7087 105.809 13.8369 106.343 13.8369 106.944C13.8369 107.535 13.7042 108.063 13.4387 108.527C13.1763 108.989 12.8143 109.354 12.3527 109.622C11.8912 109.888 11.3663 110.02 10.7781 110.02ZM18.6569 110.02C17.9752 110.02 17.3945 109.835 16.9149 109.464C16.4353 109.09 16.0687 108.548 15.8154 107.84C15.562 107.128 15.4353 106.268 15.4353 105.26C15.4353 104.259 15.562 103.404 15.8154 102.695C16.0718 101.983 16.4398 101.44 16.9194 101.066C17.4021 100.689 17.9812 100.5 18.6569 100.5C19.3326 100.5 19.9103 100.689 20.3899 101.066C20.8726 101.44 21.2406 101.983 21.494 102.695C21.7504 103.404 21.8786 104.259 21.8786 105.26C21.8786 106.268 21.7519 107.128 21.4985 107.84C21.2451 108.548 20.8786 109.09 20.399 109.464C19.9194 109.835 19.3387 110.02 18.6569 110.02ZM18.6569 109.025C19.3326 109.025 19.8575 108.699 20.2316 108.048C20.6056 107.396 20.7927 106.467 20.7927 105.26C20.7927 104.458 20.7067 103.775 20.5347 103.211C20.3658 102.647 20.1215 102.217 19.8017 101.921C19.485 101.625 19.1034 101.478 18.6569 101.478C17.9873 101.478 17.4639 101.808 17.0868 102.469C16.7098 103.126 16.5212 104.057 16.5212 105.26C16.5212 106.063 16.6057 106.745 16.7746 107.306C16.9435 107.867 17.1864 108.294 17.5031 108.586C17.8229 108.879 18.2075 109.025 18.6569 109.025Z" fill="black" fill-opacity="0.4"/>
<path d="M5.21712 149.574V158.841H4.09497V150.75H4.04067L1.77827 152.252V151.112L4.09497 149.574H5.21712ZM7.88224 158.841V158.026L10.941 154.678C11.3 154.286 11.5956 153.945 11.8279 153.655C12.0601 153.363 12.2321 153.088 12.3437 152.832C12.4583 152.572 12.5156 152.301 12.5156 152.017C12.5156 151.691 12.4372 151.409 12.2804 151.171C12.1265 150.933 11.9154 150.749 11.6469 150.619C11.3784 150.489 11.0768 150.424 10.7419 150.424C10.386 150.424 10.0753 150.498 9.80981 150.646C9.54737 150.791 9.34375 150.995 9.19896 151.257C9.05718 151.519 8.98629 151.827 8.98629 152.18H7.91843C7.91843 151.637 8.04362 151.16 8.29399 150.75C8.54437 150.34 8.88524 150.02 9.3166 149.791C9.75098 149.562 10.2382 149.447 10.7781 149.447C11.3211 149.447 11.8022 149.562 12.2215 149.791C12.6408 150.02 12.9696 150.329 13.2079 150.719C13.4462 151.108 13.5654 151.541 13.5654 152.017C13.5654 152.358 13.5036 152.691 13.3799 153.017C13.2592 153.34 13.0481 153.7 12.7464 154.099C12.4478 154.494 12.033 154.976 11.5021 155.547L9.42067 157.773V157.845H13.7283V158.841H7.88224ZM18.4929 158.967C17.962 158.967 17.4839 158.862 17.0586 158.651C16.6332 158.439 16.2923 158.15 16.0359 157.782C15.7795 157.414 15.6393 156.994 15.6151 156.524H16.7011C16.7433 156.943 16.9334 157.29 17.2712 157.565C17.6121 157.836 18.0193 157.972 18.4929 157.972C18.873 157.972 19.2109 157.883 19.5065 157.705C19.8051 157.527 20.0389 157.283 20.2078 156.972C20.3798 156.658 20.4657 156.304 20.4657 155.908C20.4657 155.504 20.3767 155.144 20.1988 154.827C20.0238 154.507 19.7825 154.255 19.4748 154.071C19.1671 153.887 18.8157 153.794 18.4205 153.791C18.137 153.788 17.8459 153.832 17.5472 153.922C17.2486 154.01 17.0027 154.123 16.8097 154.261L15.7599 154.135L16.321 149.574H21.1354V150.569H17.2622L16.9364 153.302H16.9907C17.1807 153.151 17.419 153.026 17.7056 152.927C17.9922 152.827 18.2908 152.777 18.6015 152.777C19.1686 152.777 19.6739 152.913 20.1173 153.185C20.5638 153.453 20.9137 153.821 21.1671 154.289C21.4235 154.756 21.5517 155.29 21.5517 155.89C21.5517 156.482 21.419 157.01 21.1535 157.474C20.8911 157.936 20.5291 158.301 20.0675 158.569C19.606 158.835 19.0811 158.967 18.4929 158.967Z" fill="black" fill-opacity="0.4"/>
<path d="M5.21712 198.521V207.787H4.09497V199.697H4.04067L1.77827 201.199V200.059L4.09497 198.521H5.21712ZM10.9048 207.914C10.2231 207.914 9.64239 207.729 9.16276 207.357C8.68313 206.983 8.31662 206.442 8.06323 205.733C7.80984 205.021 7.68314 204.161 7.68314 203.154C7.68314 202.152 7.80984 201.297 8.06323 200.588C8.31963 199.876 8.68765 199.333 9.16728 198.959C9.64993 198.582 10.2291 198.394 10.9048 198.394C11.5805 198.394 12.1582 198.582 12.6378 198.959C13.1205 199.333 13.4885 199.876 13.7419 200.588C13.9983 201.297 14.1265 202.152 14.1265 203.154C14.1265 204.161 13.9998 205.021 13.7464 205.733C13.493 206.442 13.1265 206.983 12.6469 207.357C12.1672 207.729 11.5865 207.914 10.9048 207.914ZM10.9048 206.919C11.5805 206.919 12.1054 206.593 12.4794 205.941C12.8535 205.29 13.0405 204.361 13.0405 203.154C13.0405 202.352 12.9545 201.668 12.7826 201.104C12.6137 200.54 12.3693 200.11 12.0496 199.815C11.7328 199.519 11.3513 199.371 10.9048 199.371C10.2351 199.371 9.71177 199.702 9.3347 200.362C8.95763 201.02 8.7691 201.95 8.7691 203.154C8.7691 203.956 8.85356 204.638 9.02249 205.199C9.19141 205.76 9.43425 206.187 9.75098 206.48C10.0707 206.772 10.4553 206.919 10.9048 206.919ZM18.8685 207.914C18.1867 207.914 17.6061 207.729 17.1264 207.357C16.6468 206.983 16.2803 206.442 16.0269 205.733C15.7735 205.021 15.6468 204.161 15.6468 203.154C15.6468 202.152 15.7735 201.297 16.0269 200.588C16.2833 199.876 16.6513 199.333 17.1309 198.959C17.6136 198.582 18.1928 198.394 18.8685 198.394C19.5442 198.394 20.1218 198.582 20.6015 198.959C21.0841 199.333 21.4521 199.876 21.7055 200.588C21.9619 201.297 22.0901 202.152 22.0901 203.154C22.0901 204.161 21.9634 205.021 21.7101 205.733C21.4567 206.442 21.0902 206.983 20.6105 207.357C20.1309 207.729 19.5502 207.914 18.8685 207.914ZM18.8685 206.919C19.5442 206.919 20.0691 206.593 20.4431 205.941C20.8172 205.29 21.0042 204.361 21.0042 203.154C21.0042 202.352 20.9182 201.668 20.7463 201.104C20.5773 200.54 20.333 200.11 20.0133 199.815C19.6965 199.519 19.3149 199.371 18.8685 199.371C18.1988 199.371 17.6754 199.702 17.2984 200.362C16.9213 201.02 16.7328 201.95 16.7328 203.154C16.7328 203.956 16.8172 204.638 16.9862 205.199C17.1551 205.76 17.3979 206.187 17.7146 206.48C18.0344 206.772 18.419 206.919 18.8685 206.919Z" fill="black" fill-opacity="0.4"/>
<path d="M5.74885 256.734L9.89357 248.535V248.463H5.11537V247.468H11.0519V248.517L6.9253 256.734H5.74885ZM15.51 256.861C14.9791 256.861 14.501 256.755 14.0756 256.544C13.6503 256.333 13.3094 256.044 13.053 255.676C12.7966 255.308 12.6563 254.888 12.6322 254.418H13.7182C13.7604 254.837 13.9504 255.184 14.2883 255.458C14.6292 255.73 15.0364 255.866 15.51 255.866C15.8901 255.866 16.2279 255.777 16.5236 255.599C16.8222 255.421 17.056 255.176 17.2249 254.866C17.3968 254.552 17.4828 254.197 17.4828 253.802C17.4828 253.398 17.3938 253.038 17.2158 252.721C17.0409 252.401 16.7996 252.149 16.4919 251.965C16.1842 251.781 15.8328 251.688 15.4376 251.685C15.154 251.682 14.8629 251.725 14.5643 251.816C14.2657 251.903 14.0198 252.017 13.8268 252.155L12.777 252.029L13.3381 247.468H18.1525V248.463H14.2792L13.9535 251.196H14.0078C14.1978 251.045 14.4361 250.92 14.7227 250.82C15.0092 250.721 15.3079 250.671 15.6186 250.671C16.1857 250.671 16.691 250.807 17.1344 251.078C17.5808 251.347 17.9308 251.715 18.1842 252.182C18.4406 252.65 18.5688 253.184 18.5688 253.784C18.5688 254.375 18.436 254.903 18.1706 255.368C17.9081 255.829 17.5462 256.194 17.0846 256.463C16.6231 256.728 16.0982 256.861 15.51 256.861Z" fill="black" fill-opacity="0.4"/>
<path d="M7.85514 305.808C7.32423 305.808 6.84611 305.702 6.42077 305.491C5.99544 305.28 5.65457 304.99 5.39817 304.622C5.14176 304.254 5.00149 303.835 4.97736 303.364H6.06331C6.10555 303.784 6.29559 304.131 6.63344 304.405C6.97431 304.677 7.38154 304.812 7.85514 304.812C8.23522 304.812 8.57307 304.723 8.8687 304.545C9.16733 304.367 9.40112 304.123 9.57004 303.812C9.74198 303.499 9.82796 303.144 9.82796 302.749C9.82796 302.345 9.73897 301.984 9.56099 301.668C9.38603 301.348 9.14471 301.096 8.83702 300.912C8.52934 300.728 8.17791 300.634 7.78274 300.631C7.49919 300.628 7.20809 300.672 6.90945 300.763C6.61082 300.85 6.36497 300.963 6.17191 301.102L5.12215 300.975L5.68323 296.414H10.4976V297.41H6.62439L6.2986 300.143H6.3529C6.54294 299.992 6.78125 299.867 7.06782 299.767C7.35439 299.668 7.65303 299.618 7.96373 299.618C8.53084 299.618 9.03611 299.754 9.47955 300.025C9.92599 300.294 10.2759 300.662 10.5293 301.129C10.7857 301.597 10.9139 302.131 10.9139 302.731C10.9139 303.322 10.7812 303.85 10.5157 304.315C10.2533 304.776 9.8913 305.141 9.42977 305.41C8.96824 305.675 8.44336 305.808 7.85514 305.808ZM15.734 305.808C15.0522 305.808 14.4715 305.622 13.9919 305.251C13.5123 304.877 13.1458 304.336 12.8924 303.627C12.639 302.915 12.5123 302.055 12.5123 301.048C12.5123 300.046 12.639 299.191 12.8924 298.482C13.1488 297.77 13.5168 297.227 13.9964 296.853C14.4791 296.476 15.0583 296.288 15.734 296.288C16.4097 296.288 16.9873 296.476 17.467 296.853C17.9496 297.227 18.3176 297.77 18.571 298.482C18.8274 299.191 18.9556 300.046 18.9556 301.048C18.9556 302.055 18.8289 302.915 18.5755 303.627C18.3222 304.336 17.9556 304.877 17.476 305.251C16.9964 305.622 16.4157 305.808 15.734 305.808ZM15.734 304.812C16.4097 304.812 16.9345 304.487 17.3086 303.835C17.6826 303.183 17.8697 302.254 17.8697 301.048C17.8697 300.245 17.7837 299.562 17.6118 298.998C17.4428 298.434 17.1985 298.004 16.8787 297.708C16.562 297.413 16.1804 297.265 15.734 297.265C15.0643 297.265 14.5409 297.595 14.1639 298.256C13.7868 298.914 13.5983 299.844 13.5983 301.048C13.5983 301.85 13.6827 302.532 13.8516 303.093C14.0206 303.654 14.2634 304.081 14.5801 304.373C14.8999 304.666 15.2845 304.812 15.734 304.812Z" fill="black" fill-opacity="0.4"/>
<path d="M4.95926 354.628V353.813L8.01803 350.465C8.377 350.073 8.67262 349.732 8.90489 349.442C9.13717 349.15 9.30911 348.875 9.42072 348.619C9.53535 348.36 9.59267 348.088 9.59267 347.805C9.59267 347.479 9.51424 347.197 9.35738 346.958C9.20353 346.72 8.99237 346.536 8.7239 346.406C8.45543 346.277 8.15378 346.212 7.81894 346.212C7.46299 346.212 7.15228 346.286 6.88683 346.433C6.62439 346.578 6.42077 346.782 6.27598 347.044C6.1342 347.307 6.06331 347.614 6.06331 347.967H4.99546C4.99546 347.424 5.12064 346.948 5.37102 346.538C5.62139 346.127 5.96226 345.808 6.39362 345.578C6.82801 345.349 7.31518 345.234 7.85514 345.234C8.39812 345.234 8.87925 345.349 9.29855 345.578C9.71785 345.808 10.0467 346.117 10.285 346.506C10.5233 346.895 10.6424 347.328 10.6424 347.805C10.6424 348.145 10.5806 348.479 10.4569 348.804C10.3362 349.127 10.1251 349.488 9.82343 349.886C9.52479 350.281 9.11002 350.764 8.57911 351.334L6.4977 353.56V353.632H10.8053V354.628H4.95926ZM15.5699 354.755C15.039 354.755 14.5609 354.649 14.1356 354.438C13.7102 354.227 13.3694 353.937 13.113 353.569C12.8566 353.201 12.7163 352.782 12.6922 352.311H13.7781C13.8203 352.731 14.0104 353.077 14.3482 353.352C14.6891 353.623 15.0963 353.759 15.5699 353.759C15.95 353.759 16.2879 353.67 16.5835 353.492C16.8821 353.314 17.1159 353.07 17.2848 352.759C17.4568 352.445 17.5428 352.091 17.5428 351.696C17.5428 351.292 17.4538 350.931 17.2758 350.614C17.1008 350.295 16.8595 350.043 16.5518 349.859C16.2441 349.675 15.8927 349.581 15.4975 349.578C15.214 349.575 14.9229 349.619 14.6243 349.709C14.3256 349.797 14.0798 349.91 13.8867 350.049L12.837 349.922L13.398 345.361H18.2124V346.357H14.3392L14.0134 349.09H14.0677C14.2577 348.939 14.4961 348.814 14.7826 348.714C15.0692 348.614 15.3678 348.565 15.6785 348.565C16.2456 348.565 16.7509 348.7 17.1943 348.972C17.6408 349.24 17.9907 349.608 18.2441 350.076C18.5005 350.544 18.6287 351.077 18.6287 351.678C18.6287 352.269 18.496 352.797 18.2305 353.261C17.9681 353.723 17.6061 354.088 17.1446 354.356C16.683 354.622 16.1582 354.755 15.5699 354.755Z" fill="black" fill-opacity="0.4"/>
<path d="M11.9818 403.701C11.3001 403.701 10.7194 403.516 10.2398 403.145C9.76015 402.771 9.39364 402.229 9.14025 401.52C8.88686 400.809 8.76017 399.949 8.76017 398.941C8.76017 397.94 8.88686 397.085 9.14025 396.376C9.39666 395.664 9.76468 395.121 10.2443 394.747C10.727 394.37 11.3061 394.181 11.9818 394.181C12.6575 394.181 13.2352 394.37 13.7148 394.747C14.1975 395.121 14.5655 395.664 14.8189 396.376C15.0753 397.085 15.2035 397.94 15.2035 398.941C15.2035 399.949 15.0768 400.809 14.8234 401.52C14.57 402.229 14.2035 402.771 13.7239 403.145C13.2443 403.516 12.6636 403.701 11.9818 403.701ZM11.9818 402.706C12.6575 402.706 13.1824 402.38 13.5565 401.729C13.9305 401.077 14.1175 400.148 14.1175 398.941C14.1175 398.139 14.0316 397.456 13.8596 396.892C13.6907 396.327 13.4464 395.898 13.1266 395.602C12.8099 395.306 12.4283 395.159 11.9818 395.159C11.3122 395.159 10.7888 395.489 10.4117 396.149C10.0347 396.807 9.84612 397.738 9.84612 398.941C9.84612 399.744 9.93059 400.425 10.0995 400.987C10.2684 401.548 10.5113 401.974 10.828 402.267C11.1478 402.56 11.5324 402.706 11.9818 402.706Z" fill="black" fill-opacity="0.4"/>
<mask id="path-10-inside-1_95_5182" fill="white">
<path d="M40.9883 354.295H978.999V404.908H40.9883V354.295Z"/>
</mask>
<path d="M978.999 403.846H40.9883V405.97H978.999V403.846Z" fill="#B9BDD0" mask="url(#path-10-inside-1_95_5182)"/>
<path d="M52.5667 427.526V426.712L55.6255 423.364C55.9844 422.971 56.28 422.631 56.5123 422.341C56.7446 422.048 56.9165 421.774 57.0281 421.517C57.1428 421.258 57.2001 420.987 57.2001 420.703C57.2001 420.377 57.1217 420.095 56.9648 419.857C56.811 419.619 56.5998 419.434 56.3313 419.305C56.0629 419.175 55.7612 419.11 55.4264 419.11C55.0704 419.11 54.7597 419.184 54.4943 419.332C54.2318 419.477 54.0282 419.68 53.8834 419.943C53.7416 420.205 53.6707 420.513 53.6707 420.866H52.6029C52.6029 420.323 52.7281 419.846 52.9784 419.436C53.2288 419.026 53.5697 418.706 54.001 418.477C54.4354 418.247 54.9226 418.133 55.4626 418.133C56.0055 418.133 56.4867 418.247 56.906 418.477C57.3253 418.706 57.6541 419.015 57.8924 419.404C58.1307 419.793 58.2498 420.226 58.2498 420.703C58.2498 421.044 58.188 421.377 58.0643 421.703C57.9437 422.026 57.7325 422.386 57.4309 422.784C57.1322 423.18 56.7174 423.662 56.1865 424.232L54.1051 426.459V426.531H58.4127V427.526H52.5667ZM63.3041 427.653C62.6223 427.653 62.0416 427.468 61.562 427.097C61.0824 426.722 60.7159 426.181 60.4625 425.472C60.2091 424.76 60.0824 423.9 60.0824 422.893C60.0824 421.891 60.2091 421.036 60.4625 420.327C60.7189 419.615 61.0869 419.073 61.5665 418.698C62.0492 418.321 62.6284 418.133 63.3041 418.133C63.9798 418.133 64.5574 418.321 65.0371 418.698C65.5197 419.073 65.8877 419.615 66.1411 420.327C66.3975 421.036 66.5257 421.891 66.5257 422.893C66.5257 423.9 66.399 424.76 66.1456 425.472C65.8922 426.181 65.5257 426.722 65.0461 427.097C64.5665 427.468 63.9858 427.653 63.3041 427.653ZM63.3041 426.658C63.9798 426.658 64.5046 426.332 64.8787 425.68C65.2527 425.029 65.4398 424.1 65.4398 422.893C65.4398 422.091 65.3538 421.407 65.1819 420.843C65.0129 420.279 64.7686 419.849 64.4488 419.554C64.1321 419.258 63.7505 419.11 63.3041 419.11C62.6344 419.11 62.111 419.441 61.7339 420.101C61.3569 420.759 61.1683 421.689 61.1683 422.893C61.1683 423.695 61.2528 424.377 61.4217 424.938C61.5907 425.499 61.8335 425.926 62.1502 426.219C62.47 426.511 62.8546 426.658 63.3041 426.658ZM71.2677 427.653C70.586 427.653 70.0053 427.468 69.5257 427.097C69.046 426.722 68.6795 426.181 68.4261 425.472C68.1728 424.76 68.0461 423.9 68.0461 422.893C68.0461 421.891 68.1728 421.036 68.4261 420.327C68.6825 419.615 69.0506 419.073 69.5302 418.698C70.0128 418.321 70.592 418.133 71.2677 418.133C71.9434 418.133 72.5211 418.321 73.0007 418.698C73.4834 419.073 73.8514 419.615 74.1048 420.327C74.3612 421.036 74.4894 421.891 74.4894 422.893C74.4894 423.9 74.3627 424.76 74.1093 425.472C73.8559 426.181 73.4894 426.722 73.0098 427.097C72.5301 427.468 71.9495 427.653 71.2677 427.653ZM71.2677 426.658C71.9434 426.658 72.4683 426.332 72.8424 425.68C73.2164 425.029 73.4034 424.1 73.4034 422.893C73.4034 422.091 73.3175 421.407 73.1455 420.843C72.9766 420.279 72.7323 419.849 72.4125 419.554C72.0958 419.258 71.7142 419.11 71.2677 419.11C70.598 419.11 70.0747 419.441 69.6976 420.101C69.3205 420.759 69.132 421.689 69.132 422.893C69.132 423.695 69.2165 424.377 69.3854 424.938C69.5543 425.499 69.7972 425.926 70.1139 426.219C70.4336 426.511 70.8183 426.658 71.2677 426.658ZM79.2314 427.653C78.5497 427.653 77.969 427.468 77.4893 427.097C77.0097 426.722 76.6432 426.181 76.3898 425.472C76.1364 424.76 76.0097 423.9 76.0097 422.893C76.0097 421.891 76.1364 421.036 76.3898 420.327C76.6462 419.615 77.0142 419.073 77.4939 418.698C77.9765 418.321 78.5557 418.133 79.2314 418.133C79.9071 418.133 80.4848 418.321 80.9644 418.698C81.447 419.073 81.8151 419.615 82.0684 420.327C82.3249 421.036 82.4531 421.891 82.4531 422.893C82.4531 423.9 82.3264 424.76 82.073 425.472C81.8196 426.181 81.4531 426.722 80.9734 427.097C80.4938 427.468 79.9131 427.653 79.2314 427.653ZM79.2314 426.658C79.9071 426.658 80.432 426.332 80.806 425.68C81.1801 425.029 81.3671 424.1 81.3671 422.893C81.3671 422.091 81.2811 421.407 81.1092 420.843C80.9403 420.279 80.6959 419.849 80.3762 419.554C80.0594 419.258 79.6778 419.11 79.2314 419.11C78.5617 419.11 78.0383 419.441 77.6613 420.101C77.2842 420.759 77.0957 421.689 77.0957 422.893C77.0957 423.695 77.1801 424.377 77.3491 424.938C77.518 425.499 77.7608 425.926 78.0776 426.219C78.3973 426.511 78.7819 426.658 79.2314 426.658Z" fill="black" fill-opacity="0.4"/>
<path d="M274.26 427.526V426.712L277.319 423.364C277.678 422.971 277.973 422.631 278.206 422.341C278.438 422.048 278.61 421.774 278.722 421.517C278.836 421.258 278.893 420.987 278.893 420.703C278.893 420.377 278.815 420.095 278.658 419.857C278.504 419.619 278.293 419.434 278.025 419.305C277.756 419.175 277.455 419.11 277.12 419.11C276.764 419.11 276.453 419.184 276.188 419.332C275.925 419.477 275.722 419.68 275.577 419.943C275.435 420.205 275.364 420.513 275.364 420.866H274.296C274.296 420.323 274.421 419.846 274.672 419.436C274.922 419.026 275.263 418.706 275.694 418.477C276.129 418.247 276.616 418.133 277.156 418.133C277.699 418.133 278.18 418.247 278.599 418.477C279.019 418.706 279.347 419.015 279.586 419.404C279.824 419.793 279.943 420.226 279.943 420.703C279.943 421.044 279.881 421.377 279.758 421.703C279.637 422.026 279.426 422.386 279.124 422.784C278.826 423.18 278.411 423.662 277.88 424.232L275.798 426.459V426.531H280.106V427.526H274.26ZM284.997 427.653C284.316 427.653 283.735 427.468 283.255 427.097C282.776 426.722 282.409 426.181 282.156 425.472C281.902 424.76 281.776 423.9 281.776 422.893C281.776 421.891 281.902 421.036 282.156 420.327C282.412 419.615 282.78 419.073 283.26 418.698C283.743 418.321 284.322 418.133 284.997 418.133C285.673 418.133 286.251 418.321 286.73 418.698C287.213 419.073 287.581 419.615 287.834 420.327C288.091 421.036 288.219 421.891 288.219 422.893C288.219 423.9 288.092 424.76 287.839 425.472C287.586 426.181 287.219 426.722 286.739 427.097C286.26 427.468 285.679 427.653 284.997 427.653ZM284.997 426.658C285.673 426.658 286.198 426.332 286.572 425.68C286.946 425.029 287.133 424.1 287.133 422.893C287.133 422.091 287.047 421.407 286.875 420.843C286.706 420.279 286.462 419.849 286.142 419.554C285.825 419.258 285.444 419.11 284.997 419.11C284.328 419.11 283.804 419.441 283.427 420.101C283.05 420.759 282.862 421.689 282.862 422.893C282.862 423.695 282.946 424.377 283.115 424.938C283.284 425.499 283.527 425.926 283.844 426.219C284.163 426.511 284.548 426.658 284.997 426.658ZM292.961 427.653C292.279 427.653 291.699 427.468 291.219 427.097C290.739 426.722 290.373 426.181 290.12 425.472C289.866 424.76 289.739 423.9 289.739 422.893C289.739 421.891 289.866 421.036 290.12 420.327C290.376 419.615 290.744 419.073 291.224 418.698C291.706 418.321 292.285 418.133 292.961 418.133C293.637 418.133 294.214 418.321 294.694 418.698C295.177 419.073 295.545 419.615 295.798 420.327C296.055 421.036 296.183 421.891 296.183 422.893C296.183 423.9 296.056 424.76 295.803 425.472C295.549 426.181 295.183 426.722 294.703 427.097C294.224 427.468 293.643 427.653 292.961 427.653ZM292.961 426.658C293.637 426.658 294.162 426.332 294.536 425.68C294.91 425.029 295.097 424.1 295.097 422.893C295.097 422.091 295.011 421.407 294.839 420.843C294.67 420.279 294.426 419.849 294.106 419.554C293.789 419.258 293.408 419.11 292.961 419.11C292.291 419.11 291.768 419.441 291.391 420.101C291.014 420.759 290.825 421.689 290.825 422.893C290.825 423.695 290.91 424.377 291.079 424.938C291.248 425.499 291.491 425.926 291.807 426.219C292.127 426.511 292.512 426.658 292.961 426.658ZM301.16 418.26V427.526H300.038V419.436H299.984L297.721 420.938V419.798L300.038 418.26H301.16Z" fill="black" fill-opacity="0.4"/>
<path d="M493.953 427.526V426.712L497.012 423.364C497.371 422.971 497.667 422.631 497.899 422.341C498.131 422.048 498.303 421.774 498.415 421.517C498.529 421.258 498.587 420.987 498.587 420.703C498.587 420.377 498.508 420.095 498.352 419.857C498.198 419.619 497.987 419.434 497.718 419.305C497.45 419.175 497.148 419.11 496.813 419.11C496.457 419.11 496.146 419.184 495.881 419.332C495.619 419.477 495.415 419.68 495.27 419.943C495.128 420.205 495.057 420.513 495.057 420.866H493.99C493.99 420.323 494.115 419.846 494.365 419.436C494.616 419.026 494.956 418.706 495.388 418.477C495.822 418.247 496.309 418.133 496.849 418.133C497.392 418.133 497.873 418.247 498.293 418.477C498.712 418.706 499.041 419.015 499.279 419.404C499.517 419.793 499.637 420.226 499.637 420.703C499.637 421.044 499.575 421.377 499.451 421.703C499.33 422.026 499.119 422.386 498.818 422.784C498.519 423.18 498.104 423.662 497.573 424.232L495.492 426.459V426.531H499.799V427.526H493.953ZM504.691 427.653C504.009 427.653 503.428 427.468 502.949 427.097C502.469 426.722 502.103 426.181 501.849 425.472C501.596 424.76 501.469 423.9 501.469 422.893C501.469 421.891 501.596 421.036 501.849 420.327C502.106 419.615 502.474 419.073 502.953 418.698C503.436 418.321 504.015 418.133 504.691 418.133C505.366 418.133 505.944 418.321 506.424 418.698C506.906 419.073 507.274 419.615 507.528 420.327C507.784 421.036 507.912 421.891 507.912 422.893C507.912 423.9 507.786 424.76 507.532 425.472C507.279 426.181 506.912 426.722 506.433 427.097C505.953 427.468 505.373 427.653 504.691 427.653ZM504.691 426.658C505.366 426.658 505.891 426.332 506.265 425.68C506.639 425.029 506.826 424.1 506.826 422.893C506.826 422.091 506.741 421.407 506.569 420.843C506.4 420.279 506.155 419.849 505.836 419.554C505.519 419.258 505.137 419.11 504.691 419.11C504.021 419.11 503.498 419.441 503.121 420.101C502.744 420.759 502.555 421.689 502.555 422.893C502.555 423.695 502.64 424.377 502.808 424.938C502.977 425.499 503.22 425.926 503.537 426.219C503.857 426.511 504.241 426.658 504.691 426.658ZM512.654 427.653C511.973 427.653 511.392 427.468 510.912 427.097C510.433 426.722 510.066 426.181 509.813 425.472C509.559 424.76 509.433 423.9 509.433 422.893C509.433 421.891 509.559 421.036 509.813 420.327C510.069 419.615 510.437 419.073 510.917 418.698C511.4 418.321 511.979 418.133 512.654 418.133C513.33 418.133 513.908 418.321 514.387 418.698C514.87 419.073 515.238 419.615 515.491 420.327C515.748 421.036 515.876 421.891 515.876 422.893C515.876 423.9 515.749 424.76 515.496 425.472C515.243 426.181 514.876 426.722 514.396 427.097C513.917 427.468 513.336 427.653 512.654 427.653ZM512.654 426.658C513.33 426.658 513.855 426.332 514.229 425.68C514.603 425.029 514.79 424.1 514.79 422.893C514.79 422.091 514.704 421.407 514.532 420.843C514.363 420.279 514.119 419.849 513.799 419.554C513.482 419.258 513.101 419.11 512.654 419.11C511.985 419.11 511.461 419.441 511.084 420.101C510.707 420.759 510.519 421.689 510.519 422.893C510.519 423.695 510.603 424.377 510.772 424.938C510.941 425.499 511.184 425.926 511.501 426.219C511.82 426.511 512.205 426.658 512.654 426.658ZM517.596 427.526V426.712L520.654 423.364C521.013 422.971 521.309 422.631 521.541 422.341C521.773 422.048 521.945 421.774 522.057 421.517C522.172 421.258 522.229 420.987 522.229 420.703C522.229 420.377 522.151 420.095 521.994 419.857C521.84 419.619 521.629 419.434 521.36 419.305C521.092 419.175 520.79 419.11 520.455 419.11C520.099 419.11 519.789 419.184 519.523 419.332C519.261 419.477 519.057 419.68 518.912 419.943C518.77 420.205 518.7 420.513 518.7 420.866H517.632C517.632 420.323 517.757 419.846 518.007 419.436C518.258 419.026 518.599 418.706 519.03 418.477C519.464 418.247 519.951 418.133 520.491 418.133C521.034 418.133 521.516 418.247 521.935 418.477C522.354 418.706 522.683 419.015 522.921 419.404C523.16 419.793 523.279 420.226 523.279 420.703C523.279 421.044 523.217 421.377 523.093 421.703C522.973 422.026 522.761 422.386 522.46 422.784C522.161 423.18 521.746 423.662 521.215 424.232L519.134 426.459V426.531H523.442V427.526H517.596Z" fill="black" fill-opacity="0.4"/>
<path d="M715.647 427.526V426.712L718.706 423.364C719.064 422.971 719.36 422.631 719.592 422.341C719.825 422.048 719.997 421.774 720.108 421.517C720.223 421.258 720.28 420.987 720.28 420.703C720.28 420.377 720.202 420.095 720.045 419.857C719.891 419.619 719.68 419.434 719.411 419.305C719.143 419.175 718.841 419.11 718.506 419.11C718.15 419.11 717.84 419.184 717.574 419.332C717.312 419.477 717.108 419.68 716.963 419.943C716.822 420.205 716.751 420.513 716.751 420.866H715.683C715.683 420.323 715.808 419.846 716.059 419.436C716.309 419.026 716.65 418.706 717.081 418.477C717.516 418.247 718.003 418.133 718.543 418.133C719.086 418.133 719.567 418.247 719.986 418.477C720.405 418.706 720.734 419.015 720.972 419.404C721.211 419.793 721.33 420.226 721.33 420.703C721.33 421.044 721.268 421.377 721.144 421.703C721.024 422.026 720.813 422.386 720.511 422.784C720.212 423.18 719.798 423.662 719.267 424.232L717.185 426.459V426.531H721.493V427.526H715.647ZM726.384 427.653C725.702 427.653 725.122 427.468 724.642 427.097C724.162 426.722 723.796 426.181 723.543 425.472C723.289 424.76 723.162 423.9 723.162 422.893C723.162 421.891 723.289 421.036 723.543 420.327C723.799 419.615 724.167 419.073 724.647 418.698C725.129 418.321 725.708 418.133 726.384 418.133C727.06 418.133 727.638 418.321 728.117 418.698C728.6 419.073 728.968 419.615 729.221 420.327C729.478 421.036 729.606 421.891 729.606 422.893C729.606 423.9 729.479 424.76 729.226 425.472C728.972 426.181 728.606 426.722 728.126 427.097C727.647 427.468 727.066 427.653 726.384 427.653ZM726.384 426.658C727.06 426.658 727.585 426.332 727.959 425.68C728.333 425.029 728.52 424.1 728.52 422.893C728.52 422.091 728.434 421.407 728.262 420.843C728.093 420.279 727.849 419.849 727.529 419.554C727.212 419.258 726.831 419.11 726.384 419.11C725.714 419.11 725.191 419.441 724.814 420.101C724.437 420.759 724.248 421.689 724.248 422.893C724.248 423.695 724.333 424.377 724.502 424.938C724.671 425.499 724.914 425.926 725.23 426.219C725.55 426.511 725.935 426.658 726.384 426.658ZM734.348 427.653C733.666 427.653 733.085 427.468 732.606 427.097C732.126 426.722 731.76 426.181 731.506 425.472C731.253 424.76 731.126 423.9 731.126 422.893C731.126 421.891 731.253 421.036 731.506 420.327C731.763 419.615 732.131 419.073 732.61 418.698C733.093 418.321 733.672 418.133 734.348 418.133C735.024 418.133 735.601 418.321 736.081 418.698C736.563 419.073 736.931 419.615 737.185 420.327C737.441 421.036 737.569 421.891 737.569 422.893C737.569 423.9 737.443 424.76 737.189 425.472C736.936 426.181 736.569 426.722 736.09 427.097C735.61 427.468 735.03 427.653 734.348 427.653ZM734.348 426.658C735.024 426.658 735.548 426.332 735.922 425.68C736.296 425.029 736.484 424.1 736.484 422.893C736.484 422.091 736.398 421.407 736.226 420.843C736.057 420.279 735.812 419.849 735.493 419.554C735.176 419.258 734.794 419.11 734.348 419.11C733.678 419.11 733.155 419.441 732.778 420.101C732.401 420.759 732.212 421.689 732.212 422.893C732.212 423.695 732.297 424.377 732.465 424.938C732.634 425.499 732.877 425.926 733.194 426.219C733.514 426.511 733.898 426.658 734.348 426.658ZM742.42 427.653C741.823 427.653 741.29 427.55 740.823 427.345C740.358 427.14 739.989 426.855 739.714 426.49C739.443 426.122 739.295 425.695 739.271 425.21H740.411C740.435 425.508 740.538 425.766 740.719 425.983C740.9 426.198 741.137 426.363 741.429 426.481C741.722 426.599 742.046 426.658 742.402 426.658C742.8 426.658 743.153 426.588 743.461 426.449C743.768 426.311 744.01 426.118 744.185 425.87C744.36 425.623 744.447 425.336 744.447 425.011C744.447 424.67 744.363 424.37 744.194 424.11C744.025 423.848 743.778 423.643 743.452 423.495C743.126 423.347 742.728 423.273 742.257 423.273H741.515V422.278H742.257C742.625 422.278 742.948 422.211 743.225 422.078C743.506 421.946 743.725 421.759 743.882 421.517C744.041 421.276 744.121 420.993 744.121 420.667C744.121 420.353 744.052 420.08 743.913 419.848C743.774 419.615 743.578 419.434 743.325 419.305C743.075 419.175 742.779 419.11 742.438 419.11C742.118 419.11 741.817 419.169 741.533 419.287C741.253 419.401 741.023 419.569 740.845 419.789C740.667 420.006 740.571 420.269 740.556 420.576H739.47C739.488 420.091 739.634 419.665 739.909 419.3C740.183 418.932 740.542 418.646 740.986 418.441C741.432 418.235 741.922 418.133 742.456 418.133C743.029 418.133 743.521 418.249 743.931 418.481C744.342 418.711 744.657 419.014 744.877 419.391C745.097 419.768 745.207 420.175 745.207 420.612C745.207 421.134 745.07 421.579 744.796 421.947C744.524 422.315 744.155 422.57 743.687 422.712V422.784C744.272 422.881 744.729 423.13 745.058 423.531C745.387 423.929 745.551 424.422 745.551 425.011C745.551 425.514 745.414 425.967 745.139 426.368C744.868 426.766 744.497 427.08 744.026 427.309C743.556 427.538 743.02 427.653 742.42 427.653Z" fill="black" fill-opacity="0.4"/>
<path d="M937.34 427.526V426.712L940.399 423.364C940.758 422.971 941.053 422.631 941.286 422.341C941.518 422.048 941.69 421.774 941.802 421.517C941.916 421.258 941.974 420.987 941.974 420.703C941.974 420.377 941.895 420.095 941.738 419.857C941.584 419.619 941.373 419.434 941.105 419.305C940.836 419.175 940.535 419.11 940.2 419.11C939.844 419.11 939.533 419.184 939.268 419.332C939.005 419.477 938.802 419.68 938.657 419.943C938.515 420.205 938.444 420.513 938.444 420.866H937.376C937.376 420.323 937.502 419.846 937.752 419.436C938.002 419.026 938.343 418.706 938.774 418.477C939.209 418.247 939.696 418.133 940.236 418.133C940.779 418.133 941.26 418.247 941.679 418.477C942.099 418.706 942.428 419.015 942.666 419.404C942.904 419.793 943.023 420.226 943.023 420.703C943.023 421.044 942.961 421.377 942.838 421.703C942.717 422.026 942.506 422.386 942.204 422.784C941.906 423.18 941.491 423.662 940.96 424.232L938.879 426.459V426.531H943.186V427.526H937.34ZM948.077 427.653C947.396 427.653 946.815 427.468 946.335 427.097C945.856 426.722 945.489 426.181 945.236 425.472C944.983 424.76 944.856 423.9 944.856 422.893C944.856 421.891 944.983 421.036 945.236 420.327C945.492 419.615 945.86 419.073 946.34 418.698C946.823 418.321 947.402 418.133 948.077 418.133C948.753 418.133 949.331 418.321 949.81 418.698C950.293 419.073 950.661 419.615 950.915 420.327C951.171 421.036 951.299 421.891 951.299 422.893C951.299 423.9 951.172 424.76 950.919 425.472C950.666 426.181 950.299 426.722 949.82 427.097C949.34 427.468 948.759 427.653 948.077 427.653ZM948.077 426.658C948.753 426.658 949.278 426.332 949.652 425.68C950.026 425.029 950.213 424.1 950.213 422.893C950.213 422.091 950.127 421.407 949.955 420.843C949.786 420.279 949.542 419.849 949.222 419.554C948.906 419.258 948.524 419.11 948.077 419.11C947.408 419.11 946.884 419.441 946.507 420.101C946.13 420.759 945.942 421.689 945.942 422.893C945.942 423.695 946.026 424.377 946.195 424.938C946.364 425.499 946.607 425.926 946.924 426.219C947.243 426.511 947.628 426.658 948.077 426.658ZM956.041 427.653C955.359 427.653 954.779 427.468 954.299 427.097C953.819 426.722 953.453 426.181 953.2 425.472C952.946 424.76 952.819 423.9 952.819 422.893C952.819 421.891 952.946 421.036 953.2 420.327C953.456 419.615 953.824 419.073 954.304 418.698C954.786 418.321 955.365 418.133 956.041 418.133C956.717 418.133 957.295 418.321 957.774 418.698C958.257 419.073 958.625 419.615 958.878 420.327C959.135 421.036 959.263 421.891 959.263 422.893C959.263 423.9 959.136 424.76 958.883 425.472C958.629 426.181 958.263 426.722 957.783 427.097C957.304 427.468 956.723 427.653 956.041 427.653ZM956.041 426.658C956.717 426.658 957.242 426.332 957.616 425.68C957.99 425.029 958.177 424.1 958.177 422.893C958.177 422.091 958.091 421.407 957.919 420.843C957.75 420.279 957.506 419.849 957.186 419.554C956.869 419.258 956.488 419.11 956.041 419.11C955.371 419.11 954.848 419.441 954.471 420.101C954.094 420.759 953.905 421.689 953.905 422.893C953.905 423.695 953.99 424.377 954.159 424.938C954.328 425.499 954.571 425.926 954.887 426.219C955.207 426.511 955.592 426.658 956.041 426.658ZM960.765 425.626V424.703L964.837 418.26H965.507V419.689H965.055L961.978 424.558V424.63H967.462V425.626H960.765ZM965.127 427.526V425.345V424.916V418.26H966.195V427.526H965.127Z" fill="black" fill-opacity="0.4"/>
<path d="M68.5957 404.023L244.858 303.15H416.873L590.481 251.12L776.3 150.778L946.192 355.179" stroke="#2D9CDB" stroke-linejoin="round"/>
<circle cx="68.0653" cy="404.023" r="4.7782" fill="#2D9CDB"/>
<circle cx="245.39" cy="303.149" r="4.7782" fill="#2D9CDB"/>
<circle cx="420.591" cy="303.149" r="4.7782" fill="#2D9CDB"/>
<circle cx="590.483" cy="250.059" r="4.7782" fill="#2D9CDB"/>
<circle cx="775.239" cy="151.309" r="4.7782" fill="#2D9CDB"/>
<circle cx="946.194" cy="356.241" r="4.7782" fill="#2D9CDB"/>
<path d="M68.5938 305.804L245.918 276.073H420.588L590.479 100.873H776.298L947.251 50.967" stroke="#BF0E0E" stroke-linejoin="round"/>
<circle cx="68.0634" cy="305.804" r="4.7782" fill="#BF0E0E"/>
<circle cx="245.388" cy="276.605" r="4.7782" fill="#BF0E0E"/>
<circle cx="420.589" cy="273.419" r="4.7782" fill="#BF0E0E"/>
<circle cx="590.481" cy="100.342" r="4.7782" fill="#BF0E0E"/>
<circle cx="775.237" cy="100.342" r="4.7782" fill="#BF0E0E"/>
<circle cx="946.192" cy="51.4984" r="4.7782" fill="#BF0E0E"/>
<path d="M68.5957 290.408H245.389L417.935 254.837L591.543 140.16L776.3 69.5491L947.253 69.5491" stroke="#E67C00" stroke-width="2.12364" stroke-linejoin="round"/>
<circle cx="68.0653" cy="290.408" r="4.7782" fill="#E67C00"/>
<circle cx="245.39" cy="290.408" r="4.7782" fill="#E67C00"/>
<circle cx="420.591" cy="253.244" r="4.7782" fill="#E67C00"/>
<circle cx="590.483" cy="141.753" r="4.7782" fill="#E67C00"/>
<circle cx="775.239" cy="69.5492" r="4.7782" fill="#E67C00"/>
<circle cx="946.194" cy="69.5492" r="4.7782" fill="#E67C00"/>
</svg>
