<svg width="622" height="290" viewBox="0 0 622 290" fill="none" xmlns="http://www.w3.org/2000/svg">
<path d="M0.609458 8V7.48254L2.55282 5.35518C2.78089 5.10603 2.96871 4.88946 3.11629 4.70548C3.26386 4.51957 3.3731 4.34517 3.44401 4.18226C3.51684 4.01744 3.55326 3.84495 3.55326 3.6648C3.55326 3.45781 3.50343 3.27862 3.40377 3.12721C3.30602 2.9758 3.17187 2.85889 3.00129 2.77648C2.83072 2.69407 2.63907 2.65287 2.42633 2.65287C2.20018 2.65287 2.00278 2.69982 1.83412 2.79373C1.66739 2.88573 1.53802 3.01509 1.44603 3.18183C1.35595 3.34857 1.31091 3.54406 1.31091 3.76829H0.632457C0.632457 3.42331 0.711993 3.1205 0.871065 2.85985C1.03014 2.5992 1.24671 2.39605 1.52077 2.25039C1.79675 2.10474 2.10627 2.03191 2.44933 2.03191C2.79431 2.03191 3.1 2.10474 3.36639 2.25039C3.63279 2.39605 3.84169 2.5925 3.9931 2.83973C4.14451 3.08696 4.22021 3.36198 4.22021 3.6648C4.22021 3.88137 4.18092 4.09314 4.10234 4.30013C4.02568 4.5052 3.89152 4.73422 3.69987 4.98721C3.51013 5.23827 3.24661 5.54492 2.9093 5.90714L1.58689 7.32155V7.36754H4.3237V8H0.609458ZM7.43137 8.08049C6.99823 8.08049 6.6293 7.96263 6.32457 7.72689C6.01984 7.48924 5.78698 7.14523 5.62599 6.69484C5.465 6.24254 5.38451 5.69632 5.38451 5.0562C5.38451 4.41991 5.465 3.87657 5.62599 3.42619C5.78889 2.97389 6.02271 2.62891 6.32744 2.39126C6.63409 2.15169 7.00206 2.03191 7.43137 2.03191C7.86067 2.03191 8.22769 2.15169 8.53241 2.39126C8.83906 2.62891 9.07288 2.97389 9.23387 3.42619C9.39677 3.87657 9.47823 4.41991 9.47823 5.0562C9.47823 5.69632 9.39773 6.24254 9.23674 6.69484C9.07575 7.14523 8.84289 7.48924 8.53816 7.72689C8.23344 7.96263 7.8645 8.08049 7.43137 8.08049ZM7.43137 7.44804C7.86067 7.44804 8.19415 7.24105 8.4318 6.82708C8.66945 6.41311 8.78827 5.82282 8.78827 5.0562C8.78827 4.5464 8.73365 4.11231 8.62441 3.75392C8.51708 3.39552 8.36184 3.12242 8.15869 2.9346C7.95745 2.74678 7.71501 2.65287 7.43137 2.65287C7.00589 2.65287 6.67338 2.86273 6.43381 3.28245C6.19424 3.70025 6.07446 4.2915 6.07446 5.0562C6.07446 5.566 6.12812 5.99914 6.23545 6.35561C6.34277 6.71209 6.49705 6.98328 6.69829 7.16918C6.90144 7.35509 7.1458 7.44804 7.43137 7.44804ZM12.491 8.08049C12.0579 8.08049 11.6889 7.96263 11.3842 7.72689C11.0795 7.48924 10.8466 7.14523 10.6856 6.69484C10.5247 6.24254 10.4442 5.69632 10.4442 5.0562C10.4442 4.41991 10.5247 3.87657 10.6856 3.42619C10.8485 2.97389 11.0824 2.62891 11.3871 2.39126C11.6937 2.15169 12.0617 2.03191 12.491 2.03191C12.9203 2.03191 13.2873 2.15169 13.5921 2.39126C13.8987 2.62891 14.1325 2.97389 14.2935 3.42619C14.4564 3.87657 14.5379 4.41991 14.5379 5.0562C14.5379 5.69632 14.4574 6.24254 14.2964 6.69484C14.1354 7.14523 13.9025 7.48924 13.5978 7.72689C13.2931 7.96263 12.9242 8.08049 12.491 8.08049ZM12.491 7.44804C12.9203 7.44804 13.2538 7.24105 13.4914 6.82708C13.7291 6.41311 13.8479 5.82282 13.8479 5.0562C13.8479 4.5464 13.7933 4.11231 13.6841 3.75392C13.5767 3.39552 13.4215 3.12242 13.2183 2.9346C13.0171 2.74678 12.7747 2.65287 12.491 2.65287C12.0655 2.65287 11.733 2.86273 11.4935 3.28245C11.2539 3.70025 11.1341 4.2915 11.1341 5.0562C11.1341 5.566 11.1878 5.99914 11.2951 6.35561C11.4024 6.71209 11.5567 6.98328 11.7579 7.16918C11.9611 7.35509 12.2055 7.44804 12.491 7.44804Z" fill="black" fill-opacity="0.4"/>
<path d="M3.67932 33.1583V39.0459H2.96637V33.9058H2.93187L1.49447 34.8602V34.1357L2.96637 33.1583H3.67932ZM5.55656 39.0459L8.18988 33.8368V33.7908H5.15409V33.1583H8.92583V33.8253L6.30401 39.0459H5.55656ZM11.7582 39.1264C11.4209 39.1264 11.1171 39.0593 10.8469 38.9252C10.5767 38.791 10.3601 38.607 10.1972 38.3732C10.0343 38.1394 9.94519 37.873 9.92986 37.574H10.6198C10.6466 37.8404 10.7674 38.0608 10.982 38.2352C11.1986 38.4077 11.4573 38.4939 11.7582 38.4939C11.9997 38.4939 12.2144 38.4374 12.4022 38.3243C12.5919 38.2112 12.7405 38.056 12.8478 37.8586C12.957 37.6593 13.0116 37.4341 13.0116 37.183C13.0116 36.9262 12.9551 36.6972 12.842 36.4959C12.7309 36.2928 12.5775 36.1328 12.3821 36.0159C12.1866 35.8989 11.9633 35.8395 11.7122 35.8376C11.5321 35.8357 11.3471 35.8635 11.1574 35.921C10.9677 35.9766 10.8115 36.0484 10.6888 36.1366L10.0219 36.0561L10.3783 33.1583H13.4371V33.7908H10.9763L10.7693 35.5271H10.8038C10.9245 35.4313 11.0759 35.3518 11.258 35.2885C11.4401 35.2253 11.6298 35.1937 11.8272 35.1937C12.1875 35.1937 12.5086 35.2799 12.7903 35.4524C13.0739 35.623 13.2963 35.8568 13.4572 36.1538C13.6201 36.4509 13.7016 36.7901 13.7016 37.1715C13.7016 37.5472 13.6173 37.8826 13.4486 38.1777C13.2819 38.4709 13.0519 38.7028 12.7587 38.8734C12.4654 39.0421 12.132 39.1264 11.7582 39.1264Z" fill="black" fill-opacity="0.4"/>
<path d="M3.67932 64.2042V70.0918H2.96637V64.9516H2.93187L1.49447 65.9061V65.1816L2.96637 64.2042H3.67932ZM7.21245 70.1723C6.87514 70.1723 6.57137 70.1052 6.30114 69.9711C6.0309 69.8369 5.81434 69.6529 5.65143 69.4191C5.48853 69.1853 5.39941 68.9189 5.38407 68.6199H6.07403C6.10086 68.8863 6.2216 69.1067 6.43625 69.2811C6.65282 69.4536 6.91155 69.5398 7.21245 69.5398C7.45393 69.5398 7.66858 69.4833 7.8564 69.3702C8.04614 69.2571 8.19467 69.1019 8.302 68.9045C8.41124 68.7052 8.46586 68.48 8.46586 68.2289C8.46586 67.9721 8.40933 67.7431 8.29625 67.5418C8.18509 67.3387 8.03177 67.1787 7.83628 67.0618C7.64079 66.9448 7.41752 66.8854 7.16645 66.8835C6.9863 66.8816 6.80135 66.9094 6.61162 66.9669C6.42188 67.0225 6.26568 67.0943 6.14302 67.1825L5.47607 67.102L5.83254 64.2042H8.89133V64.8367H6.4305L6.22352 66.573H6.25801C6.37876 66.4772 6.53016 66.3977 6.71223 66.3344C6.8943 66.2712 7.08404 66.2396 7.28144 66.2396C7.64175 66.2396 7.96277 66.3258 8.2445 66.4983C8.52815 66.6689 8.75047 66.9027 8.91146 67.1997C9.07436 67.4968 9.15582 67.836 9.15582 68.2174C9.15582 68.5931 9.07149 68.9285 8.90283 69.2236C8.73609 69.5168 8.50611 69.7487 8.21288 69.9193C7.91965 70.088 7.58617 70.1723 7.21245 70.1723ZM12.2182 70.1723C11.7851 70.1723 11.4161 70.0544 11.1114 69.8187C10.8067 69.581 10.5738 69.237 10.4128 68.7866C10.2518 68.3343 10.1713 67.7881 10.1713 67.148C10.1713 66.5117 10.2518 65.9684 10.4128 65.518C10.5757 65.0657 10.8095 64.7207 11.1143 64.4831C11.4209 64.2435 11.7889 64.1237 12.2182 64.1237C12.6475 64.1237 13.0145 64.2435 13.3192 64.4831C13.6259 64.7207 13.8597 65.0657 14.0207 65.518C14.1836 65.9684 14.2651 66.5117 14.2651 67.148C14.2651 67.7881 14.1846 68.3343 14.0236 68.7866C13.8626 69.237 13.6297 69.581 13.325 69.8187C13.0203 70.0544 12.6513 70.1723 12.2182 70.1723ZM12.2182 69.5398C12.6475 69.5398 12.981 69.3328 13.2186 68.9189C13.4563 68.5049 13.5751 67.9146 13.5751 67.148C13.5751 66.6382 13.5205 66.2041 13.4112 65.8457C13.3039 65.4873 13.1487 65.2142 12.9455 65.0264C12.7443 64.8386 12.5018 64.7447 12.2182 64.7447C11.7927 64.7447 11.4602 64.9545 11.2206 65.3742C10.9811 65.792 10.8613 66.3833 10.8613 67.148C10.8613 67.6578 10.915 68.0909 11.0223 68.4474C11.1296 68.8039 11.2839 69.0751 11.4851 69.261C11.6883 69.4469 11.9326 69.5398 12.2182 69.5398Z" fill="black" fill-opacity="0.4"/>
<path d="M3.67932 95.2501V101.138H2.96637V95.9975H2.93187L1.49447 96.952V96.2275L2.96637 95.2501H3.67932ZM5.37258 101.138V100.62L7.31594 98.4929C7.54401 98.2437 7.73183 98.0272 7.8794 97.8432C8.02698 97.6573 8.13622 97.4829 8.20713 97.32C8.27996 97.1551 8.31637 96.9826 8.31637 96.8025C8.31637 96.5955 8.26654 96.4163 8.16688 96.2649C8.06914 96.1135 7.93498 95.9966 7.76441 95.9142C7.59384 95.8318 7.40219 95.7906 7.18945 95.7906C6.9633 95.7906 6.7659 95.8375 6.59724 95.9314C6.4305 96.0234 6.30114 96.1528 6.20914 96.3195C6.11907 96.4863 6.07403 96.6818 6.07403 96.906H5.39557C5.39557 96.561 5.47511 96.2582 5.63418 95.9975C5.79325 95.7369 6.00982 95.5337 6.28389 95.3881C6.55987 95.2424 6.86939 95.1696 7.21245 95.1696C7.55743 95.1696 7.86311 95.2424 8.12951 95.3881C8.39591 95.5337 8.60481 95.7302 8.75622 95.9774C8.90762 96.2247 8.98333 96.4997 8.98333 96.8025C8.98333 97.0191 8.94404 97.2308 8.86546 97.4378C8.7888 97.6429 8.65464 97.8719 8.46299 98.1249C8.27325 98.376 8.00973 98.6826 7.67242 99.0448L6.35001 100.459V100.505H9.08682V101.138H5.37258ZM12.114 101.218C11.7767 101.218 11.4729 101.151 11.2027 101.017C10.9324 100.883 10.7159 100.699 10.553 100.465C10.3901 100.231 10.3009 99.9648 10.2856 99.6658H10.9756C11.0024 99.9322 11.1231 100.153 11.3378 100.327C11.5544 100.499 11.8131 100.586 12.114 100.586C12.3555 100.586 12.5701 100.529 12.7579 100.416C12.9477 100.303 13.0962 100.148 13.2035 99.9504C13.3128 99.7511 13.3674 99.5259 13.3674 99.2748C13.3674 99.018 13.3109 98.789 13.1978 98.5877C13.0866 98.3846 12.9333 98.2246 12.7378 98.1077C12.5423 97.9907 12.3191 97.9313 12.068 97.9294C11.8878 97.9275 11.7029 97.9553 11.5132 98.0128C11.3234 98.0684 11.1672 98.1402 11.0446 98.2284L10.3776 98.1479L10.7341 95.2501H13.7929V95.8826H11.332L11.1251 97.6189H11.1596C11.2803 97.5231 11.4317 97.4436 11.6138 97.3803C11.7958 97.3171 11.9856 97.2855 12.183 97.2855C12.5433 97.2855 12.8643 97.3717 13.146 97.5442C13.4297 97.7148 13.652 97.9486 13.813 98.2456C13.9759 98.5427 14.0574 98.8819 14.0574 99.2633C14.0574 99.639 13.973 99.9744 13.8044 100.27C13.6376 100.563 13.4076 100.795 13.1144 100.965C12.8212 101.134 12.4877 101.218 12.114 101.218Z" fill="black" fill-opacity="0.4"/>
<path d="M3.67932 126.296V132.184H2.96637V127.043H2.93187L1.49447 127.998V127.273L2.96637 126.296H3.67932ZM7.29294 132.264C6.85981 132.264 6.49087 132.146 6.18614 131.91C5.88142 131.673 5.64856 131.329 5.48757 130.878C5.32658 130.426 5.24608 129.88 5.24608 129.24C5.24608 128.604 5.32658 128.06 5.48757 127.61C5.65047 127.157 5.88429 126.813 6.18902 126.575C6.49566 126.335 6.86364 126.216 7.29294 126.216C7.72225 126.216 8.08926 126.335 8.39399 126.575C8.70064 126.813 8.93446 127.157 9.09544 127.61C9.25835 128.06 9.3398 128.604 9.3398 129.24C9.3398 129.88 9.25931 130.426 9.09832 130.878C8.93733 131.329 8.70447 131.673 8.39974 131.91C8.09501 132.146 7.72608 132.264 7.29294 132.264ZM7.29294 131.632C7.72225 131.632 8.05572 131.425 8.29337 131.011C8.53103 130.597 8.64985 130.006 8.64985 129.24C8.64985 128.73 8.59523 128.296 8.48599 127.938C8.37866 127.579 8.22342 127.306 8.02027 127.118C7.81903 126.93 7.57659 126.836 7.29294 126.836C6.86747 126.836 6.53495 127.046 6.29539 127.466C6.05582 127.884 5.93604 128.475 5.93604 129.24C5.93604 129.75 5.9897 130.183 6.09703 130.539C6.20435 130.896 6.35863 131.167 6.55987 131.353C6.76302 131.539 7.00738 131.632 7.29294 131.632ZM12.3526 132.264C11.9195 132.264 11.5505 132.146 11.2458 131.91C10.9411 131.673 10.7082 131.329 10.5472 130.878C10.3862 130.426 10.3057 129.88 10.3057 129.24C10.3057 128.604 10.3862 128.06 10.5472 127.61C10.7101 127.157 10.9439 126.813 11.2487 126.575C11.5553 126.335 11.9233 126.216 12.3526 126.216C12.7819 126.216 13.1489 126.335 13.4536 126.575C13.7603 126.813 13.9941 127.157 14.1551 127.61C14.318 128.06 14.3995 128.604 14.3995 129.24C14.3995 129.88 14.319 130.426 14.158 130.878C13.997 131.329 13.7641 131.673 13.4594 131.91C13.1547 132.146 12.7857 132.264 12.3526 132.264ZM12.3526 131.632C12.7819 131.632 13.1154 131.425 13.353 131.011C13.5907 130.597 13.7095 130.006 13.7095 129.24C13.7095 128.73 13.6549 128.296 13.5456 127.938C13.4383 127.579 13.2831 127.306 13.0799 127.118C12.8787 126.93 12.6362 126.836 12.3526 126.836C11.9271 126.836 11.5946 127.046 11.355 127.466C11.1155 127.884 10.9957 128.475 10.9957 129.24C10.9957 129.75 11.0494 130.183 11.1567 130.539C11.264 130.896 11.4183 131.167 11.6195 131.353C11.8227 131.539 12.067 131.632 12.3526 131.632Z" fill="black" fill-opacity="0.4"/>
<path d="M3.79345 163.229L6.42677 158.019V157.973H3.39097V157.341H7.16271V158.008L4.54089 163.229H3.79345ZM9.99511 163.309C9.6578 163.309 9.35403 163.242 9.0838 163.108C8.81357 162.974 8.597 162.79 8.4341 162.556C8.27119 162.322 8.18207 162.056 8.16674 161.757H8.85669C8.88352 162.023 9.00427 162.243 9.21892 162.418C9.43549 162.59 9.69422 162.677 9.99511 162.677C10.2366 162.677 10.4512 162.62 10.6391 162.507C10.8288 162.394 10.9773 162.239 11.0847 162.041C11.1939 161.842 11.2485 161.617 11.2485 161.366C11.2485 161.109 11.192 160.88 11.0789 160.679C10.9678 160.475 10.8144 160.315 10.6189 160.198C10.4235 160.082 10.2002 160.022 9.94912 160.02C9.76896 160.018 9.58402 160.046 9.39428 160.104C9.20454 160.159 9.04835 160.231 8.92569 160.319L8.25873 160.239L8.61521 157.341H11.674V157.973H9.21317L9.00618 159.71H9.04068C9.16142 159.614 9.31283 159.534 9.4949 159.471C9.67697 159.408 9.86671 159.376 10.0641 159.376C10.4244 159.376 10.7454 159.463 11.0272 159.635C11.3108 159.806 11.5331 160.039 11.6941 160.336C11.857 160.634 11.9385 160.973 11.9385 161.354C11.9385 161.73 11.8542 162.065 11.6855 162.36C11.5188 162.654 11.2888 162.885 10.9955 163.056C10.7023 163.225 10.3688 163.309 9.99511 163.309Z" fill="black" fill-opacity="0.4"/>
<path d="M5.44933 194.355C5.11202 194.355 4.80825 194.288 4.53802 194.154C4.26779 194.02 4.05122 193.836 3.88831 193.602C3.72541 193.368 3.63629 193.101 3.62096 192.803H4.31091C4.33774 193.069 4.45848 193.289 4.67314 193.464C4.8897 193.636 5.14844 193.722 5.44933 193.722C5.69082 193.722 5.90547 193.666 6.09329 193.553C6.28302 193.44 6.43156 193.285 6.53888 193.087C6.64812 192.888 6.70275 192.663 6.70275 192.412C6.70275 192.155 6.64621 191.926 6.53313 191.724C6.42197 191.521 6.26865 191.361 6.07316 191.244C5.87768 191.127 5.6544 191.068 5.40334 191.066C5.22318 191.064 5.03824 191.092 4.8485 191.15C4.65876 191.205 4.50256 191.277 4.37991 191.365L3.71295 191.285L4.06943 188.387H7.12822V189.019H4.66739L4.4604 190.756H4.4949C4.61564 190.66 4.76705 190.58 4.94912 190.517C5.13119 190.454 5.32092 190.422 5.51833 190.422C5.87864 190.422 6.19966 190.508 6.48139 190.681C6.76503 190.851 6.98735 191.085 7.14834 191.382C7.31125 191.679 7.3927 192.019 7.3927 192.4C7.3927 192.776 7.30837 193.111 7.13972 193.406C6.97298 193.699 6.74299 193.931 6.44976 194.102C6.15653 194.271 5.82306 194.355 5.44933 194.355ZM10.4551 194.355C10.0219 194.355 9.65301 194.237 9.34828 194.001C9.04355 193.764 8.8107 193.42 8.64971 192.969C8.48872 192.517 8.40822 191.971 8.40822 191.331C8.40822 190.694 8.48872 190.151 8.64971 189.701C8.81261 189.248 9.04643 188.903 9.35116 188.666C9.6578 188.426 10.0258 188.306 10.4551 188.306C10.8844 188.306 11.2514 188.426 11.5561 188.666C11.8628 188.903 12.0966 189.248 12.2576 189.701C12.4205 190.151 12.5019 190.694 12.5019 191.331C12.5019 191.971 12.4214 192.517 12.2605 192.969C12.0995 193.42 11.8666 193.764 11.5619 194.001C11.2572 194.237 10.8882 194.355 10.4551 194.355ZM10.4551 193.722C10.8844 193.722 11.2179 193.515 11.4555 193.101C11.6932 192.688 11.812 192.097 11.812 191.331C11.812 190.821 11.7574 190.387 11.6481 190.028C11.5408 189.67 11.3856 189.397 11.1824 189.209C10.9812 189.021 10.7387 188.927 10.4551 188.927C10.0296 188.927 9.69709 189.137 9.45753 189.557C9.21796 189.975 9.09818 190.566 9.09818 191.331C9.09818 191.84 9.15184 192.274 9.25916 192.63C9.36649 192.987 9.52077 193.258 9.72201 193.444C9.92516 193.629 10.1695 193.722 10.4551 193.722Z" fill="black" fill-opacity="0.4"/>
<path d="M3.60946 225.32V224.803L5.55282 222.675C5.78089 222.426 5.96871 222.21 6.11629 222.026C6.26386 221.84 6.3731 221.665 6.44401 221.503C6.51684 221.338 6.55326 221.165 6.55326 220.985C6.55326 220.778 6.50343 220.599 6.40377 220.448C6.30602 220.296 6.17187 220.179 6.00129 220.097C5.83072 220.014 5.63907 219.973 5.42633 219.973C5.20018 219.973 5.00278 220.02 4.83412 220.114C4.66739 220.206 4.53802 220.335 4.44603 220.502C4.35595 220.669 4.31091 220.864 4.31091 221.089H3.63246C3.63246 220.744 3.71199 220.441 3.87107 220.18C4.03014 219.92 4.24671 219.716 4.52077 219.571C4.79675 219.425 5.10627 219.352 5.44933 219.352C5.79431 219.352 6.1 219.425 6.36639 219.571C6.63279 219.716 6.84169 219.913 6.9931 220.16C7.14451 220.407 7.22021 220.682 7.22021 220.985C7.22021 221.202 7.18092 221.413 7.10234 221.62C7.02568 221.826 6.89152 222.055 6.69987 222.308C6.51013 222.559 6.24661 222.865 5.9093 223.227L4.58689 224.642V224.688H7.3237V225.32H3.60946ZM10.3509 225.401C10.0136 225.401 9.70979 225.334 9.43956 225.2C9.16933 225.065 8.95276 224.881 8.78985 224.648C8.62695 224.414 8.53783 224.147 8.5225 223.848H9.21245C9.23928 224.115 9.36002 224.335 9.57467 224.51C9.79124 224.682 10.05 224.768 10.3509 224.768C10.5924 224.768 10.807 224.712 10.9948 224.599C11.1846 224.486 11.3331 224.33 11.4404 224.133C11.5497 223.934 11.6043 223.709 11.6043 223.457C11.6043 223.201 11.5477 222.972 11.4347 222.77C11.3235 222.567 11.1702 222.407 10.9747 222.29C10.7792 222.173 10.5559 222.114 10.3049 222.112C10.1247 222.11 9.93977 222.138 9.75004 222.195C9.5603 222.251 9.4041 222.323 9.28144 222.411L8.61449 222.331L8.97097 219.433H12.0298V220.065H9.56892L9.36194 221.802H9.39644C9.51718 221.706 9.66858 221.626 9.85066 221.563C10.0327 221.5 10.2225 221.468 10.4199 221.468C10.7802 221.468 11.1012 221.554 11.3829 221.727C11.6666 221.897 11.8889 222.131 12.0499 222.428C12.2128 222.725 12.2942 223.065 12.2942 223.446C12.2942 223.822 12.2099 224.157 12.0413 224.452C11.8745 224.745 11.6445 224.977 11.3513 225.148C11.0581 225.316 10.7246 225.401 10.3509 225.401Z" fill="black" fill-opacity="0.4"/>
<path d="M7.52983 256.447C7.09669 256.447 6.72776 256.329 6.42303 256.093C6.1183 255.855 5.88544 255.511 5.72445 255.061C5.56346 254.609 5.48297 254.063 5.48297 253.422C5.48297 252.786 5.56346 252.243 5.72445 251.792C5.88736 251.34 6.12117 250.995 6.4259 250.757C6.73255 250.518 7.10052 250.398 7.52983 250.398C7.95913 250.398 8.32615 250.518 8.63088 250.757C8.93752 250.995 9.17134 251.34 9.33233 251.792C9.49523 252.243 9.57669 252.786 9.57669 253.422C9.57669 254.063 9.49619 254.609 9.3352 255.061C9.17421 255.511 8.94135 255.855 8.63663 256.093C8.3319 256.329 7.96296 256.447 7.52983 256.447ZM7.52983 255.814C7.95913 255.814 8.29261 255.607 8.53026 255.193C8.76791 254.779 8.88673 254.189 8.88673 253.422C8.88673 252.913 8.83211 252.479 8.72287 252.12C8.61554 251.762 8.4603 251.489 8.25715 251.301C8.05592 251.113 7.81347 251.019 7.52983 251.019C7.10436 251.019 6.77184 251.229 6.53227 251.649C6.2927 252.066 6.17292 252.658 6.17292 253.422C6.17292 253.932 6.22658 254.365 6.33391 254.722C6.44123 255.078 6.59552 255.349 6.79675 255.535C6.9999 255.721 7.24426 255.814 7.52983 255.814Z" fill="black" fill-opacity="0.4"/>
<mask id="path-10-inside-1_2065_17252" fill="white">
<path d="M26.7938 225.099H622V257.256H26.7938V225.099Z"/>
</mask>
<path d="M622 256.581H26.7938V257.93H622V256.581Z" fill="#B9BDD0" mask="url(#path-10-inside-1_2065_17252)"/>
<path d="M34.1495 272.001V271.484L36.0929 269.356C36.3209 269.107 36.5088 268.89 36.6563 268.706C36.8039 268.521 36.9131 268.346 36.9841 268.183C37.0569 268.018 37.0933 267.846 37.0933 267.666C37.0933 267.459 37.0435 267.28 36.9438 267.128C36.8461 266.977 36.7119 266.86 36.5413 266.777C36.3708 266.695 36.1791 266.654 35.9664 266.654C35.7402 266.654 35.5428 266.701 35.3742 266.795C35.2074 266.887 35.0781 267.016 34.9861 267.183C34.896 267.35 34.8509 267.545 34.8509 267.769H34.1725C34.1725 267.424 34.252 267.121 34.4111 266.861C34.5702 266.6 34.7867 266.397 35.0608 266.251C35.3368 266.106 35.6463 266.033 35.9894 266.033C36.3343 266.033 36.64 266.106 36.9064 266.251C37.1728 266.397 37.3817 266.593 37.5331 266.841C37.6845 267.088 37.7602 267.363 37.7602 267.666C37.7602 267.882 37.721 268.094 37.6424 268.301C37.5657 268.506 37.4316 268.735 37.2399 268.988C37.0502 269.239 36.7866 269.546 36.4493 269.908L35.1269 271.323V271.369H37.8637V272.001H34.1495ZM40.9714 272.081C40.5383 272.081 40.1693 271.964 39.8646 271.728C39.5599 271.49 39.327 271.146 39.166 270.696C39.005 270.244 38.9245 269.697 38.9245 269.057C38.9245 268.421 39.005 267.878 39.166 267.427C39.3289 266.975 39.5628 266.63 39.8675 266.392C40.1741 266.153 40.5421 266.033 40.9714 266.033C41.4007 266.033 41.7677 266.153 42.0725 266.392C42.3791 266.63 42.6129 266.975 42.7739 267.427C42.9368 267.878 43.0183 268.421 43.0183 269.057C43.0183 269.697 42.9378 270.244 42.7768 270.696C42.6158 271.146 42.3829 271.49 42.0782 271.728C41.7735 271.964 41.4045 272.081 40.9714 272.081ZM40.9714 271.449C41.4007 271.449 41.7342 271.242 41.9718 270.828C42.2095 270.414 42.3283 269.824 42.3283 269.057C42.3283 268.547 42.2737 268.113 42.1644 267.755C42.0571 267.397 41.9019 267.123 41.6987 266.936C41.4975 266.748 41.2551 266.654 40.9714 266.654C40.5459 266.654 40.2134 266.864 39.9738 267.283C39.7343 267.701 39.6145 268.292 39.6145 269.057C39.6145 269.567 39.6682 270 39.7755 270.357C39.8828 270.713 40.0371 270.984 40.2383 271.17C40.4415 271.356 40.6858 271.449 40.9714 271.449ZM46.0311 272.081C45.5979 272.081 45.229 271.964 44.9243 271.728C44.6195 271.49 44.3867 271.146 44.2257 270.696C44.0647 270.244 43.9842 269.697 43.9842 269.057C43.9842 268.421 44.0647 267.878 44.2257 267.427C44.3886 266.975 44.6224 266.63 44.9271 266.392C45.2338 266.153 45.6018 266.033 46.0311 266.033C46.4604 266.033 46.8274 266.153 47.1321 266.392C47.4388 266.63 47.6726 266.975 47.8336 267.427C47.9965 267.878 48.0779 268.421 48.0779 269.057C48.0779 269.697 47.9974 270.244 47.8364 270.696C47.6754 271.146 47.4426 271.49 47.1379 271.728C46.8331 271.964 46.4642 272.081 46.0311 272.081ZM46.0311 271.449C46.4604 271.449 46.7938 271.242 47.0315 270.828C47.2691 270.414 47.388 269.824 47.388 269.057C47.388 268.547 47.3333 268.113 47.2241 267.755C47.1168 267.397 46.9615 267.123 46.7584 266.936C46.5571 266.748 46.3147 266.654 46.0311 266.654C45.6056 266.654 45.2731 266.864 45.0335 267.283C44.7939 267.701 44.6741 268.292 44.6741 269.057C44.6741 269.567 44.7278 270 44.8351 270.357C44.9425 270.713 45.0967 270.984 45.298 271.17C45.5011 271.356 45.7455 271.449 46.0311 271.449ZM51.0907 272.081C50.6576 272.081 50.2886 271.964 49.9839 271.728C49.6792 271.49 49.4463 271.146 49.2853 270.696C49.1243 270.244 49.0439 269.697 49.0439 269.057C49.0439 268.421 49.1243 267.878 49.2853 267.427C49.4482 266.975 49.6821 266.63 49.9868 266.392C50.2934 266.153 50.6614 266.033 51.0907 266.033C51.52 266.033 51.887 266.153 52.1918 266.392C52.4984 266.63 52.7322 266.975 52.8932 267.427C53.0561 267.878 53.1376 268.421 53.1376 269.057C53.1376 269.697 53.0571 270.244 52.8961 270.696C52.7351 271.146 52.5022 271.49 52.1975 271.728C51.8928 271.964 51.5238 272.081 51.0907 272.081ZM51.0907 271.449C51.52 271.449 51.8535 271.242 52.0911 270.828C52.3288 270.414 52.4476 269.824 52.4476 269.057C52.4476 268.547 52.393 268.113 52.2838 267.755C52.1764 267.397 52.0212 267.123 51.818 266.936C51.6168 266.748 51.3744 266.654 51.0907 266.654C50.6652 266.654 50.3327 266.864 50.0932 267.283C49.8536 267.701 49.7338 268.292 49.7338 269.057C49.7338 269.567 49.7875 270 49.8948 270.357C50.0021 270.713 50.1564 270.984 50.3576 271.17C50.5608 271.356 50.8051 271.449 51.0907 271.449Z" fill="black" fill-opacity="0.4"/>
<path d="M175.078 272.001V271.484L177.021 269.356C177.249 269.107 177.437 268.89 177.585 268.706C177.732 268.521 177.842 268.346 177.913 268.183C177.985 268.018 178.022 267.846 178.022 267.666C178.022 267.459 177.972 267.28 177.872 267.128C177.775 266.977 177.64 266.86 177.47 266.777C177.299 266.695 177.108 266.654 176.895 266.654C176.669 266.654 176.471 266.701 176.303 266.795C176.136 266.887 176.007 267.016 175.915 267.183C175.824 267.35 175.779 267.545 175.779 267.769H175.101C175.101 267.424 175.18 267.121 175.34 266.861C175.499 266.6 175.715 266.397 175.989 266.251C176.265 266.106 176.575 266.033 176.918 266.033C177.263 266.033 177.569 266.106 177.835 266.251C178.101 266.397 178.31 266.593 178.462 266.841C178.613 267.088 178.689 267.363 178.689 267.666C178.689 267.882 178.649 268.094 178.571 268.301C178.494 268.506 178.36 268.735 178.168 268.988C177.979 269.239 177.715 269.546 177.378 269.908L176.055 271.323V271.369H178.792V272.001H175.078ZM181.9 272.081C181.467 272.081 181.098 271.964 180.793 271.728C180.488 271.49 180.255 271.146 180.094 270.696C179.934 270.244 179.853 269.697 179.853 269.057C179.853 268.421 179.934 267.878 180.094 267.427C180.257 266.975 180.491 266.63 180.796 266.392C181.103 266.153 181.471 266.033 181.9 266.033C182.329 266.033 182.696 266.153 183.001 266.392C183.308 266.63 183.541 266.975 183.702 267.427C183.865 267.878 183.947 268.421 183.947 269.057C183.947 269.697 183.866 270.244 183.705 270.696C183.544 271.146 183.311 271.49 183.007 271.728C182.702 271.964 182.333 272.081 181.9 272.081ZM181.9 271.449C182.329 271.449 182.663 271.242 182.9 270.828C183.138 270.414 183.257 269.824 183.257 269.057C183.257 268.547 183.202 268.113 183.093 267.755C182.986 267.397 182.83 267.123 182.627 266.936C182.426 266.748 182.184 266.654 181.9 266.654C181.474 266.654 181.142 266.864 180.902 267.283C180.663 267.701 180.543 268.292 180.543 269.057C180.543 269.567 180.597 270 180.704 270.357C180.811 270.713 180.966 270.984 181.167 271.17C181.37 271.356 181.614 271.449 181.9 271.449ZM186.96 272.081C186.526 272.081 186.157 271.964 185.853 271.728C185.548 271.49 185.315 271.146 185.154 270.696C184.993 270.244 184.913 269.697 184.913 269.057C184.913 268.421 184.993 267.878 185.154 267.427C185.317 266.975 185.551 266.63 185.856 266.392C186.162 266.153 186.53 266.033 186.96 266.033C187.389 266.033 187.756 266.153 188.061 266.392C188.367 266.63 188.601 266.975 188.762 267.427C188.925 267.878 189.006 268.421 189.006 269.057C189.006 269.697 188.926 270.244 188.765 270.696C188.604 271.146 188.371 271.49 188.066 271.728C187.762 271.964 187.393 272.081 186.96 272.081ZM186.96 271.449C187.389 271.449 187.722 271.242 187.96 270.828C188.198 270.414 188.316 269.824 188.316 269.057C188.316 268.547 188.262 268.113 188.153 267.755C188.045 267.397 187.89 267.123 187.687 266.936C187.486 266.748 187.243 266.654 186.96 266.654C186.534 266.654 186.202 266.864 185.962 267.283C185.722 267.701 185.603 268.292 185.603 269.057C185.603 269.567 185.656 270 185.764 270.357C185.871 270.713 186.025 270.984 186.226 271.17C186.43 271.356 186.674 271.449 186.96 271.449ZM192.169 266.113V272.001H191.456V266.861H191.421L189.984 267.815V267.091L191.456 266.113H192.169Z" fill="black" fill-opacity="0.4"/>
<path d="M314.006 272.001V271.484L315.95 269.356C316.178 269.107 316.366 268.89 316.513 268.706C316.661 268.521 316.77 268.346 316.841 268.183C316.914 268.018 316.95 267.846 316.95 267.666C316.95 267.459 316.9 267.28 316.801 267.128C316.703 266.977 316.569 266.86 316.398 266.777C316.228 266.695 316.036 266.654 315.823 266.654C315.597 266.654 315.4 266.701 315.231 266.795C315.064 266.887 314.935 267.016 314.843 267.183C314.753 267.35 314.708 267.545 314.708 267.769H314.029C314.029 267.424 314.109 267.121 314.268 266.861C314.427 266.6 314.644 266.397 314.918 266.251C315.194 266.106 315.503 266.033 315.846 266.033C316.191 266.033 316.497 266.106 316.763 266.251C317.03 266.397 317.239 266.593 317.39 266.841C317.541 267.088 317.617 267.363 317.617 267.666C317.617 267.882 317.578 268.094 317.499 268.301C317.423 268.506 317.288 268.735 317.097 268.988C316.907 269.239 316.644 269.546 316.306 269.908L314.984 271.323V271.369H317.721V272.001H314.006ZM320.828 272.081C320.395 272.081 320.026 271.964 319.722 271.728C319.417 271.49 319.184 271.146 319.023 270.696C318.862 270.244 318.781 269.697 318.781 269.057C318.781 268.421 318.862 267.878 319.023 267.427C319.186 266.975 319.42 266.63 319.724 266.392C320.031 266.153 320.399 266.033 320.828 266.033C321.258 266.033 321.625 266.153 321.929 266.392C322.236 266.63 322.47 266.975 322.631 267.427C322.794 267.878 322.875 268.421 322.875 269.057C322.875 269.697 322.795 270.244 322.634 270.696C322.473 271.146 322.24 271.49 321.935 271.728C321.63 271.964 321.261 272.081 320.828 272.081ZM320.828 271.449C321.258 271.449 321.591 271.242 321.829 270.828C322.066 270.414 322.185 269.824 322.185 269.057C322.185 268.547 322.131 268.113 322.021 267.755C321.914 267.397 321.759 267.123 321.556 266.936C321.354 266.748 321.112 266.654 320.828 266.654C320.403 266.654 320.07 266.864 319.831 267.283C319.591 267.701 319.471 268.292 319.471 269.057C319.471 269.567 319.525 270 319.632 270.357C319.74 270.713 319.894 270.984 320.095 271.17C320.298 271.356 320.543 271.449 320.828 271.449ZM325.888 272.081C325.455 272.081 325.086 271.964 324.781 271.728C324.476 271.49 324.244 271.146 324.083 270.696C323.922 270.244 323.841 269.697 323.841 269.057C323.841 268.421 323.922 267.878 324.083 267.427C324.246 266.975 324.479 266.63 324.784 266.392C325.091 266.153 325.459 266.033 325.888 266.033C326.317 266.033 326.684 266.153 326.989 266.392C327.296 266.63 327.53 266.975 327.69 267.427C327.853 267.878 327.935 268.421 327.935 269.057C327.935 269.697 327.854 270.244 327.693 270.696C327.532 271.146 327.3 271.49 326.995 271.728C326.69 271.964 326.321 272.081 325.888 272.081ZM325.888 271.449C326.317 271.449 326.651 271.242 326.888 270.828C327.126 270.414 327.245 269.824 327.245 269.057C327.245 268.547 327.19 268.113 327.081 267.755C326.974 267.397 326.818 267.123 326.615 266.936C326.414 266.748 326.172 266.654 325.888 266.654C325.463 266.654 325.13 266.864 324.89 267.283C324.651 267.701 324.531 268.292 324.531 269.057C324.531 269.567 324.585 270 324.692 270.357C324.799 270.713 324.954 270.984 325.155 271.17C325.358 271.356 325.602 271.449 325.888 271.449ZM329.027 272.001V271.484L330.971 269.356C331.199 269.107 331.387 268.89 331.534 268.706C331.682 268.521 331.791 268.346 331.862 268.183C331.935 268.018 331.971 267.846 331.971 267.666C331.971 267.459 331.921 267.28 331.822 267.128C331.724 266.977 331.59 266.86 331.419 266.777C331.249 266.695 331.057 266.654 330.844 266.654C330.618 266.654 330.421 266.701 330.252 266.795C330.085 266.887 329.956 267.016 329.864 267.183C329.774 267.35 329.729 267.545 329.729 267.769H329.05C329.05 267.424 329.13 267.121 329.289 266.861C329.448 266.6 329.665 266.397 329.939 266.251C330.215 266.106 330.524 266.033 330.867 266.033C331.212 266.033 331.518 266.106 331.784 266.251C332.051 266.397 332.26 266.593 332.411 266.841C332.562 267.088 332.638 267.363 332.638 267.666C332.638 267.882 332.599 268.094 332.52 268.301C332.443 268.506 332.309 268.735 332.118 268.988C331.928 269.239 331.664 269.546 331.327 269.908L330.005 271.323V271.369H332.742V272.001H329.027Z" fill="black" fill-opacity="0.4"/>
<path d="M453.935 272.001V271.484L455.878 269.356C456.106 269.107 456.294 268.89 456.441 268.706C456.589 268.521 456.698 268.346 456.769 268.183C456.842 268.018 456.878 267.846 456.878 267.666C456.878 267.459 456.829 267.28 456.729 267.128C456.631 266.977 456.497 266.86 456.326 266.777C456.156 266.695 455.964 266.654 455.752 266.654C455.525 266.654 455.328 266.701 455.159 266.795C454.993 266.887 454.863 267.016 454.771 267.183C454.681 267.35 454.636 267.545 454.636 267.769H453.958C453.958 267.424 454.037 267.121 454.196 266.861C454.355 266.6 454.572 266.397 454.846 266.251C455.122 266.106 455.431 266.033 455.775 266.033C456.12 266.033 456.425 266.106 456.692 266.251C456.958 266.397 457.167 266.593 457.318 266.841C457.47 267.088 457.545 267.363 457.545 267.666C457.545 267.882 457.506 268.094 457.428 268.301C457.351 268.506 457.217 268.735 457.025 268.988C456.835 269.239 456.572 269.546 456.234 269.908L454.912 271.323V271.369H457.649V272.001H453.935ZM460.757 272.081C460.323 272.081 459.954 271.964 459.65 271.728C459.345 271.49 459.112 271.146 458.951 270.696C458.79 270.244 458.71 269.697 458.71 269.057C458.71 268.421 458.79 267.878 458.951 267.427C459.114 266.975 459.348 266.63 459.653 266.392C459.959 266.153 460.327 266.033 460.757 266.033C461.186 266.033 461.553 266.153 461.858 266.392C462.164 266.63 462.398 266.975 462.559 267.427C462.722 267.878 462.803 268.421 462.803 269.057C462.803 269.697 462.723 270.244 462.562 270.696C462.401 271.146 462.168 271.49 461.863 271.728C461.559 271.964 461.19 272.081 460.757 272.081ZM460.757 271.449C461.186 271.449 461.519 271.242 461.757 270.828C461.995 270.414 462.113 269.824 462.113 269.057C462.113 268.547 462.059 268.113 461.95 267.755C461.842 267.397 461.687 267.123 461.484 266.936C461.283 266.748 461.04 266.654 460.757 266.654C460.331 266.654 459.999 266.864 459.759 267.283C459.519 267.701 459.4 268.292 459.4 269.057C459.4 269.567 459.453 270 459.561 270.357C459.668 270.713 459.822 270.984 460.023 271.17C460.227 271.356 460.471 271.449 460.757 271.449ZM465.816 272.081C465.383 272.081 465.014 271.964 464.709 271.728C464.405 271.49 464.172 271.146 464.011 270.696C463.85 270.244 463.769 269.697 463.769 269.057C463.769 268.421 463.85 267.878 464.011 267.427C464.174 266.975 464.408 266.63 464.712 266.392C465.019 266.153 465.387 266.033 465.816 266.033C466.246 266.033 466.613 266.153 466.917 266.392C467.224 266.63 467.458 266.975 467.619 267.427C467.782 267.878 467.863 268.421 467.863 269.057C467.863 269.697 467.783 270.244 467.622 270.696C467.461 271.146 467.228 271.49 466.923 271.728C466.618 271.964 466.249 272.081 465.816 272.081ZM465.816 271.449C466.246 271.449 466.579 271.242 466.817 270.828C467.054 270.414 467.173 269.824 467.173 269.057C467.173 268.547 467.118 268.113 467.009 267.755C466.902 267.397 466.747 267.123 466.544 266.936C466.342 266.748 466.1 266.654 465.816 266.654C465.391 266.654 465.058 266.864 464.819 267.283C464.579 267.701 464.459 268.292 464.459 269.057C464.459 269.567 464.513 270 464.62 270.357C464.728 270.713 464.882 270.984 465.083 271.17C465.286 271.356 465.531 271.449 465.816 271.449ZM470.945 272.081C470.565 272.081 470.227 272.016 469.93 271.886C469.635 271.756 469.4 271.575 469.226 271.343C469.053 271.109 468.959 270.838 468.944 270.529H469.668C469.684 270.719 469.749 270.883 469.864 271.021C469.979 271.157 470.129 271.262 470.315 271.337C470.501 271.412 470.707 271.449 470.933 271.449C471.186 271.449 471.411 271.405 471.606 271.317C471.802 271.229 471.955 271.106 472.066 270.949C472.177 270.792 472.233 270.61 472.233 270.403C472.233 270.186 472.179 269.995 472.072 269.831C471.964 269.664 471.807 269.533 471.6 269.44C471.393 269.346 471.14 269.299 470.841 269.299H470.37V268.666H470.841C471.075 268.666 471.28 268.624 471.457 268.54C471.635 268.455 471.774 268.337 471.873 268.183C471.975 268.03 472.026 267.85 472.026 267.643C472.026 267.443 471.982 267.27 471.894 267.122C471.805 266.975 471.681 266.86 471.52 266.777C471.361 266.695 471.173 266.654 470.956 266.654C470.753 266.654 470.562 266.691 470.381 266.766C470.203 266.839 470.058 266.945 469.944 267.085C469.831 267.223 469.77 267.39 469.76 267.585H469.07C469.082 267.277 469.175 267.006 469.349 266.775C469.524 266.541 469.752 266.359 470.034 266.228C470.317 266.098 470.629 266.033 470.968 266.033C471.332 266.033 471.644 266.107 471.905 266.254C472.166 266.4 472.366 266.593 472.506 266.832C472.646 267.072 472.716 267.33 472.716 267.608C472.716 267.94 472.629 268.223 472.454 268.456C472.282 268.69 472.047 268.852 471.75 268.942V268.988C472.122 269.05 472.412 269.208 472.621 269.463C472.83 269.716 472.934 270.029 472.934 270.403C472.934 270.723 472.847 271.01 472.673 271.265C472.5 271.518 472.264 271.717 471.965 271.863C471.666 272.009 471.326 272.081 470.945 272.081Z" fill="black" fill-opacity="0.4"/>
<path d="M594.863 272.001V271.484L596.806 269.356C597.035 269.107 597.222 268.89 597.37 268.706C597.518 268.521 597.627 268.346 597.698 268.183C597.771 268.018 597.807 267.846 597.807 267.666C597.807 267.459 597.757 267.28 597.657 267.128C597.56 266.977 597.426 266.86 597.255 266.777C597.084 266.695 596.893 266.654 596.68 266.654C596.454 266.654 596.256 266.701 596.088 266.795C595.921 266.887 595.792 267.016 595.7 267.183C595.61 267.35 595.565 267.545 595.565 267.769H594.886C594.886 267.424 594.966 267.121 595.125 266.861C595.284 266.6 595.5 266.397 595.774 266.251C596.05 266.106 596.36 266.033 596.703 266.033C597.048 266.033 597.354 266.106 597.62 266.251C597.886 266.397 598.095 266.593 598.247 266.841C598.398 267.088 598.474 267.363 598.474 267.666C598.474 267.882 598.435 268.094 598.356 268.301C598.279 268.506 598.145 268.735 597.954 268.988C597.764 269.239 597.5 269.546 597.163 269.908L595.841 271.323V271.369H598.577V272.001H594.863ZM601.685 272.081C601.252 272.081 600.883 271.964 600.578 271.728C600.273 271.49 600.041 271.146 599.88 270.696C599.719 270.244 599.638 269.697 599.638 269.057C599.638 268.421 599.719 267.878 599.88 267.427C600.043 266.975 600.276 266.63 600.581 266.392C600.888 266.153 601.256 266.033 601.685 266.033C602.114 266.033 602.481 266.153 602.786 266.392C603.093 266.63 603.327 266.975 603.488 267.427C603.65 267.878 603.732 268.421 603.732 269.057C603.732 269.697 603.651 270.244 603.49 270.696C603.329 271.146 603.097 271.49 602.792 271.728C602.487 271.964 602.118 272.081 601.685 272.081ZM601.685 271.449C602.114 271.449 602.448 271.242 602.685 270.828C602.923 270.414 603.042 269.824 603.042 269.057C603.042 268.547 602.987 268.113 602.878 267.755C602.771 267.397 602.616 267.123 602.412 266.936C602.211 266.748 601.969 266.654 601.685 266.654C601.26 266.654 600.927 266.864 600.687 267.283C600.448 267.701 600.328 268.292 600.328 269.057C600.328 269.567 600.382 270 600.489 270.357C600.596 270.713 600.751 270.984 600.952 271.17C601.155 271.356 601.399 271.449 601.685 271.449ZM606.745 272.081C606.312 272.081 605.943 271.964 605.638 271.728C605.333 271.49 605.1 271.146 604.939 270.696C604.778 270.244 604.698 269.697 604.698 269.057C604.698 268.421 604.778 267.878 604.939 267.427C605.102 266.975 605.336 266.63 605.641 266.392C605.947 266.153 606.315 266.033 606.745 266.033C607.174 266.033 607.541 266.153 607.846 266.392C608.152 266.63 608.386 266.975 608.547 267.427C608.71 267.878 608.792 268.421 608.792 269.057C608.792 269.697 608.711 270.244 608.55 270.696C608.389 271.146 608.156 271.49 607.851 271.728C607.547 271.964 607.178 272.081 606.745 272.081ZM606.745 271.449C607.174 271.449 607.507 271.242 607.745 270.828C607.983 270.414 608.102 269.824 608.102 269.057C608.102 268.547 608.047 268.113 607.938 267.755C607.83 267.397 607.675 267.123 607.472 266.936C607.271 266.748 607.028 266.654 606.745 266.654C606.319 266.654 605.987 266.864 605.747 267.283C605.508 267.701 605.388 268.292 605.388 269.057C605.388 269.567 605.441 270 605.549 270.357C605.656 270.713 605.81 270.984 606.012 271.17C606.215 271.356 606.459 271.449 606.745 271.449ZM609.746 270.794V270.207L612.333 266.113H612.759V267.022H612.471L610.516 270.115V270.161H614.001V270.794H609.746ZM612.517 272.001V270.615V270.342V266.113H613.196V272.001H612.517Z" fill="black" fill-opacity="0.4"/>
<path d="M44.3344 256.694L156.321 192.605H265.61L375.91 159.548L493.969 95.7969L601.908 225.661" stroke="#2D9CDB" stroke-width="1.34924" stroke-linejoin="round"/>
<circle cx="43.997" cy="256.693" r="3.03579" fill="#2D9CDB"/>
<circle cx="156.659" cy="192.604" r="3.03579" fill="#2D9CDB"/>
<circle cx="267.971" cy="192.604" r="3.03579" fill="#2D9CDB"/>
<circle cx="375.91" cy="158.874" r="3.03579" fill="#2D9CDB"/>
<circle cx="493.294" cy="96.1334" r="3.03579" fill="#2D9CDB"/>
<circle cx="601.908" cy="226.336" r="3.03579" fill="#2D9CDB"/>
<path d="M44.3335 194.291L156.995 175.401H267.97L375.909 64.089H493.968L602.582 32.3818" stroke="#BF0E0E" stroke-width="1.34924" stroke-linejoin="round"/>
<circle cx="43.9965" cy="194.291" r="3.03579" fill="#BF0E0E"/>
<circle cx="156.658" cy="175.739" r="3.03579" fill="#BF0E0E"/>
<circle cx="267.97" cy="173.715" r="3.03579" fill="#BF0E0E"/>
<circle cx="375.91" cy="63.7516" r="3.03579" fill="#BF0E0E"/>
<circle cx="493.294" cy="63.7516" r="3.03579" fill="#BF0E0E"/>
<circle cx="601.908" cy="32.7194" r="3.03579" fill="#BF0E0E"/>
<path d="M44.3344 184.509H156.659L266.284 161.909L376.585 89.0498L493.969 44.1875L602.583 44.1875" stroke="#E67C00" stroke-width="1.34924" stroke-linejoin="round"/>
<circle cx="43.997" cy="184.509" r="3.03579" fill="#E67C00"/>
<circle cx="156.659" cy="184.509" r="3.03579" fill="#E67C00"/>
<circle cx="267.971" cy="160.897" r="3.03579" fill="#E67C00"/>
<circle cx="375.91" cy="90.0622" r="3.03579" fill="#E67C00"/>
<circle cx="493.294" cy="44.1881" r="3.03579" fill="#E67C00"/>
<circle cx="601.908" cy="44.1881" r="3.03579" fill="#E67C00"/>
</svg>
