<svg width="608" height="262" viewBox="0 0 608 262" fill="none" xmlns="http://www.w3.org/2000/svg">
<rect x="86.8569" y="193.438" width="14.9587" height="33.2952" fill="url(#paint0_linear_2023_13259)"/>
<rect x="110.501" y="160.143" width="14.9587" height="66.5905" fill="url(#paint1_linear_2023_13259)"/>
<rect x="165.994" y="29.8574" width="14.9587" height="196.876" fill="url(#paint2_linear_2023_13259)"/>
<rect x="189.638" y="86.3145" width="14.9587" height="140.419" fill="url(#paint3_linear_2023_13259)"/>
<rect x="245.13" y="29.8574" width="14.9587" height="196.876" fill="url(#paint4_linear_2023_13259)"/>
<rect x="268.774" y="86.3145" width="14.9587" height="140.419" fill="url(#paint5_linear_2023_13259)"/>
<rect x="324.267" y="174.619" width="14.9587" height="52.1143" fill="url(#paint6_linear_2023_13259)"/>
<rect x="347.911" y="116.715" width="14.9587" height="110.019" fill="url(#paint7_linear_2023_13259)"/>
<rect x="403.403" y="174.619" width="14.9587" height="52.1143" fill="url(#paint8_linear_2023_13259)"/>
<rect x="427.047" y="116.715" width="14.9587" height="110.019" fill="url(#paint9_linear_2023_13259)"/>
<rect x="482.54" y="45.7812" width="14.9587" height="180.952" fill="url(#paint10_linear_2023_13259)"/>
<rect x="506.184" y="173.172" width="14.9587" height="53.5619" fill="url(#paint11_linear_2023_13259)"/>
<path d="M108.571 195.233L186.743 226.734L264.914 156.321L343.086 180.41L421.257 223.028L499.428 87.7622" stroke="url(#paint12_linear_2023_13259)" stroke-width="4.34286" stroke-linecap="round"/>
<path d="M32.0417 23.6871C33.1883 23.6871 34.1263 24.0172 34.8733 24.6773C35.6029 25.3374 35.9851 26.2233 35.9851 27.3004C35.9851 28.3774 35.5681 29.3502 34.7691 30.2188C34.3348 30.6704 33.4836 31.3479 32.1981 32.2165C30.6173 33.2761 29.714 34.2316 29.4881 35.0654H36.0024V36.3335H27.7336C27.7336 35.2044 28.1332 34.1794 28.967 33.2588C29.4534 32.7029 30.3393 31.9559 31.6596 31.0526C32.6324 30.3577 33.2751 29.854 33.6052 29.5065C34.2305 28.829 34.5606 28.0821 34.5606 27.283C34.5606 26.5186 34.3348 25.9454 33.8831 25.5285C33.4315 25.1116 32.7887 24.9031 31.9896 24.9031C31.1384 24.9031 30.4783 25.181 30.0267 25.7717C29.5403 26.3276 29.2797 27.1614 29.2623 28.2558H27.8379C27.8379 26.8661 28.2374 25.7543 29.0017 24.9378C29.7661 24.104 30.791 23.6871 32.0417 23.6871ZM42.2841 23.6871C43.7607 23.6871 44.8724 24.3298 45.6368 25.6501C46.2969 26.7618 46.627 28.2558 46.627 30.1319C46.627 32.008 46.2969 33.502 45.6368 34.6137C44.8724 35.9166 43.7607 36.5767 42.2841 36.5767C40.7902 36.5767 39.6784 35.9166 38.9314 34.6137C38.2713 33.502 37.9412 32.008 37.9412 30.1319C37.9412 28.2558 38.2713 26.7618 38.9314 25.6501C39.6784 24.3298 40.7902 23.6871 42.2841 23.6871ZM42.2841 24.9031C41.1723 24.9031 40.3732 25.4937 39.8868 26.6924C39.5394 27.5262 39.3657 28.6727 39.3657 30.1319C39.3657 31.5737 39.5394 32.7202 39.8868 33.5714C40.3732 34.7527 41.1723 35.3607 42.2841 35.3607C43.3959 35.3607 44.195 34.7527 44.6814 33.5714C45.0288 32.7202 45.2199 31.5737 45.2199 30.1319C45.2199 28.6727 45.0288 27.5262 44.6814 26.6924C44.195 25.4937 43.3959 24.9031 42.2841 24.9031ZM52.7002 23.6871C54.1767 23.6871 55.2885 24.3298 56.0529 25.6501C56.713 26.7618 57.043 28.2558 57.043 30.1319C57.043 32.008 56.713 33.502 56.0529 34.6137C55.2885 35.9166 54.1767 36.5767 52.7002 36.5767C51.2062 36.5767 50.0945 35.9166 49.3475 34.6137C48.6874 33.502 48.3573 32.008 48.3573 30.1319C48.3573 28.2558 48.6874 26.7618 49.3475 25.6501C50.0945 24.3298 51.2062 23.6871 52.7002 23.6871ZM52.7002 24.9031C51.5884 24.9031 50.7893 25.4937 50.3029 26.6924C49.9555 27.5262 49.7818 28.6727 49.7818 30.1319C49.7818 31.5737 49.9555 32.7202 50.3029 33.5714C50.7893 34.7527 51.5884 35.3607 52.7002 35.3607C53.8119 35.3607 54.611 34.7527 55.0974 33.5714C55.4449 32.7202 55.6359 31.5737 55.6359 30.1319C55.6359 28.6727 55.4449 27.5262 55.0974 26.6924C54.611 25.4937 53.8119 24.9031 52.7002 24.9031Z" fill="white" fill-opacity="0.4"/>
<path d="M66.5903 29.8574H541.409" stroke="white" stroke-opacity="0.2" stroke-width="1.44762" stroke-dasharray="2.9 2.9"/>
<path d="M556.766 23.9303H558.103V32.3554H560.119V33.5193H558.103V36.3335H556.748V33.5193H550.512V32.1644L556.766 23.9303ZM556.696 25.789L551.711 32.3554H556.748V25.789H556.696ZM565.723 23.6871C567.199 23.6871 568.311 24.3298 569.075 25.6501C569.736 26.7618 570.066 28.2558 570.066 30.1319C570.066 32.008 569.736 33.502 569.075 34.6137C568.311 35.9166 567.199 36.5767 565.723 36.5767C564.229 36.5767 563.117 35.9166 562.37 34.6137C561.71 33.502 561.38 32.008 561.38 30.1319C561.38 28.2558 561.71 26.7618 562.37 25.6501C563.117 24.3298 564.229 23.6871 565.723 23.6871ZM565.723 24.9031C564.611 24.9031 563.812 25.4937 563.325 26.6924C562.978 27.5262 562.804 28.6727 562.804 30.1319C562.804 31.5737 562.978 32.7202 563.325 33.5714C563.812 34.7527 564.611 35.3607 565.723 35.3607C566.834 35.3607 567.634 34.7527 568.12 33.5714C568.467 32.7202 568.658 31.5737 568.658 30.1319C568.658 28.6727 568.467 27.5262 568.12 26.6924C567.634 25.4937 566.834 24.9031 565.723 24.9031ZM576.139 23.6871C577.615 23.6871 578.727 24.3298 579.491 25.6501C580.152 26.7618 580.482 28.2558 580.482 30.1319C580.482 32.008 580.152 33.502 579.491 34.6137C578.727 35.9166 577.615 36.5767 576.139 36.5767C574.645 36.5767 573.533 35.9166 572.786 34.6137C572.126 33.502 571.796 32.008 571.796 30.1319C571.796 28.2558 572.126 26.7618 572.786 25.6501C573.533 24.3298 574.645 23.6871 576.139 23.6871ZM576.139 24.9031C575.027 24.9031 574.228 25.4937 573.742 26.6924C573.394 27.5262 573.22 28.6727 573.22 30.1319C573.22 31.5737 573.394 32.7202 573.742 33.5714C574.228 34.7527 575.027 35.3607 576.139 35.3607C577.251 35.3607 578.05 34.7527 578.536 33.5714C578.883 32.7202 579.075 31.5737 579.075 30.1319C579.075 28.6727 578.883 27.5262 578.536 26.6924C578.05 25.4937 577.251 24.9031 576.139 24.9031Z" fill="white" fill-opacity="0.4"/>
<path d="M34.0958 122.392H35.2075V134.795H33.7831V124.129C33.0014 124.928 32.0286 125.484 30.8647 125.832V124.407C31.4206 124.251 32.0112 124.008 32.6018 123.66C33.1925 123.278 33.6789 122.861 34.0958 122.392ZM42.2841 122.149C43.7607 122.149 44.8724 122.792 45.6368 124.112C46.2969 125.224 46.627 126.718 46.627 128.594C46.627 130.47 46.2969 131.964 45.6368 133.076C44.8724 134.378 43.7607 135.039 42.2841 135.039C40.7902 135.039 39.6784 134.378 38.9314 133.076C38.2713 131.964 37.9412 130.47 37.9412 128.594C37.9412 126.718 38.2713 125.224 38.9314 124.112C39.6784 122.792 40.7902 122.149 42.2841 122.149ZM42.2841 123.365C41.1723 123.365 40.3732 123.956 39.8868 125.154C39.5394 125.988 39.3657 127.135 39.3657 128.594C39.3657 130.036 39.5394 131.182 39.8868 132.033C40.3732 133.215 41.1723 133.823 42.2841 133.823C43.3959 133.823 44.195 133.215 44.6814 132.033C45.0288 131.182 45.2199 130.036 45.2199 128.594C45.2199 127.135 45.0288 125.988 44.6814 125.154C44.195 123.956 43.3959 123.365 42.2841 123.365ZM52.7002 122.149C54.1767 122.149 55.2885 122.792 56.0529 124.112C56.713 125.224 57.043 126.718 57.043 128.594C57.043 130.47 56.713 131.964 56.0529 133.076C55.2885 134.378 54.1767 135.039 52.7002 135.039C51.2062 135.039 50.0945 134.378 49.3475 133.076C48.6874 131.964 48.3573 130.47 48.3573 128.594C48.3573 126.718 48.6874 125.224 49.3475 124.112C50.0945 122.792 51.2062 122.149 52.7002 122.149ZM52.7002 123.365C51.5884 123.365 50.7893 123.956 50.3029 125.154C49.9555 125.988 49.7818 127.135 49.7818 128.594C49.7818 130.036 49.9555 131.182 50.3029 132.033C50.7893 133.215 51.5884 133.823 52.7002 133.823C53.8119 133.823 54.611 133.215 55.0974 132.033C55.4449 131.182 55.6359 130.036 55.6359 128.594C55.6359 127.135 55.4449 125.988 55.0974 125.154C54.611 123.956 53.8119 123.365 52.7002 123.365Z" fill="white" fill-opacity="0.4"/>
<path d="M66.5903 128.295H541.409" stroke="white" stroke-opacity="0.2" stroke-width="1.44762" stroke-dasharray="2.9 2.9"/>
<path d="M555.48 122.149C556.627 122.149 557.565 122.479 558.312 123.139C559.042 123.799 559.424 124.685 559.424 125.762C559.424 126.839 559.007 127.812 558.208 128.681C557.773 129.132 556.922 129.81 555.637 130.678C554.056 131.738 553.153 132.693 552.927 133.527H559.441V134.795H551.172C551.172 133.666 551.572 132.641 552.406 131.721C552.892 131.165 553.778 130.418 555.098 129.514C556.071 128.82 556.714 128.316 557.044 127.968C557.669 127.291 557.999 126.544 557.999 125.745C557.999 124.981 557.773 124.407 557.322 123.99C556.87 123.573 556.227 123.365 555.428 123.365C554.577 123.365 553.917 123.643 553.465 124.234C552.979 124.789 552.718 125.623 552.701 126.718H551.276C551.276 125.328 551.676 124.216 552.44 123.4C553.205 122.566 554.23 122.149 555.48 122.149ZM565.723 122.149C567.199 122.149 568.311 122.792 569.075 124.112C569.736 125.224 570.066 126.718 570.066 128.594C570.066 130.47 569.736 131.964 569.075 133.076C568.311 134.378 567.199 135.039 565.723 135.039C564.229 135.039 563.117 134.378 562.37 133.076C561.71 131.964 561.38 130.47 561.38 128.594C561.38 126.718 561.71 125.224 562.37 124.112C563.117 122.792 564.229 122.149 565.723 122.149ZM565.723 123.365C564.611 123.365 563.812 123.956 563.325 125.154C562.978 125.988 562.804 127.135 562.804 128.594C562.804 130.036 562.978 131.182 563.325 132.033C563.812 133.215 564.611 133.823 565.723 133.823C566.834 133.823 567.634 133.215 568.12 132.033C568.467 131.182 568.658 130.036 568.658 128.594C568.658 127.135 568.467 125.988 568.12 125.154C567.634 123.956 566.834 123.365 565.723 123.365ZM576.139 122.149C577.615 122.149 578.727 122.792 579.491 124.112C580.152 125.224 580.482 126.718 580.482 128.594C580.482 130.47 580.152 131.964 579.491 133.076C578.727 134.378 577.615 135.039 576.139 135.039C574.645 135.039 573.533 134.378 572.786 133.076C572.126 131.964 571.796 130.47 571.796 128.594C571.796 126.718 572.126 125.224 572.786 124.112C573.533 122.792 574.645 122.149 576.139 122.149ZM576.139 123.365C575.027 123.365 574.228 123.956 573.742 125.154C573.394 125.988 573.22 127.135 573.22 128.594C573.22 130.036 573.394 131.182 573.742 132.033C574.228 133.215 575.027 133.823 576.139 133.823C577.251 133.823 578.05 133.215 578.536 132.033C578.883 131.182 579.075 130.036 579.075 128.594C579.075 127.135 578.883 125.988 578.536 125.154C578.05 123.956 577.251 123.365 576.139 123.365Z" fill="white" fill-opacity="0.4"/>
<path d="M52.7002 220.611C54.1767 220.611 55.2885 221.254 56.0529 222.574C56.713 223.686 57.043 225.18 57.043 227.056C57.043 228.932 56.713 230.426 56.0529 231.538C55.2885 232.841 54.1767 233.501 52.7002 233.501C51.2062 233.501 50.0945 232.841 49.3475 231.538C48.6874 230.426 48.3573 228.932 48.3573 227.056C48.3573 225.18 48.6874 223.686 49.3475 222.574C50.0945 221.254 51.2062 220.611 52.7002 220.611ZM52.7002 221.827C51.5884 221.827 50.7893 222.418 50.3029 223.616C49.9555 224.45 49.7818 225.597 49.7818 227.056C49.7818 228.498 49.9555 229.644 50.3029 230.496C50.7893 231.677 51.5884 232.285 52.7002 232.285C53.8119 232.285 54.611 231.677 55.0974 230.496C55.4449 229.644 55.6359 228.498 55.6359 227.056C55.6359 225.597 55.4449 224.45 55.0974 223.616C54.611 222.418 53.8119 221.827 52.7002 221.827Z" fill="white" fill-opacity="0.4"/>
<path d="M66.5903 226.734H541.409" stroke="white" stroke-opacity="0.2" stroke-width="1.44762" stroke-dasharray="2.9 2.9"/>
<path d="M555.307 220.611C556.783 220.611 557.895 221.254 558.659 222.574C559.319 223.686 559.65 225.18 559.65 227.056C559.65 228.932 559.319 230.426 558.659 231.538C557.895 232.841 556.783 233.501 555.307 233.501C553.813 233.501 552.701 232.841 551.954 231.538C551.294 230.426 550.964 228.932 550.964 227.056C550.964 225.18 551.294 223.686 551.954 222.574C552.701 221.254 553.813 220.611 555.307 220.611ZM555.307 221.827C554.195 221.827 553.396 222.418 552.909 223.616C552.562 224.45 552.388 225.597 552.388 227.056C552.388 228.498 552.562 229.644 552.909 230.496C553.396 231.677 554.195 232.285 555.307 232.285C556.418 232.285 557.218 231.677 557.704 230.496C558.051 229.644 558.242 228.498 558.242 227.056C558.242 225.597 558.051 224.45 557.704 223.616C557.218 222.418 556.418 221.827 555.307 221.827Z" fill="white" fill-opacity="0.4"/>
<path d="M66.5903 227.162H541.59" stroke="white" stroke-opacity="0.4"/>
<defs>
<linearGradient id="paint0_linear_2023_13259" x1="94.3363" y1="193.438" x2="94.3363" y2="226.734" gradientUnits="userSpaceOnUse">
<stop stop-color="#358AFF"/>
<stop offset="1" stop-color="#358AFF" stop-opacity="0.5"/>
</linearGradient>
<linearGradient id="paint1_linear_2023_13259" x1="117.981" y1="160.143" x2="117.981" y2="226.734" gradientUnits="userSpaceOnUse">
<stop stop-color="#F2993D"/>
<stop offset="1" stop-color="#F2993D" stop-opacity="0.5"/>
</linearGradient>
<linearGradient id="paint2_linear_2023_13259" x1="173.473" y1="29.8574" x2="173.473" y2="226.734" gradientUnits="userSpaceOnUse">
<stop stop-color="#358AFF"/>
<stop offset="1" stop-color="#358AFF" stop-opacity="0.5"/>
</linearGradient>
<linearGradient id="paint3_linear_2023_13259" x1="197.118" y1="86.3145" x2="197.118" y2="226.734" gradientUnits="userSpaceOnUse">
<stop stop-color="#F2993D"/>
<stop offset="1" stop-color="#F2993D" stop-opacity="0.5"/>
</linearGradient>
<linearGradient id="paint4_linear_2023_13259" x1="252.609" y1="29.8574" x2="252.609" y2="226.734" gradientUnits="userSpaceOnUse">
<stop stop-color="#358AFF"/>
<stop offset="1" stop-color="#358AFF" stop-opacity="0.5"/>
</linearGradient>
<linearGradient id="paint5_linear_2023_13259" x1="276.254" y1="86.3145" x2="276.254" y2="226.734" gradientUnits="userSpaceOnUse">
<stop stop-color="#F2993D"/>
<stop offset="1" stop-color="#F2993D" stop-opacity="0.5"/>
</linearGradient>
<linearGradient id="paint6_linear_2023_13259" x1="331.746" y1="174.619" x2="331.746" y2="226.734" gradientUnits="userSpaceOnUse">
<stop stop-color="#358AFF"/>
<stop offset="1" stop-color="#358AFF" stop-opacity="0.5"/>
</linearGradient>
<linearGradient id="paint7_linear_2023_13259" x1="355.39" y1="116.715" x2="355.39" y2="226.734" gradientUnits="userSpaceOnUse">
<stop stop-color="#F2993D"/>
<stop offset="1" stop-color="#F2993D" stop-opacity="0.5"/>
</linearGradient>
<linearGradient id="paint8_linear_2023_13259" x1="410.883" y1="174.619" x2="410.883" y2="226.734" gradientUnits="userSpaceOnUse">
<stop stop-color="#358AFF"/>
<stop offset="1" stop-color="#358AFF" stop-opacity="0.5"/>
</linearGradient>
<linearGradient id="paint9_linear_2023_13259" x1="434.527" y1="116.715" x2="434.527" y2="226.734" gradientUnits="userSpaceOnUse">
<stop stop-color="#F2993D"/>
<stop offset="1" stop-color="#F2993D" stop-opacity="0.5"/>
</linearGradient>
<linearGradient id="paint10_linear_2023_13259" x1="490.019" y1="45.7812" x2="490.019" y2="226.734" gradientUnits="userSpaceOnUse">
<stop stop-color="#358AFF"/>
<stop offset="1" stop-color="#358AFF" stop-opacity="0.5"/>
</linearGradient>
<linearGradient id="paint11_linear_2023_13259" x1="513.663" y1="173.172" x2="513.663" y2="226.734" gradientUnits="userSpaceOnUse">
<stop stop-color="#F2993D"/>
<stop offset="1" stop-color="#F2993D" stop-opacity="0.5"/>
</linearGradient>
<linearGradient id="paint12_linear_2023_13259" x1="304" y1="87.7622" x2="304" y2="226.734" gradientUnits="userSpaceOnUse">
<stop stop-color="#80D6EB"/>
<stop offset="1" stop-color="#80D6EB" stop-opacity="0.5"/>
</linearGradient>
</defs>
</svg>
