<svg width="210" height="34" viewBox="0 0 210 34" fill="none" xmlns="http://www.w3.org/2000/svg">
<g clip-path="url(#clip0_2023_12995)">
<path d="M67.0435 26.9091V10.2445H71.397V26.9091H67.0435ZM71.2335 7.56942C70.7206 8.06248 70.0822 8.309 69.3185 8.309C68.5656 8.309 67.9219 8.06248 67.3871 7.56942C66.8635 7.07635 66.6016 6.46788 66.6016 5.74402C66.6016 5.00968 66.8635 4.39072 67.3871 3.88717C67.9219 3.38361 68.5656 3.13184 69.3185 3.13184C70.0822 3.13184 70.7206 3.38361 71.2335 3.88717C71.7463 4.39072 72.0027 5.00968 72.0027 5.74402C72.0027 6.46788 71.7463 7.07635 71.2335 7.56942ZM75.2885 26.9091V10.2445H79.4458V12.0857C79.8931 11.3723 80.5641 10.8163 81.4588 10.4176C82.3536 10.0085 83.292 9.80394 84.2739 9.80394C86.2598 9.80394 87.8256 10.4019 88.9713 11.5979C90.1279 12.7833 90.7061 14.4513 90.7061 16.6019V26.9091H86.3526L86.3853 17.5934C86.3853 16.4288 86.0907 15.5161 85.5016 14.8552C84.9232 14.1943 84.1103 13.8638 83.0628 13.8638C82.0154 13.8638 81.1806 14.2468 80.5586 15.0126C79.9477 15.7679 79.6422 16.7593 79.6422 17.9867V26.9091H75.2885ZM105.924 26.0436C104.516 26.9248 102.754 27.3654 100.637 27.3654C98.5311 27.3654 96.8017 26.9248 95.4487 26.0436C94.0956 25.1623 93.4192 23.7093 93.4192 21.6847H97.6909C97.7783 23.1429 98.7931 23.8719 100.735 23.8719C101.804 23.8719 102.563 23.7566 103.01 23.5258C103.458 23.2846 103.681 22.9225 103.681 22.4401C103.681 21.9575 103.512 21.6218 103.174 21.433C102.847 21.2336 102.132 20.9555 101.03 20.5989L98.2147 19.7176C97.1126 19.4134 96.1033 18.9257 95.1869 18.2542C94.2812 17.5723 93.8339 16.56 93.8448 15.2171C93.8556 13.8848 94.2103 12.8095 94.9085 11.9913C96.1633 10.5435 98.1274 9.81443 100.801 9.80394C102.787 9.80394 104.418 10.2288 105.694 11.0786C106.971 11.9178 107.62 13.2711 107.642 15.1385H103.387C103.365 14.5405 103.114 14.0894 102.634 13.7852C102.154 13.4704 101.51 13.3131 100.703 13.3131C99.1204 13.3131 98.3238 13.7642 98.3129 14.6664C98.3129 14.9916 98.4384 15.2591 98.6893 15.4689C98.9402 15.6787 99.3877 15.8938 100.031 16.1141L103.714 17.2785C105.143 17.7506 106.218 18.3328 106.938 19.0252C107.669 19.7072 108.035 20.6829 108.035 21.9521C108.035 23.7986 107.331 25.1623 105.924 26.0436ZM111.026 26.9091V10.2445H115.38V26.9091H111.026ZM115.216 7.56942C114.703 8.06248 114.065 8.309 113.301 8.309C112.548 8.309 111.904 8.06248 111.37 7.56942C110.846 7.07635 110.584 6.46788 110.584 5.74402C110.584 5.00968 110.846 4.39072 111.37 3.88717C111.904 3.38361 112.548 3.13184 113.301 3.13184C114.065 3.13184 114.703 3.38361 115.216 3.88717C115.729 4.39072 115.985 5.00968 115.985 5.74402C115.985 6.46788 115.729 7.07635 115.216 7.56942ZM123.838 22.0309C124.547 22.9016 125.512 23.337 126.734 23.337C127.967 23.337 128.911 22.9016 129.566 22.0309C130.232 21.1602 130.564 19.98 130.564 18.4903C130.564 17.0005 130.215 15.8256 129.517 14.9654C128.829 14.0946 127.886 13.6593 126.685 13.6593C125.485 13.6593 124.536 14.0894 123.838 14.9496C123.139 15.8099 122.79 16.9848 122.79 18.4745C122.79 19.9642 123.139 21.1497 123.838 22.0309ZM130.662 10.2445H134.787V27.1607C134.787 29.5003 134.22 31.205 133.085 32.2751C131.961 33.3557 130.237 33.8958 127.913 33.8958H120.842V30.3237H126.751C128.093 30.3237 129.042 30.0772 129.599 29.5843C130.155 29.0912 130.433 28.2309 130.433 27.0035V25.304C129.244 26.5523 127.755 27.1714 125.965 27.1607C123.696 27.1607 121.873 26.3845 120.499 24.8318C119.124 23.3002 118.436 21.2125 118.436 18.5689C118.436 15.9253 119.146 13.8061 120.564 12.2116C121.983 10.6065 123.723 9.80394 125.785 9.80394C127.847 9.80394 129.473 10.5435 130.662 12.0227V10.2445ZM138.646 26.9091V3.80848H142.967L142.999 11.7867C144.014 10.4544 145.525 9.7882 147.533 9.7882C149.541 9.7882 151.128 10.3757 152.296 11.5506C153.474 12.7256 154.063 14.3621 154.063 16.4603V26.9091H149.71L149.742 17.5934C149.742 16.4288 149.442 15.5161 148.842 14.8552C148.253 14.1943 147.435 13.8638 146.387 13.8638C145.045 13.8638 144.085 14.4408 143.507 15.5948C143.168 16.2558 142.999 17.0845 142.999 18.0811V26.9091H138.646ZM164.633 26.9091C162.865 26.9091 161.523 26.6101 160.606 26.0122C159.69 25.4037 159.231 24.2287 159.231 22.4873V14.0212H156.154V10.2445H159.231V5.53946H163.585V10.2445H167.612V14.0212H163.585V21.5588C163.585 22.1568 163.716 22.5817 163.978 22.8334C164.24 23.0746 164.714 23.1953 165.402 23.1953H167.612V26.9091H164.633ZM180.979 27.4598C177.498 27.4598 174.765 26.3897 172.779 24.2496C170.805 22.1096 169.817 19.235 169.817 15.6263C169.817 12.0175 170.843 9.06959 172.895 6.78261C174.956 4.49562 177.641 3.35214 180.946 3.35214C185.605 3.34165 188.699 5.04639 190.226 8.46637C190.652 9.41052 190.92 10.4334 191.029 11.5349H186.38C186.086 10.3704 185.491 9.43152 184.596 8.71815C183.701 7.99429 182.513 7.63236 181.028 7.63236C179.545 7.63236 178.306 8.02576 177.312 8.81256C175.534 10.2183 174.646 12.4371 174.646 15.4689C174.646 17.5985 175.147 19.4134 176.151 20.9136C177.155 22.4138 178.786 23.1639 181.045 23.1639C184.035 23.1639 185.823 21.8577 186.413 19.2455H191.06C190.745 21.606 189.654 23.5677 187.787 25.1309C185.934 26.6835 183.663 27.4598 180.979 27.4598ZM198.488 22.1882C199.219 23.059 200.206 23.4944 201.45 23.4944C202.693 23.4944 203.676 23.0537 204.396 22.1724C205.117 21.2913 205.477 20.0954 205.477 18.5847C205.477 17.074 205.112 15.8833 204.379 15.0126C203.66 14.1314 202.683 13.6908 201.45 13.6908C200.228 13.6908 199.246 14.1261 198.504 14.9968C197.773 15.8676 197.407 17.0687 197.407 18.6005C197.407 20.1216 197.768 21.3174 198.488 22.1882ZM207.522 24.8476C205.983 26.5262 203.954 27.3654 201.435 27.3654C198.914 27.3654 196.885 26.5471 195.346 24.9106C193.817 23.274 193.055 21.1916 193.055 18.6633C193.055 16.1246 193.829 14.016 195.378 12.3374C196.928 10.6484 198.958 9.80394 201.467 9.80394C203.987 9.80394 206.012 10.6222 207.539 12.2588C209.077 13.8848 209.847 15.9672 209.847 18.5061C209.847 21.0448 209.072 23.1586 207.522 24.8476Z" fill="black"/>
<mask id="mask0_2023_12995" style="mask-type:luminance" maskUnits="userSpaceOnUse" x="0" y="0" width="52" height="27">
<path d="M51.6201 0H0V26.91H51.6201V0Z" fill="white"/>
</mask>
<g mask="url(#mask0_2023_12995)">
<mask id="mask1_2023_12995" style="mask-type:luminance" maskUnits="userSpaceOnUse" x="0" y="0" width="52" height="27">
<path d="M51.6201 0H0V26.91H51.6201V0Z" fill="white"/>
</mask>
<g mask="url(#mask1_2023_12995)">
<path fill-rule="evenodd" clip-rule="evenodd" d="M17.182 2.04438C20.5589 0.69468 24.1782 0 27.8333 0V13.5077C29.6646 13.5077 31.4777 13.8544 33.1693 14.5279C34.8612 15.2015 36.3984 16.1885 37.6931 17.433C38.9881 18.6776 40.0151 20.1551 40.7159 21.7811C41.4166 23.4071 41.7773 25.1498 41.7773 26.91H27.8333V13.5106C26.0169 13.5106 24.2182 13.8559 22.5402 14.5265C20.8621 15.1972 19.3373 16.1803 18.0528 17.4196C16.7685 18.6591 15.7496 20.1304 15.0544 21.7497C14.3595 23.369 14.0016 25.1044 14.0016 26.8571H0C0 23.3303 0.719928 19.8378 2.11869 16.5794C3.51744 13.321 5.56762 10.3602 8.15219 7.86628C10.7367 5.37237 13.8051 3.39409 17.182 2.04438ZM51.6201 26.91C51.6201 25.1498 51.2608 23.4071 50.5629 21.7813C49.8649 20.1551 48.8418 18.6776 47.5522 17.4331C46.2624 16.1887 44.731 15.2015 43.0462 14.5281C42.63 14.3617 42.2067 14.2153 41.7773 14.0892V26.91H51.6201Z" fill="black"/>
</g>
</g>
</g>
<defs>
<clipPath id="clip0_2023_12995">
<rect width="210" height="34" fill="white"/>
</clipPath>
</defs>
</svg>
